<svg width="204" height="162" viewBox="0 0 204 162" fill="none" xmlns="http://www.w3.org/2000/svg">
<path d="M67.0905 156.047C67.6042 156.1 68.1179 156.198 68.6315 156.189C84.059 156.109 99.4864 156.021 114.914 155.923C123.389 155.87 131.865 155.79 140.34 155.701C140.774 155.701 141.199 155.488 141.633 155.373C141.42 155.045 141.226 154.707 140.995 154.388C137.949 150.147 137.037 145.222 138.87 140.581C145.167 124.663 165.323 116.916 180.857 128.478C181.317 128.815 181.769 129.161 182.362 129.605C182.362 128.931 182.398 128.523 182.362 128.132C181.433 119.108 180.29 110.129 177.279 101.513C176.181 98.3627 174.959 95.2482 173.799 92.1248C173.621 92.462 173.4 92.7814 173.258 93.1364C172.984 93.8196 172.877 94.627 172.461 95.2038C169.822 98.8773 166.041 100.59 161.674 100.989C160.009 101.14 158.274 100.847 156.6 100.599C154.979 100.359 153.279 100.137 151.8 99.4984C148.116 97.9101 144.626 95.8781 141.615 93.2251C138.958 90.8825 136.089 88.9127 133.016 87.2357C131.811 86.579 130.51 85.7627 129.287 86.0644V91.3617C132.254 94.5294 131.333 98.9749 129.527 102.737C125.842 102.231 123.478 103.935 122.938 107.662C122.778 108.78 123 109.978 123.212 111.105C123.336 111.743 123.354 112.178 122.778 112.542C121.423 113.394 120.104 114.308 118.704 115.08C118.164 115.381 117.907 115.63 117.987 116.26C118.244 118.123 118.66 119.933 119.909 121.397C123.15 125.213 127.339 126.988 132.29 126.695C135.912 126.482 137.054 124.645 136.071 121.184C136.062 121.149 136.027 121.105 136.045 121.069C136.178 120.572 136.319 120.075 136.461 119.578C136.957 119.729 137.612 119.729 137.922 120.058C139.791 122.027 139.676 125.399 137.541 127.076C136.505 127.893 135.168 128.594 133.884 128.753C128.092 129.49 122.645 128.673 118.173 124.423C118.049 124.308 117.854 124.255 117.81 124.237C117.066 125.63 116.535 127.059 115.658 128.221C112.496 132.418 108.263 134.867 103.029 135.382C98.4503 135.834 94.6775 133.438 93.4819 129.49C93.0657 128.114 93.296 127.174 94.1639 127.032C95.4657 126.819 95.6251 127.848 95.882 128.744C96.5905 131.211 98.2908 132.675 100.85 132.764C106.403 132.959 110.619 130.519 113.559 125.887C114.135 124.973 114.515 123.784 114.56 122.711C114.639 120.874 114.391 119.019 114.285 117.174C114.25 116.473 113.816 116.34 113.205 116.162C111.717 115.727 110.264 115.133 108.812 114.574C108.033 114.272 107.82 113.802 108.024 112.888C108.971 108.656 105.199 102.196 99.6547 103.891C98.5477 102.16 98.1226 100.217 97.8835 98.2029C97.5026 98.0255 97.0598 97.9101 96.741 97.6439C94.8369 96.1089 92.8797 94.6182 90.5151 93.9527C89.5232 93.6687 88.2657 93.7841 87.2826 94.139C84.5372 95.1506 83.2088 97.5374 82.0132 100.031C81.0479 102.036 80.1357 104.13 78.7896 105.869C76.0796 109.374 72.1563 110.963 67.9053 111.628C65.7533 111.965 63.5481 112.036 61.3695 112.089C60.2359 112.125 59.0934 111.752 57.9598 111.77C50.6269 111.885 43.2409 110.927 35.9877 112.702C34.4024 113.092 32.764 113.58 31.3913 114.414C29.5315 115.559 27.902 117.085 26.1751 118.443C25.9891 122.4 25.812 126.366 25.6083 130.679C26.361 130.155 26.7507 129.871 27.1404 129.614C35.6689 123.962 44.8527 122.196 54.6299 125.497C62.3259 128.097 67.6308 133.279 69.3489 141.513C70.4028 146.597 69.3312 151.415 67.1348 156.038L67.0905 156.047Z" fill="white"/>
<path d="M67.0905 156.047C69.2869 151.424 70.3673 146.606 69.3046 141.522C67.5865 133.288 62.2905 128.114 54.5856 125.506C44.8173 122.205 35.6246 123.971 27.0961 129.623C26.6976 129.889 26.3168 130.164 25.564 130.688C25.7588 126.375 25.9448 122.418 26.1308 118.452C26.7596 113.829 27.1227 109.152 28.0703 104.592C30.6917 91.9207 35.4829 80.1194 42.8778 69.4538C51.548 56.9426 62.6536 47.3773 76.8678 41.7074C89.3727 36.7206 102.267 35.8688 115.374 38.7881C126.932 41.3613 137.125 46.7562 146.274 54.2186C153.022 59.7288 158.796 66.1264 163.703 73.3314C167.723 79.2321 171.159 85.4522 173.781 92.1159C174.941 95.2482 176.163 98.3538 177.261 101.504C180.281 110.12 181.424 119.099 182.345 128.123C182.389 128.523 182.345 128.922 182.345 129.596C181.751 129.153 181.3 128.807 180.839 128.469C165.314 116.916 145.149 124.663 138.852 140.572C137.019 145.213 137.931 150.138 140.978 154.379C141.208 154.699 141.403 155.036 141.615 155.364C141.952 155.648 142.315 155.905 142.625 156.216C145.282 158.851 148.576 159.561 152.154 159.348C152.685 159.313 153.199 159.011 153.863 158.789C155.697 160.368 157.84 161.646 160.452 161.921C163.065 162.196 165.491 161.797 167.581 159.978C168.122 160.253 168.644 160.546 169.184 160.803C173.861 162.951 179.086 161.353 181.778 156.961C182.132 156.384 182.442 155.772 182.77 155.178C182.867 154.787 183.036 154.406 183.044 154.015C183.106 152.258 183.23 150.502 183.115 148.753C183.062 147.848 182.327 147.227 181.309 147.387C180.361 147.538 180.016 148.257 179.998 149.153C179.98 149.996 180.051 150.848 179.98 151.691C179.652 155.79 176.367 158.691 172.452 158.39C169.645 158.168 166.855 155.701 165.996 152.613C165.474 150.741 165.536 148.869 166.085 147.005C166.306 146.251 166.289 145.488 165.421 145.178C164.553 144.876 164.057 145.488 163.747 146.189C162.95 147.999 162.666 149.889 162.932 151.859C163.251 154.131 164.128 156.171 165.562 157.99C159.142 160.981 152.747 155.87 153.35 149.925C153.429 149.162 153.5 148.372 153.358 147.635C153.279 147.21 152.809 146.597 152.464 146.562C152.03 146.509 151.472 146.89 151.091 147.227C150.861 147.431 150.808 147.884 150.746 148.23C150.268 151.14 150.339 153.971 152.101 156.722C151.676 156.633 151.49 156.589 151.295 156.553C151.056 156.518 150.817 156.473 150.578 156.455C146.575 156.242 143.9 154.033 142.226 150.59C140.287 146.597 139.8 142.569 142.767 138.753C143.9 137.289 144.954 135.754 146.194 134.388C154.66 125.009 168.582 123.367 178.59 130.661C185.037 135.364 188.305 142.001 189.394 149.792C189.633 151.495 189.731 153.217 189.89 154.938C191.697 155.932 192.768 155.329 192.786 153.297C192.839 145.808 190.687 139.091 185.905 133.261C185.63 132.924 185.409 132.4 185.418 131.974C185.604 124.441 184.709 117.014 183.151 109.658C183.053 109.188 182.965 108.718 182.858 108.176C184.089 107.662 185.285 107.103 186.516 106.659C191.024 105.009 195.461 103.181 199.34 100.315C200.836 99.2056 202.183 97.8303 203.378 96.3928C204.326 95.257 204.149 94.4762 203.13 93.3937C202.466 92.6927 201.775 91.9828 200.978 91.4682C192.99 86.2685 186.498 79.4983 180.405 72.2489C175.756 66.7298 170.69 61.6188 164.88 57.2709C161.081 54.4226 157.016 52.0713 152.623 50.3587C150.71 49.6134 148.558 49.498 146.557 48.939C145.432 48.6284 144.307 48.1316 143.324 47.5016C141.783 46.4989 140.437 45.1856 138.879 44.2273C134.061 41.2726 128.951 38.9301 123.584 37.1288C107.82 31.8226 92.1535 32.0445 76.5401 37.7588C68.7998 40.5893 61.8743 44.8219 55.427 49.9151C54.5945 50.5717 53.5229 50.9177 52.5753 51.4235C40.708 57.7235 29.3279 64.7776 19.1875 73.6597C14.3786 77.8745 9.74687 82.2933 5.15938 86.7477C3.50327 88.3626 2.15714 90.3147 0.766724 92.1958C-0.28717 93.6333 -0.25174 94.3254 0.855286 95.6563C6.4081 102.329 13.3336 106.854 21.8178 108.851C22.2783 108.957 22.7477 109.055 23.2791 109.161C23.0045 111.628 22.7123 114.024 22.4732 116.42C22.3138 118.026 22.2164 119.632 22.1012 121.238C21.7824 125.612 21.4813 129.987 21.1182 134.352C21.0739 134.902 20.7374 135.488 20.4008 135.949C16.6458 141.052 14.91 146.668 16.079 153.004C16.3093 154.264 16.2916 155.879 18.2133 156.003C18.4082 155.311 18.851 154.583 18.7447 153.935C17.8503 148.141 19.347 142.977 22.8009 138.354C27.1227 132.587 33.0032 129.366 40.0084 128.141C46.5088 127.005 52.6904 127.866 58.3053 131.513C65.7887 136.384 68.3216 145.462 64.5488 153.501C63.371 156.012 59.0226 157.724 56.3214 156.695C56.4809 156.331 56.6491 155.967 56.7908 155.604C57.8801 152.897 57.8359 150.173 56.8617 147.458C56.6049 146.757 56.0823 146.029 55.2676 146.384C54.8513 146.562 54.5237 147.36 54.4705 147.911C54.3465 149.108 54.4971 150.333 54.3908 151.531C53.9126 156.961 48.3686 159.978 43.8785 157.316C43.0815 156.846 42.9752 156.473 43.4269 155.612C45.0298 152.587 45.2424 149.454 43.6571 146.34C43.3206 145.683 42.7892 145.071 42.2136 144.61C41.9213 144.37 41.2482 144.335 40.9028 144.512C40.6372 144.645 40.5043 145.266 40.522 145.657C40.5486 146.207 40.832 146.739 40.9206 147.289C41.0977 148.478 41.3723 149.676 41.3368 150.865C41.2483 153.864 38.9988 156.544 36.2268 157.174C33.3131 157.831 30.1869 156.455 28.8762 153.616C28.2828 152.321 28.0703 150.768 28.0083 149.321C27.9463 147.733 27.6009 146.828 26.5027 146.739C25.4134 146.651 24.7049 147.458 24.5278 149.011C24.4835 149.366 24.4747 149.738 24.4658 150.093C24.395 152.383 25.1743 154.432 26.2459 156.393C26.8216 157.006 27.3529 157.662 27.9729 158.239C31.1965 161.229 35.8371 161.726 39.7073 159.517C40.1944 159.242 40.5398 158.94 41.1685 159.455C44.4099 162.152 49.2542 162.374 53.0181 160.138C53.4698 159.872 54.1606 159.685 54.6388 159.818C59.6248 161.256 63.7075 159.863 67.0728 156.03L67.0905 156.047ZM191.316 102.001C189.235 102.897 187.162 103.82 185.064 104.663C184.656 104.822 184.116 104.663 183.638 104.645H182.168C180.556 99.8977 178.962 95.2304 177.314 90.3768C185.843 89.4185 193.769 91.1133 201.35 94.9554C200.216 97.1382 194.867 100.838 191.325 102.001H191.316ZM45.756 58.664L46.0483 58.9036C45.942 59.1166 45.8623 59.3561 45.7206 59.5425C43.1523 62.9853 40.4246 66.3305 38.0246 69.8975C34.1544 75.6651 31.1522 81.9029 28.7788 88.4336C28.46 89.312 28.1057 89.667 27.0607 89.5339C25.3957 89.3209 23.6865 89.2233 22.0215 89.3741C16.0082 89.942 10.2694 91.5569 4.82283 94.2011C4.58371 94.3165 4.23833 94.2189 3.94608 94.2189C3.99922 93.9083 3.94606 93.5179 4.12318 93.2872C4.84053 92.3111 5.55789 91.3351 6.37267 90.4566C15.4768 80.6518 25.7234 72.1956 36.7139 64.6268C39.6896 62.586 42.7272 60.6516 45.7472 58.664H45.756ZM151.942 53.3756C154.457 53.6063 156.839 54.9195 159.168 56.3747C165.917 60.5895 171.62 65.9933 176.916 71.8851C181.078 76.5169 185.312 81.0954 189.58 85.6296C190.687 86.8098 192.042 87.7592 193.495 89.0103C192.866 88.8506 192.52 88.7708 192.175 88.6732C187.233 87.3865 182.221 86.8098 177.12 87.3156C176.234 87.4043 175.871 87.2623 175.499 86.446C170.779 76.1531 164.606 66.8362 156.804 58.6197C155.121 56.845 153.482 55.026 151.942 53.3579V53.3756ZM23.7219 106.18C16.9735 104.698 11.1196 101.663 6.10699 96.446C13.1034 93.6687 19.8872 91.415 27.3087 92.0006C26.0954 96.8099 24.9263 101.397 23.7219 106.18Z" fill="#090707"/>
<path d="M89.9129 19.3026C98.0694 19.0719 104.056 18.9743 110.043 18.7081C114.037 18.5306 118.031 18.1757 122.008 17.7586C125.541 17.386 129.075 16.9512 132.555 16.3034C136.133 15.6379 139.747 14.9724 142.97 13.1002C144.963 11.9467 146.353 10.4471 146.158 7.96264C145.981 5.71772 144.511 4.35125 142.669 3.48167C140.101 2.28379 137.347 1.66267 134.513 1.40535C130.129 1.00606 125.754 0.50028 121.37 0.10986C119.856 -0.0232379 118.315 0.0211361 116.783 0.0211361C111.513 0.0211361 106.244 -0.0409773 100.974 0.0477546C96.9624 0.11874 92.9506 0.313947 88.9387 0.571269C85.5468 0.793099 82.146 1.07703 78.7807 1.54731C75.7962 1.96435 72.8293 2.59435 69.8979 3.29533C66.8337 4.03181 63.7872 4.88364 60.7938 5.85081C59.306 6.32997 57.8801 7.09306 56.5517 7.93602C55.0019 8.91207 54.7893 11.9112 56.0203 13.3664C57.4462 15.0612 59.4034 15.8331 61.4403 16.3567C65.9747 17.5279 70.5799 18.2023 75.2737 18.4064C80.8796 18.6459 86.4767 19.0807 89.9129 19.3026ZM130.713 8.70798L130.66 9.14277C109.591 12.6743 88.4162 12.8074 67.1702 10.9706C67.2765 10.7311 67.3917 10.6512 67.5245 10.6246C70.9696 9.98572 74.3969 9.24037 77.8685 8.76122C81.349 8.28206 84.8649 8.03362 88.3719 7.78517C91.7373 7.5456 95.1026 7.35926 98.4768 7.29715C108.679 7.12856 118.881 7.00433 129.039 8.19333C129.606 8.26432 130.155 8.52164 130.713 8.69023V8.70798Z" fill="#FDE846"/>
<path d="M189.908 154.92C189.748 153.208 189.651 151.478 189.412 149.774C188.323 141.983 185.055 135.346 178.607 130.643C168.6 123.341 154.678 124.991 146.212 134.37C144.972 135.737 143.927 137.28 142.784 138.736C139.817 142.551 140.304 146.58 142.244 150.572C143.918 154.015 146.592 156.225 150.595 156.438C150.834 156.447 151.074 156.491 151.313 156.535C151.508 156.571 151.694 156.615 152.119 156.704C150.356 153.953 150.285 151.123 150.764 148.212C150.826 147.857 150.879 147.405 151.109 147.21C151.499 146.881 152.048 146.5 152.482 146.544C152.836 146.588 153.305 147.201 153.376 147.618C153.509 148.354 153.447 149.144 153.367 149.907C152.765 155.852 159.168 160.963 165.58 157.973C164.145 156.163 163.269 154.122 162.95 151.841C162.675 149.872 162.967 147.982 163.764 146.171C164.074 145.47 164.57 144.858 165.438 145.16C166.306 145.462 166.315 146.234 166.103 146.988C165.553 148.851 165.491 150.723 166.014 152.596C166.873 155.683 169.663 158.15 172.47 158.372C176.385 158.683 179.67 155.772 179.998 151.673C180.069 150.83 179.998 149.978 180.016 149.135C180.033 148.239 180.379 147.52 181.326 147.369C182.345 147.21 183.071 147.831 183.133 148.736C183.239 150.484 183.124 152.241 183.062 153.998C183.044 154.388 182.885 154.778 182.788 155.16C184.957 155.16 187.118 155.187 189.288 155.169C189.501 155.169 189.704 155 189.917 154.911L189.908 154.92Z" fill="white"/>
<path d="M26.2813 156.402C25.2097 154.441 24.4304 152.391 24.5012 150.102C24.5101 149.738 24.519 149.375 24.5632 149.02C24.7404 147.467 25.4489 146.659 26.5382 146.748C27.6363 146.837 27.9817 147.742 28.0437 149.33C28.1057 150.777 28.3094 152.329 28.9116 153.625C30.2223 156.455 33.3397 157.84 36.2622 157.183C39.0342 156.553 41.2837 153.882 41.3723 150.874C41.4077 149.685 41.1331 148.487 40.956 147.298C40.8763 146.748 40.5929 146.216 40.5575 145.666C40.5398 145.275 40.6726 144.654 40.9383 144.521C41.2837 144.344 41.9568 144.379 42.249 144.619C42.8247 145.089 43.356 145.692 43.6926 146.349C45.2778 149.463 45.0653 152.596 43.4623 155.621C43.0106 156.473 43.1258 156.855 43.914 157.325C48.4041 159.987 53.948 156.97 54.4262 151.54C54.5325 150.342 54.382 149.117 54.5059 147.919C54.5679 147.369 54.8867 146.571 55.303 146.393C56.1178 146.038 56.6491 146.766 56.8971 147.467C57.8713 150.182 57.9156 152.906 56.8262 155.612C56.6757 155.976 56.5163 156.34 56.3569 156.704C59.058 157.742 63.4064 156.029 64.5843 153.509C68.3658 145.462 65.8241 136.384 58.3407 131.522C52.7258 127.875 46.5531 127.014 40.0438 128.15C33.0297 129.374 27.1492 132.595 22.8363 138.363C19.3824 142.986 17.8857 148.141 18.7802 153.944C18.8776 154.592 18.4348 155.32 18.2488 156.012C18.5764 156.163 18.8953 156.447 19.223 156.447C21.5787 156.473 23.9344 156.438 26.2902 156.42L26.2813 156.402Z" fill="white"/>
<path d="M173.781 92.1159C171.159 85.4522 167.723 79.241 163.703 73.3314C158.796 66.1353 153.031 59.7288 146.274 54.2186C137.125 46.7562 126.932 41.3613 115.374 38.7881C102.258 35.8688 89.3727 36.7206 76.8678 41.7074C62.6536 47.3773 51.548 56.9426 42.8778 69.4538C35.4829 80.1194 30.6917 91.9296 28.0703 104.592C27.1315 109.152 26.7596 113.829 26.1308 118.452C27.8577 117.094 29.4873 115.568 31.3471 114.423C32.7198 113.58 34.3582 113.092 35.9434 112.711C43.1966 110.936 50.5827 111.885 57.9156 111.779C59.0492 111.761 60.1916 112.134 61.3252 112.098C63.5127 112.036 65.709 111.974 67.861 111.637C72.1208 110.963 76.0353 109.383 78.7453 105.878C80.0914 104.139 81.0036 102.045 81.9689 100.04C83.1734 97.5375 84.4929 95.1506 87.2383 94.1479C88.2214 93.7841 89.4789 93.6776 90.4708 93.9616C92.8354 94.6271 94.7926 96.1178 96.6967 97.6528C97.0155 97.9101 97.4584 98.0255 97.8392 98.2118C98.158 94.1745 100.434 91.5569 103.976 89.9775C108.44 87.9899 113.151 87.0405 118.04 87.351C122.141 87.6084 126.046 88.5667 129.261 91.3706V86.0733C130.492 85.7716 131.794 86.5879 132.989 87.2446C136.062 88.9216 138.932 90.8914 141.589 93.234C144.6 95.887 148.089 97.9101 151.773 99.5073C153.261 100.146 154.953 100.368 156.573 100.608C158.247 100.856 159.983 101.158 161.648 100.998C166.014 100.599 169.787 98.8862 172.435 95.2127C172.851 94.6359 172.948 93.8285 173.232 93.1452C173.373 92.7903 173.586 92.4709 173.772 92.1337L173.781 92.1159ZM85.6708 76.1087L85.7771 76.4281C84.6169 76.8895 83.4833 77.5994 82.2789 77.768C79.8877 78.1052 77.4346 78.398 75.0345 78.2383C73.0773 78.1052 71.0581 77.5195 69.2603 76.7121C68.0647 76.1708 66.8426 75.1682 66.9754 73.3935C67.1171 71.4325 68.6493 70.6517 69.9334 69.649C70.6685 69.0812 71.3681 69.1788 72.2271 69.5958C76.6818 71.8052 81.1807 73.9348 85.6619 76.091L85.6708 76.1087ZM126.71 71.5213C125.789 71.5213 124.859 71.5568 123.938 71.5035C123.637 71.4858 123.354 71.2373 123.062 71.1042C123.248 70.8292 123.38 70.4565 123.637 70.2879C124.983 69.4183 126.365 68.5931 127.738 67.759C130.527 66.0643 133.299 64.3517 136.107 62.7013C136.824 62.2754 137.789 61.5744 138.383 61.7696C140.65 62.5327 141.057 65.2834 139.702 66.6676C138.418 67.972 137.081 69.0634 135.318 69.7555C132.529 70.8558 129.739 71.681 126.719 71.5302L126.71 71.5213ZM63.8403 84.1123L63.8049 83.7397C64.7702 83.3759 65.709 82.9233 66.7009 82.6571C70.6153 81.5924 74.5917 81.823 78.5504 82.3111C81.5261 82.6749 84.4398 83.6243 87.504 82.9056C87.9026 82.808 88.7262 83.4113 88.9033 83.8639C89.0539 84.2454 88.6996 85.0174 88.3277 85.3723C87.9291 85.7539 87.2738 85.9224 86.6981 86.0733C84.4132 86.6855 82.1461 86.2774 79.8966 85.8248C74.9283 84.831 69.9865 83.7219 64.8588 84.2632C64.5223 84.2987 64.1769 84.1744 63.8315 84.1301L63.8403 84.1123ZM142.687 73.7218C136.248 75.0084 130.483 77.6615 125.524 81.9828C124.665 82.7281 123.593 82.666 123.07 81.9473C122.574 81.264 122.831 80.2081 123.814 79.5693C126.896 77.555 129.881 75.3367 133.459 74.2098C136.487 73.2515 139.552 72.7724 142.696 73.7307L142.687 73.7218Z" fill="#FAA329"/>
<path d="M129.279 91.3528C126.055 88.5489 122.158 87.5906 118.058 87.3333C113.169 87.0227 108.467 87.9633 103.994 89.9597C100.452 91.5392 98.1757 94.1656 97.8569 98.1941C98.096 100.199 98.5211 102.152 99.6281 103.882C105.163 102.178 108.945 108.647 107.997 112.879C107.793 113.793 107.997 114.272 108.785 114.565C110.238 115.124 111.69 115.719 113.178 116.153C113.789 116.331 114.223 116.473 114.259 117.165C114.365 119.011 114.613 120.865 114.533 122.702C114.48 123.784 114.108 124.964 113.532 125.878C110.592 130.519 106.377 132.95 100.824 132.755C98.2731 132.666 96.5639 131.202 95.8554 128.736C95.5986 127.831 95.4391 126.801 94.1373 127.023C93.2694 127.165 93.0391 128.106 93.4554 129.481C94.6598 133.429 98.4325 135.825 103.002 135.373C108.236 134.849 112.478 132.409 115.631 128.212C116.508 127.05 117.048 125.621 117.783 124.228C117.828 124.246 118.022 124.299 118.146 124.414C122.61 128.656 128.056 129.481 133.857 128.744C135.132 128.585 136.479 127.875 137.515 127.067C139.649 125.39 139.764 122.019 137.896 120.049C137.586 119.72 136.93 119.72 136.434 119.57C136.293 120.066 136.16 120.563 136.018 121.06C136.009 121.096 136.036 121.14 136.045 121.176C137.037 124.636 135.885 126.473 132.263 126.686C127.312 126.979 123.124 125.204 119.882 121.389C118.642 119.925 118.217 118.114 117.96 116.251C117.872 115.621 118.129 115.373 118.678 115.071C120.077 114.299 121.397 113.385 122.752 112.533C123.327 112.169 123.31 111.735 123.186 111.096C122.973 109.969 122.752 108.771 122.911 107.653C123.442 103.926 125.816 102.223 129.5 102.728C131.307 98.9572 132.228 94.5206 129.261 91.3528H129.279Z" fill="#030303"/>
<path d="M45.756 58.6551C42.7449 60.6427 39.6984 62.5771 36.7228 64.6179C25.7234 72.1779 15.4768 80.6429 6.38153 90.4478C5.56676 91.3262 4.84055 92.3112 4.13205 93.2783C3.96379 93.509 4.00809 93.8906 3.95494 94.21C4.24719 94.21 4.59258 94.3076 4.8317 94.1923C10.2782 91.5481 16.017 89.9243 22.0304 89.3653C23.6953 89.2055 25.4046 89.312 27.0695 89.525C28.1145 89.6581 28.4688 89.3031 28.7876 88.4247C31.1699 81.894 34.1633 75.6562 38.0335 69.8886C40.4246 66.3216 43.1523 62.9853 45.7295 59.5336C45.8712 59.3473 45.9509 59.1077 46.0571 58.8947L45.7649 58.6551H45.756Z" fill="#FAA329"/>
<path d="M151.942 53.3667C153.482 55.0349 155.112 56.8539 156.804 58.6285C164.606 66.8451 170.779 76.162 175.499 86.4548C175.871 87.2712 176.234 87.4131 177.12 87.3244C182.212 86.8098 187.224 87.3865 192.175 88.682C192.52 88.7707 192.866 88.8595 193.495 89.0192C192.033 87.7769 190.687 86.8186 189.58 85.6385C185.312 81.0954 181.078 76.5257 176.916 71.8939C171.62 66.0022 165.917 60.5984 159.168 56.3836C156.848 54.9284 154.457 53.6152 151.942 53.3845V53.3667Z" fill="#FAA329"/>
<path d="M191.325 102.001C194.867 100.838 200.216 97.1382 201.35 94.9554C193.769 91.1133 185.843 89.4185 177.314 90.3768C178.962 95.2215 180.556 99.8889 182.168 104.645H183.638C183.833 104.379 183.965 103.962 184.213 103.882C186.401 103.136 188.606 102.444 190.811 101.761C190.944 101.717 191.148 101.921 191.316 102.01L191.325 102.001Z" fill="white"/>
<path d="M23.7308 106.171C24.944 101.397 26.1042 96.801 27.3175 91.9917C19.896 91.4061 13.1033 93.6599 6.11583 96.4372C11.1373 101.655 16.9824 104.68 23.7308 106.171Z" fill="white"/>
<path d="M85.6797 76.1087C81.1984 73.9525 76.6995 71.823 72.2448 69.6135C71.3947 69.1876 70.6862 69.09 69.9511 69.6668C68.667 70.6694 67.1348 71.4503 66.9931 73.4113C66.8603 75.1859 68.0824 76.1886 69.278 76.7298C71.0758 77.5373 73.095 78.1318 75.0523 78.256C77.4523 78.4157 79.8966 78.1229 82.2966 77.7857C83.501 77.6171 84.6346 76.9073 85.7948 76.4459L85.6885 76.1265L85.6797 76.1087Z" fill="white"/>
<path d="M126.71 71.5213C129.73 71.6721 132.52 70.8469 135.31 69.7466C137.072 69.0545 138.409 67.9631 139.693 66.6588C141.057 65.2746 140.641 62.5239 138.374 61.7608C137.78 61.5567 136.815 62.2665 136.098 62.6925C133.29 64.3517 130.518 66.0554 127.729 67.7502C126.356 68.5842 124.983 69.4095 123.628 70.279C123.372 70.4476 123.239 70.8114 123.053 71.0954C123.345 71.2373 123.628 71.4769 123.929 71.4947C124.85 71.5479 125.78 71.5124 126.701 71.5124L126.71 71.5213Z" fill="white"/>
<path d="M63.8403 84.1123C64.1857 84.1656 64.5311 84.2809 64.8677 84.2454C69.9954 83.7041 74.946 84.8133 79.9054 85.8071C82.1549 86.2596 84.4221 86.6678 86.707 86.0555C87.2826 85.9047 87.938 85.7361 88.3365 85.3545C88.7085 84.9996 89.0716 84.2188 88.9122 83.8461C88.7262 83.3936 87.9114 82.7991 87.5129 82.8878C84.4486 83.6065 81.535 82.6571 78.5593 82.2933C74.6006 81.8053 70.6242 81.5834 66.7097 82.6394C65.7178 82.9055 64.7791 83.3581 63.8138 83.7219L63.8492 84.0946L63.8403 84.1123Z" fill="#090707"/>
<path d="M142.687 73.7218C139.534 72.7635 136.479 73.2427 133.45 74.201C129.872 75.3279 126.887 77.5462 123.805 79.5604C122.822 80.2081 122.574 81.2552 123.062 81.9384C123.584 82.666 124.656 82.7281 125.515 81.9739C130.483 77.6526 136.24 74.9996 142.678 73.7129L142.687 73.7218Z" fill="#090707"/>
</svg>
