<svg width="43" height="46" viewBox="0 0 43 46" fill="none" xmlns="http://www.w3.org/2000/svg">
<path d="M15.2764 4.69483C14.986 6.21997 15.294 7.60808 16.0147 8.93999C17.6887 8.63437 19.3667 8.42142 21.0653 8.41649C22.7648 8.41156 24.4457 8.61761 26.1364 8.92224C26.8473 7.60808 27.1543 6.22688 26.8688 4.70864C26.9284 4.7392 26.9676 4.74906 26.992 4.7737C27.1827 4.96496 27.39 5.14439 27.5553 5.35537C28.2378 6.22786 28.6407 7.22655 28.8225 8.31889C28.89 8.72211 28.9164 9.12927 28.9037 9.53841C28.8978 9.72277 28.8959 9.72277 29.0885 9.81051C29.1374 9.77995 29.1922 9.74643 29.2459 9.71192C31.0628 8.55747 33.0371 7.83187 35.161 7.52231C35.8181 7.42668 36.4801 7.39907 37.1431 7.47794C37.5058 7.52132 37.8588 7.59921 38.1943 7.75202C38.4671 7.87624 38.6597 8.06552 38.7829 8.34945C39.3862 9.73854 39.7481 11.1868 39.8781 12.6952C39.9612 13.6574 39.9798 14.6206 39.9065 15.5828C39.8116 16.8407 39.5691 18.0662 39.0684 19.2285C38.912 19.5903 38.7184 19.9374 38.5297 20.2834C38.472 20.3889 38.4612 20.4638 38.5169 20.5742C39.4117 22.3468 40.1871 24.1717 40.8432 26.0468C41.1317 26.871 41.3918 27.707 41.65 28.542C41.7918 28.9985 41.9032 29.4638 42.0284 29.9252C42.1614 30.4181 42.2308 30.92 42.2416 31.4306C42.2572 32.1661 42.2191 32.8986 42.0636 33.6173C41.8651 34.5361 41.4524 35.3554 40.808 36.0386C39.9221 36.9791 38.9579 37.8348 37.9586 38.6502C36.0039 40.2443 33.9602 41.7162 31.7502 42.9278C29.3809 44.2272 26.8913 45.2279 24.2208 45.7169C21.959 46.1309 19.7061 46.0885 17.459 45.6035C15.4231 45.1648 13.4957 44.4234 11.6241 43.5125C9.8904 42.6686 8.28184 41.6206 6.71533 40.5046C4.93564 39.2367 3.24983 37.8546 1.69309 36.3127C1.12496 35.7497 0.713288 35.0971 0.404288 34.3656C0.210674 33.9081 0.132445 33.425 0.0747515 32.938C-0.00249863 32.2844 -0.0240105 31.6298 0.0297712 30.9732C0.0669295 30.5108 0.178404 30.0642 0.296724 29.6186C0.967528 27.0829 1.85248 24.6242 2.93789 22.2394C3.19702 21.6705 3.4718 21.1086 3.74462 20.5456C3.78471 20.4628 3.7896 20.4017 3.73875 20.3189C3.11782 19.3173 2.75504 18.217 2.53502 17.0645C2.32674 15.9732 2.27296 14.872 2.30816 13.7629C2.34141 12.6962 2.45777 11.6403 2.70908 10.6022C2.90269 9.80164 3.16769 9.02675 3.50114 8.27354C3.59208 8.06749 3.73386 7.92257 3.92454 7.81807C4.29711 7.61399 4.70193 7.52428 5.1185 7.47597C6.0015 7.37443 6.87667 7.45823 7.74304 7.6278C9.51491 7.97285 11.1812 8.60184 12.7311 9.5394C12.8464 9.60939 12.9579 9.68728 13.0743 9.7553C13.1114 9.77699 13.1584 9.78192 13.2004 9.79474C13.2141 9.74742 13.2386 9.70009 13.2405 9.65179C13.2522 9.34518 13.2405 9.03562 13.2708 8.73098C13.4009 7.44738 13.8419 6.28603 14.6486 5.27748C14.7943 5.0951 14.9772 4.94229 15.1444 4.77765C15.1718 4.75103 15.2099 4.73525 15.2764 4.69385V4.69483ZM7.46534 31.3074C6.84049 31.3596 6.21369 31.3961 5.5908 31.4681C4.63935 31.5785 3.70551 31.7786 2.79904 32.0971C2.70517 32.1296 2.60836 32.1651 2.52817 32.2213C2.21526 32.4382 1.95418 32.7083 1.76643 33.0445C1.59824 33.3462 1.52588 33.6705 1.55033 34.0166C1.56988 34.2877 1.63344 34.5391 1.82608 34.7461C1.93755 34.8664 2.03143 35.0044 2.13704 35.1316C3.00048 36.1756 3.98224 37.0984 5.02854 37.9512C7.18567 39.709 9.52371 41.1828 12.0026 42.431C13.7627 43.3173 15.5746 44.0754 17.4736 44.6087C18.5326 44.9055 19.6073 45.1184 20.7064 45.1825C21.5073 45.2298 22.2993 45.1382 23.0855 44.9972C24.3362 44.7734 25.5487 44.4116 26.7387 43.9669C29.4787 42.9436 32.0485 41.5841 34.4853 39.9643C35.9569 38.9863 37.3592 37.9186 38.6431 36.6962C39.309 36.0622 39.9338 35.3889 40.4883 34.6515C40.547 34.5726 40.6046 34.4839 40.6291 34.3902C40.7621 33.9002 40.7112 33.43 40.4492 32.9893C40.2898 32.7221 40.0844 32.4954 39.838 32.31C39.7265 32.2262 39.6014 32.1533 39.4723 32.106C39.2073 32.0103 38.9384 31.9275 38.6665 31.8546C37.6779 31.5874 36.6708 31.4336 35.6499 31.3636C34.7102 31.2995 33.7734 31.3251 32.8454 31.5006C32.2978 31.6041 31.7551 31.7284 31.2075 31.8329C30.57 31.9551 29.9295 31.9945 29.286 31.8624C28.2642 31.6525 27.3167 31.2522 26.4131 30.7366C26.3368 30.6932 26.2684 30.636 26.198 30.5828C25.8577 30.3235 25.58 30.0061 25.3297 29.66C24.8691 29.0241 24.2883 28.5253 23.592 28.1654C22.6875 27.6981 21.7243 27.5019 20.7142 27.5877C18.7751 27.7533 17.2497 28.6436 16.177 30.291C16 30.5631 15.78 30.7701 15.5013 30.92C14.7787 31.3064 14.0238 31.612 13.2268 31.8043C12.7623 31.9167 12.294 31.9679 11.8138 31.9344C11.2613 31.896 10.7226 31.7786 10.1857 31.6574C9.29 31.4553 8.38647 31.3261 7.46534 31.3064V31.3074ZM4.47312 19.1536C4.5093 19.0984 4.53277 19.0659 4.5533 19.0313C4.75963 18.6804 4.96106 18.3265 5.1713 17.9784C6.11493 16.4218 7.15438 14.9351 8.36691 13.5765C9.03576 12.8283 9.74959 12.1283 10.5671 11.5437C10.5896 11.5279 10.6091 11.5062 10.6424 11.4756C10.5808 11.4392 10.5338 11.4066 10.483 11.382C10.2776 11.2804 10.0742 11.175 9.86596 11.0813C9.04261 10.7106 8.18894 10.4316 7.29226 10.3251C6.23129 10.1989 5.18499 10.3074 4.16314 10.6258C3.81796 10.7333 3.88739 10.6593 3.76222 11.0231C3.47865 11.8463 3.37793 12.7021 3.34957 13.5686C3.31926 14.4993 3.39357 15.4241 3.55883 16.3399C3.72213 17.245 3.97344 18.1234 4.36849 18.9554C4.39782 19.0175 4.43205 19.0777 4.47312 19.1546V19.1536ZM31.6055 11.4756C31.6505 11.5131 31.6857 11.5417 31.7209 11.5713C32.1003 11.8877 32.4905 12.1904 32.8552 12.5226C33.4605 13.0737 34.0022 13.6889 34.5214 14.3228C35.7076 15.7721 36.7294 17.3347 37.6564 18.9614C37.6907 19.0215 37.7268 19.0797 37.7738 19.1575C37.8139 19.0816 37.8461 19.0333 37.8676 18.9791C38.0192 18.6015 38.1923 18.2308 38.3145 17.8434C38.8435 16.1782 39.0068 14.4697 38.8435 12.7307C38.7849 12.1056 38.6607 11.4924 38.4475 10.8999C38.4016 10.7727 38.3331 10.6998 38.2021 10.6564C37.5176 10.4306 36.8135 10.3163 36.0958 10.2847C35.6734 10.266 35.2519 10.2709 34.8334 10.338C33.7401 10.5115 32.7124 10.8792 31.7346 11.3958C31.6945 11.4165 31.6573 11.4431 31.6065 11.4737L31.6055 11.4756ZM15.1375 22.5144C13.9631 22.5036 13.2659 23.4648 13.2601 24.3403C13.2532 25.3823 14.0609 26.2272 15.0877 26.241C16.1076 26.2548 16.9554 25.4139 16.9593 24.3836C16.9632 23.3642 16.1437 22.5233 15.1375 22.5154V22.5144ZM25.2906 24.3688C25.2866 25.3951 26.111 26.2351 27.1279 26.24C28.1429 26.245 28.979 25.4139 28.9888 24.3886C28.9976 23.4441 28.271 22.5203 27.1416 22.5134C26.1247 22.5075 25.2954 23.3386 25.2915 24.3679L25.2906 24.3688ZM24.344 20.3209C24.7635 20.3071 25.0969 20.2469 25.4274 20.1621C26.022 20.0103 26.5735 19.7491 27.125 19.4858C27.5963 19.2611 27.965 18.9091 28.2984 18.5157C28.362 18.4408 28.4089 18.3481 28.4461 18.2565C28.5057 18.1056 28.4637 18.007 28.3141 17.942C28.2349 17.9075 28.1459 17.8759 28.0618 17.8749C27.8281 17.872 27.5905 17.8591 27.3616 17.8956C26.3496 18.0583 25.4274 18.4546 24.5904 19.0471C24.3812 19.195 24.1944 19.3784 24.0115 19.5617C23.9225 19.6505 23.8541 19.7688 23.8003 19.8851C23.7182 20.0645 23.769 20.1858 23.9558 20.244C24.1054 20.2903 24.2638 20.3061 24.344 20.3209ZM14.5059 17.8315C14.323 17.8641 14.1343 17.8799 13.9573 17.9341C13.7793 17.9883 13.7363 18.1096 13.8096 18.2841C13.8438 18.3649 13.8878 18.4448 13.9436 18.5118C14.2252 18.8559 14.5391 19.1723 14.9302 19.3823C15.4984 19.6879 16.0851 19.96 16.7099 20.1326C17.0786 20.2351 17.4511 20.3179 17.8344 20.313C17.9899 20.311 18.1503 20.2854 18.2999 20.24C18.4769 20.1868 18.5229 20.0655 18.4495 19.892C18.4084 19.7954 18.3566 19.6968 18.2862 19.6219C18.1298 19.4553 17.9694 19.2887 17.7904 19.1467C17.323 18.774 16.796 18.501 16.2445 18.2791C15.6871 18.0553 15.1151 17.8848 14.5059 17.8315Z" fill="black"/>
<path d="M20.8761 4.35843C19.2323 4.33203 17.5925 4.27042 15.9565 4.11983C14.6012 3.99467 13.2508 3.82941 11.9297 3.48912C11.522 3.38449 11.1201 3.24857 10.728 3.09701C10.5021 3.009 10.2821 2.88188 10.0894 2.73325C9.6445 2.39295 9.65135 1.95683 10.0855 1.6009C10.3006 1.42488 10.55 1.30559 10.8052 1.20096C11.3499 0.978984 11.918 0.834262 12.492 0.712031C13.7554 0.443123 15.0344 0.282755 16.3213 0.178125C18.1694 0.0275361 20.0214 -0.0213554 21.8754 0.0079801C23.7646 0.0382934 25.649 0.148789 27.5225 0.401074C28.0339 0.470502 28.5454 0.544819 29.0489 0.654339C29.6669 0.789282 30.2869 0.926179 30.8756 1.16477C31.0926 1.25278 31.3048 1.35448 31.5082 1.46889C31.6285 1.53636 31.741 1.63023 31.8358 1.73095C32.093 2.00279 32.0949 2.32646 31.8358 2.59341C31.7195 2.71369 31.5806 2.82125 31.4339 2.90144C31.2139 3.02171 30.9831 3.12732 30.7475 3.21435C30.0248 3.48326 29.2729 3.63971 28.515 3.77172C27.0923 4.01912 25.6578 4.16384 24.2154 4.23424C23.1026 4.28802 21.9889 4.31736 20.8761 4.35745V4.35843ZM29.1888 2.13676L29.1956 2.09569C29.1086 2.06831 29.0235 2.03115 28.9345 2.0155C28.5248 1.94217 28.1161 1.85905 27.7044 1.80918C26.4635 1.65859 25.2158 1.59796 23.9671 1.56667C21.3337 1.50115 18.7023 1.51387 16.0748 1.73291C15.3268 1.79549 14.5797 1.86589 13.8346 1.9539C13.4571 1.99888 13.0856 2.08884 12.712 2.16316C12.6367 2.17783 12.5663 2.21596 12.494 2.24334L12.4969 2.28246C12.5771 2.31081 12.6563 2.34993 12.7394 2.3646C13.1364 2.43891 13.5334 2.52301 13.9334 2.57288C15.1332 2.72347 16.3398 2.78018 17.5475 2.81343C20.4801 2.89557 23.4107 2.85646 26.3364 2.61004C27.061 2.54941 27.7836 2.46825 28.4984 2.32842C28.7331 2.28246 28.9697 2.23748 29.1888 2.13676Z" fill="black"/>
<path d="M21.4945 33.4154C21.4828 33.6716 21.4623 33.9219 21.4603 34.1722C21.4583 34.5644 21.4359 34.9614 21.5415 35.3447C21.608 35.5862 21.7057 35.8199 21.7947 36.0556C21.8446 36.1866 21.9434 36.2736 22.0685 36.3401C22.5838 36.6139 23.1363 36.7635 23.7133 36.8212C25.1067 36.9581 26.4209 36.6941 27.652 36.0243C27.6726 36.0135 27.6941 36.0037 27.7342 35.9852C27.7146 36.0742 27.6501 36.1054 27.6002 36.1455C26.947 36.6706 26.2156 37.0461 25.4098 37.273C24.7801 37.451 24.1357 37.539 23.4805 37.5214C22.6308 37.4979 21.8514 37.2632 21.1855 36.7117C21.1718 36.701 21.1562 36.6922 21.1337 36.6775C21.1073 36.6931 21.075 36.7058 21.0496 36.7264C20.4218 37.2417 19.6894 37.4881 18.8905 37.5145C17.3484 37.5654 15.9482 37.1449 14.718 36.1964C14.6672 36.1573 14.6183 36.1152 14.5694 36.0722C14.5577 36.0614 14.5508 36.0438 14.5234 35.9979C14.5968 36.0311 14.6427 36.0487 14.6858 36.0712C15.9853 36.7459 17.3592 36.9943 18.8103 36.785C19.2953 36.7146 19.7579 36.5699 20.192 36.3362C20.3113 36.2727 20.3954 36.1856 20.4551 36.0654C20.6311 35.7094 20.7435 35.3369 20.7758 34.9389C20.8169 34.4353 20.7914 33.9327 20.7523 33.4154C20.6634 33.4007 20.5783 33.387 20.4932 33.3743C19.0372 33.1514 17.811 31.9877 17.5108 30.5473C17.4912 30.4545 17.5108 30.3968 17.5743 30.3293C18.3771 29.4825 19.3569 28.9535 20.4844 28.6777C20.9411 28.5662 21.3889 28.5789 21.8407 28.6943C22.5819 28.884 23.2742 29.1842 23.8903 29.636C24.1768 29.8462 24.4242 30.1103 24.6931 30.3459C24.7576 30.4026 24.7625 30.4642 24.742 30.5356C24.6921 30.7106 24.6549 30.8906 24.5865 31.0578C24.0575 32.3573 23.0982 33.1299 21.7175 33.3792C21.649 33.3919 21.5806 33.4017 21.4945 33.4154Z" fill="black"/>
</svg>
