<svg width="193" height="146" viewBox="0 0 193 146" fill="none" xmlns="http://www.w3.org/2000/svg">
<path d="M57.4123 58.8512V45.3995L82.5563 50.4438L89.6805 58.8512L79.2038 65.9974L57.4123 58.8512Z" fill="white"/>
<path d="M104.767 68.5196L106.862 52.5457V50.4438H119.434L134.94 52.5457L138.292 65.9974L126.978 76.0861L104.767 68.5196Z" fill="white"/>
<path d="M0.838135 82.3916L13.4102 77.3472L25.1441 76.0861L31.011 77.3472C36.3192 76.9269 47.7737 76.0861 51.1263 76.0861C54.4788 76.0861 64.5364 71.0417 69.1462 68.5196C71.3812 69.7807 76.1865 72.3028 77.5275 72.3028C78.8685 72.3028 100.995 75.6658 111.891 77.3472L126.978 84.9138L163.436 90.7989L166.37 78.6083H173.913C174.919 78.6083 180.758 79.7293 183.552 80.2898L189.838 83.2323C189.139 84.3533 187.575 86.6793 186.904 87.0156C186.234 87.3519 179.92 91.3594 176.847 93.3211L170.98 95.0026L168.884 96.2637L170.98 117.282L173.075 123.587L176.847 130.313V139.561H167.208L163.017 142.924L155.055 141.663L148.35 143.345L141.226 142.504C138.711 142.083 133.599 141.159 133.264 140.822L132.006 139.561H57.4123L52.3835 141.663H47.3547C44.8402 142.504 39.7276 144.185 39.3924 144.185C39.0571 144.185 37.0177 143.625 36.0398 143.345L34.3636 144.185H27.6585L20.9534 139.561H12.572L13.4102 127.791L18.0199 120.645L19.6962 114.339L21.7915 93.3211L13.8292 91.6397L4.60975 87.0156L0.838135 82.3916Z" fill="white"/>
<path d="M168.26 104.528C166.76 103.409 165.343 102.157 163.751 101.207C161.052 99.5925 158.01 98.9956 154.917 98.55C148.036 97.5495 141.163 98.9619 134.291 98.55C131.424 98.3818 128.482 98.2473 125.725 97.5243C121.668 96.4566 118.55 93.8923 116.665 90.025C116.002 88.6714 115.424 87.2674 114.787 85.897C113.932 84.0305 112.449 82.7694 110.739 81.7185C108.87 80.5835 107.21 81.4747 105.601 82.2818C104.327 82.9208 103.196 83.8204 101.989 84.6023C101.486 84.9301 100.966 85.2412 100.455 85.5523C100.145 82.0044 98.2591 79.5495 95.158 77.9857C94.1774 77.4897 93.1381 77.0861 92.0904 76.7666C84.6813 74.5051 77.4566 74.1436 70.7599 78.9273C70.7347 77.7839 70.6677 76.6405 70.6928 75.4971C70.7012 74.9927 70.8856 74.4883 71.0532 73.6728C69.8128 74.1099 68.7484 74.2949 67.8935 74.8246C65.1779 76.5144 62.4372 78.1959 59.906 80.1296C55.9836 83.1226 52.0695 86.124 47.225 87.4271C42.4644 88.7134 37.7038 88.5705 33.3288 86.0819C30.8227 84.6527 29.1716 82.3743 28.7442 79.3897C28.9285 78.9021 29.0962 78.4061 29.3141 77.9269C36.0192 62.7601 45.6661 49.9389 59.2942 40.3378C69.5362 33.1243 80.8175 28.7609 93.3728 27.8697C103.799 27.1299 113.781 28.9122 123.261 33.284C137.115 39.6736 147.575 49.8296 155.378 62.8357C161.429 72.9245 165.251 83.8624 167.229 95.4393C167.741 98.4323 167.917 101.493 168.252 104.519L168.26 104.528ZM111.837 64.7274C112.088 64.9291 112.197 65.03 112.315 65.0973C114.175 66.1146 116.212 66.4677 118.291 66.7031C121.61 67.073 124.82 66.7031 127.753 65.0469C130.217 63.6596 130.343 61.4233 128.172 59.5485C127.745 59.1786 127.292 58.7498 126.781 58.6069C126.152 58.4387 125.356 58.3294 124.786 58.5732C122.288 59.641 119.849 60.8348 117.394 62.0034C115.567 62.8778 113.756 63.7773 111.829 64.7274H111.837ZM77.0208 59.8427C76.3838 59.4056 75.9647 59.0861 75.5205 58.817C71.5058 56.3621 67.466 53.9408 63.4765 51.4354C62.4875 50.8217 61.7583 50.9226 60.9705 51.6624C60.0737 52.5032 59.6211 53.8315 60.2413 54.6218C61.1381 55.7568 62.0936 56.9422 63.2753 57.7241C65.4042 59.1365 67.8683 59.7166 70.3995 60.1286C72.5703 60.4901 74.6656 60.549 77.0208 59.8343V59.8427ZM132.614 72.2351L132.681 71.9324C132.044 71.6466 131.424 71.3019 130.77 71.0749C126.873 69.7718 122.884 69.9988 118.902 70.4696C116.044 70.8059 113.245 71.7054 110.295 71.0749C109.892 70.9908 109.063 71.5121 108.937 71.9072C108.803 72.3192 109.146 73.2104 109.524 73.4037C110.412 73.8577 111.46 74.2613 112.432 74.236C114.511 74.1772 116.614 73.9754 118.651 73.5635C122.917 72.7059 127.175 71.924 131.558 72.3444C131.902 72.378 132.262 72.2771 132.623 72.2351H132.614ZM57.9113 62.2724C58.2381 62.4406 58.2968 62.491 58.3639 62.4994C64.3314 63.6765 69.6787 66.165 74.2801 70.1921C75.0595 70.8731 76.1156 70.8059 76.6017 70.1333C77.0794 69.4775 76.8615 68.477 75.8893 67.8969C73.0899 66.2239 70.3324 64.4583 67.3822 63.0964C64.4823 61.7512 61.3309 61.4653 57.9029 62.2809L57.9113 62.2724Z" fill="#FAA329"/>
<path d="M168.26 104.528C167.933 101.501 167.749 98.4491 167.238 95.4477C165.26 83.8624 161.446 72.9245 155.386 62.8441C147.583 49.838 137.115 39.682 123.269 33.2924C113.781 28.9206 103.808 27.1467 93.3812 27.8781C80.8259 28.7693 69.5446 33.1327 59.3026 40.3462C45.6745 49.9473 36.0276 62.7601 29.3225 77.9353C29.1129 78.4145 28.9453 78.9105 28.7525 79.3981C27.3948 83.1646 25.9532 86.9059 24.6792 90.6976C22.1648 98.1632 21.3434 105.957 20.4801 113.725C20.4382 114.129 20.4801 114.549 20.4801 115.281C21.0501 114.86 21.4272 114.583 21.796 114.305C37.2848 102.712 56.8133 111.573 62.102 126.756C63.4597 134.163 59.6127 144.084 49.2701 143.504C48.6918 143.47 48.1219 143.193 47.3843 142.983C45.6494 144.488 43.5792 145.707 41.0564 145.942C38.8353 146.144 36.74 145.858 34.8709 144.471C34.6027 144.277 33.9657 144.361 33.6137 144.538C29.8505 146.514 25.7688 146.127 22.7766 143.369C20.0862 140.881 19.1307 137.728 19.5414 134.13C19.5917 133.726 19.6672 133.205 19.9354 132.961C20.3377 132.583 20.9663 132.146 21.4189 132.213C21.8715 132.289 22.3408 132.894 22.6006 133.381C22.7934 133.743 22.6342 134.281 22.6593 134.735C22.7012 135.534 22.6677 136.349 22.8353 137.123C23.5896 140.612 26.3136 142.747 29.6996 142.571C32.7924 142.411 35.8432 139.384 36.1449 135.988C36.2622 134.685 36.0611 133.339 35.8935 132.019C35.7929 131.238 35.5247 130.397 36.4634 130.061C37.4775 129.699 37.905 130.54 38.1899 131.296C39.4891 134.718 38.9946 137.963 37.1255 141.049C36.9495 141.343 36.7651 141.629 36.5975 141.923C36.564 141.982 36.5975 142.066 36.5975 142.251C38.7515 143.218 40.9809 143.428 43.1517 142.377C46.1522 140.914 47.9626 138.569 47.9123 135.063C47.9039 134.34 47.8453 133.617 47.8369 132.885C47.8201 132.162 47.9291 131.439 48.7924 131.296C49.6975 131.145 50.1418 131.776 50.2926 132.541C50.7955 135.055 50.8374 137.551 49.6892 139.939C49.5634 140.2 49.4629 140.469 49.3288 140.763C55.9333 141.032 58.9757 135.668 59.7216 131.271C60.124 128.858 59.7216 126.714 58.3806 124.621C54.3157 118.248 48.9265 113.725 41.3581 112.388C30.9317 110.547 21.3686 115.558 16.6247 125.159C14.6719 129.111 13.5739 133.297 13.5823 137.736C13.5823 137.854 13.5823 137.963 13.5823 138.081C13.5488 139.04 13.1213 139.712 12.1156 139.805C11.2523 139.88 10.6153 139.132 10.5901 138.031C10.4644 131.154 12.3167 124.898 16.5912 119.459C17.3036 118.559 17.5634 117.727 17.5467 116.575C17.4712 109.908 18.2339 103.317 19.6085 96.7929C19.7342 96.2043 19.8599 95.6074 19.994 94.96C18.1585 94.2454 16.39 93.5644 14.63 92.8666C10.7242 91.3197 6.88558 89.6214 3.58333 86.9731C2.40994 86.0315 1.41257 84.8545 0.44871 83.6943C-0.255324 82.8451 -0.0960789 81.8867 0.683387 81.1132C1.3539 80.4406 2.00764 79.7092 2.79549 79.1963C10.4309 74.236 16.608 67.7372 22.4246 60.818C26.7997 55.6138 31.5854 50.8133 37.0585 46.7189C40.6289 44.0454 44.4592 41.8847 48.5577 40.2117C50.0915 39.5895 51.7677 39.3121 53.4105 38.8749C53.1926 36.8656 52.8154 34.7637 52.7651 32.6535C52.4718 20.6899 55.9417 10.1555 64.6834 1.68938C65.2952 1.09246 66.0412 0.613246 66.7704 0.167659C67.4576 -0.244299 67.8851 0.150839 67.9773 0.831831C68.0527 1.39512 67.9521 1.97523 67.9521 2.54693C68.0276 11.7193 71.2209 19.5129 78.06 25.7175C78.873 26.4573 79.6777 26.5834 80.7588 26.2976C94.1187 22.7665 107.303 23.4391 120.277 28.1724C121.274 28.5339 121.945 28.4162 122.733 27.7352C129.882 21.5811 134.911 14.0565 137.467 4.9262C137.635 4.32087 137.559 3.63987 137.71 3.02614C137.811 2.60577 138.037 1.97523 138.339 1.89116C138.749 1.77346 139.495 1.92478 139.713 2.23585C140.635 3.53057 141.574 4.85894 142.219 6.305C143.854 9.97058 144.516 13.8884 144.859 17.8566C145.429 24.4816 145.186 31.0561 143.359 37.5045C143.066 38.5302 142.68 39.5223 142.286 40.6657C142.596 40.8338 142.94 41.044 143.292 41.2289C159.996 49.9641 175.091 60.8852 188.099 74.606C189.507 76.094 190.756 77.7503 191.996 79.3897C193.379 81.2141 193.337 81.8615 191.845 83.5934C188.032 88.024 183.531 91.5551 178.083 93.7494C175.829 94.6574 173.49 95.3216 171.001 96.1539C171.16 97.4486 171.395 98.9367 171.512 100.442C171.772 103.83 171.931 107.226 172.191 110.606C172.434 113.759 172.727 116.912 173.063 120.056C173.113 120.535 173.49 121.014 173.8 121.435C177.287 126.21 178.879 131.473 177.84 137.392C177.706 138.132 177.505 138.897 177.153 139.561C176.968 139.906 176.29 140.309 176.021 140.2C175.644 140.048 175.426 139.46 175.175 139.04C175.116 138.93 175.192 138.745 175.208 138.594C176.491 130.38 173.297 123.906 166.961 119.089C159.351 113.296 150.777 111.808 141.708 115.154C135.565 117.424 131.558 121.805 130.469 128.463C129.915 131.868 130.569 135.164 132.086 138.258C133.126 140.368 137.006 141.789 139.688 141.041C139.579 140.729 139.479 140.418 139.353 140.124C138.263 137.661 138.322 135.147 139.051 132.625C139.16 132.238 139.37 131.809 139.671 131.557C139.948 131.322 140.459 131.111 140.769 131.212C141.079 131.313 141.398 131.776 141.465 132.129C141.574 132.717 141.465 133.348 141.499 133.953C141.574 135.13 141.532 136.341 141.817 137.476C142.99 142.192 148.966 144.118 152.151 141.041C151.673 139.351 151.104 137.77 150.802 136.147C150.45 134.247 150.978 132.431 151.933 130.767C152.134 130.405 152.386 129.993 152.721 129.808C153.182 129.556 153.744 129.497 154.255 129.354C154.372 129.867 154.649 130.405 154.59 130.901C154.423 132.255 153.928 133.583 153.903 134.937C153.827 138.636 156.593 141.587 159.996 141.621C163.491 141.663 166.467 138.695 166.584 135.038C166.601 134.584 166.542 134.121 166.517 133.667C166.45 132.482 166.928 131.708 167.824 131.574C168.78 131.431 169.593 132.045 169.693 133.272C169.802 134.55 169.836 135.887 169.584 137.131C168.26 143.706 161.17 146.926 155.386 143.647C154.959 143.403 154.64 143.151 154.096 143.596C150.936 146.177 146.427 146.43 142.89 144.26C142.295 143.899 141.809 143.756 141.105 143.991C137.182 145.286 133.712 144.185 130.687 141.654C129.798 140.914 129.119 139.729 128.725 138.611C127.368 134.76 126.555 130.809 127.426 126.698C129.086 118.896 134.031 113.961 141.314 111.48C150.601 108.319 159.334 110.009 167.43 115.39C167.682 115.558 167.925 115.743 168.185 115.911C168.243 115.945 168.319 115.953 168.419 115.978C168.478 115.911 168.604 115.827 168.604 115.751C168.537 112.17 168.461 108.58 168.386 104.998C168.386 104.855 168.294 104.713 168.252 104.561L168.26 104.528ZM124.87 28.4835L123.965 29.3747C124.241 29.5848 124.493 29.837 124.803 29.9968C125.892 30.5685 127.041 31.0477 128.105 31.6698C130.586 33.1243 133.059 34.604 135.489 36.1425C137.132 37.185 138.699 38.3536 140.342 39.497C140.501 39.27 140.66 39.1271 140.711 38.9674C141.364 36.504 142.32 34.0659 142.563 31.5605C142.982 27.3233 142.957 23.0439 143.083 18.7814C143.091 18.4115 142.84 18.0332 142.714 17.6549C142.312 13.5773 141.633 9.56703 139.562 5.89303C139.202 6.49836 139.068 7.10369 138.85 7.6922C137.475 11.4419 135.782 15.0318 133.561 18.3695C131.081 22.1023 128.298 25.5745 124.87 28.4835ZM75.4702 26.1799C69.3518 19.8996 66.3094 12.2742 65.5467 3.41288C65.1109 3.70714 64.8678 4.15272 64.5661 4.54786C63.2753 6.26295 61.8589 7.88557 60.7023 9.67632C57.8945 13.9977 56.2266 18.7814 55.3633 23.8594C55.2963 24.0696 55.1873 24.2714 55.1706 24.49C55.0197 26.1883 54.8353 27.8866 54.7599 29.5932C54.6426 32.5022 54.7599 35.3943 55.5393 38.4629C62.0684 33.5867 69.1255 30.0809 76.8364 27.3653L75.4702 26.1967V26.1799ZM10.3639 76.5565C10.8416 76.4892 11.3361 76.4724 11.8054 76.3463C16.3146 75.1861 20.8908 74.875 25.5173 75.2281C26.3136 75.2869 26.6572 75.102 26.9841 74.3958C32.2476 62.8862 39.3969 52.7301 48.6666 44.1042C48.9516 43.8352 49.2198 43.5494 49.6808 43.0786C47.2167 43.2635 45.3476 44.1799 43.5373 45.2392C36.2539 49.5186 30.2947 55.3112 24.7462 61.5998C21.4188 65.3663 18.0412 69.0908 14.6048 72.7648C13.3141 74.1435 11.7971 75.3038 10.3806 76.5649C10.3471 76.5817 10.3136 76.5901 10.2884 76.6069C10.28 76.6153 10.2884 76.6489 10.2884 76.6742L10.3722 76.548L10.3639 76.5565ZM149.846 48.3668C149.796 48.5349 149.737 48.6358 149.763 48.6694C150.232 49.2579 150.718 49.8296 151.187 50.4181C157.524 58.3715 162.511 67.0982 165.98 76.6826C166.215 77.3215 166.534 77.4308 167.179 77.3551C168.688 77.187 170.221 76.9516 171.722 77.0861C177.53 77.6158 183.087 79.1375 188.359 81.6597C188.635 81.7942 189.004 81.7101 189.331 81.7354C189.247 81.3991 189.247 80.9955 189.054 80.7433C188.166 79.6083 187.277 78.4565 186.28 77.4056C176.147 66.7451 164.748 57.64 152.336 49.8044C151.531 49.3 150.693 48.8544 149.846 48.3668ZM25.2575 78.1202C17.1695 77.2206 9.65144 78.818 2.45185 82.7022C3.54143 83.8624 4.57233 85.031 5.86306 85.7456C9.00607 87.5028 12.2497 89.0918 15.4932 90.6639C17.136 91.4542 18.8542 92.1856 20.7148 91.4962C22.1983 87.1244 23.6902 82.7274 25.2575 78.1202ZM167.246 79.8437C168.361 84.2744 169.467 88.6209 170.599 93.1105C176.935 91.6728 182.475 88.7471 187.127 84.081C183.606 81.4411 171.395 78.8685 167.246 79.8521V79.8437Z" fill="#0A0807"/>
<path d="M70.7683 78.9357C77.4734 74.1604 84.6981 74.5219 92.0988 76.775C93.1465 77.0945 94.1858 77.4981 95.1664 77.9941C98.2675 79.5579 100.153 82.0128 100.463 85.5607C100.187 87.4523 99.8264 89.3103 98.7536 90.9498C93.6829 89.2767 89.9364 95.3132 90.8416 99.4496C91.026 100.307 90.8668 100.77 90.1208 101.047C88.7044 101.585 87.2712 102.056 85.8715 102.628C85.5027 102.779 84.9998 103.174 84.9663 103.493C84.7735 105.234 84.5975 106.991 84.6562 108.74C84.6813 109.69 85.0417 110.699 85.4775 111.564C87.6064 115.768 93.0375 118.719 97.7143 118.316C100.078 118.114 101.67 116.811 102.332 114.541C102.76 113.103 103.254 112.615 104.034 112.876C104.813 113.137 104.998 113.944 104.587 115.264C103.389 119.047 99.7258 121.283 95.4011 120.787C90.674 120.241 86.7934 118.063 83.86 114.322C82.9212 113.12 82.3178 111.649 81.5383 110.253C81.4377 110.32 81.2366 110.421 81.0773 110.564C76.828 114.465 71.707 115.23 66.2675 114.482C65.0606 114.314 63.795 113.633 62.8395 112.842C60.8783 111.228 60.8028 108.117 62.5378 106.268C62.8311 105.957 63.4514 105.948 63.9123 105.797C64.0464 106.268 64.1889 106.73 64.323 107.201C64.3314 107.235 64.3063 107.277 64.2895 107.31C63.3592 110.623 64.3984 112.33 67.8432 112.548C72.5703 112.842 76.5682 111.136 79.6441 107.47C80.784 106.117 81.1695 104.427 81.3958 102.695C81.4713 102.123 81.2785 101.854 80.7505 101.56C79.3927 100.812 78.0852 99.9624 76.828 99.0544C76.5598 98.861 76.4676 98.2473 76.4927 97.8353C76.543 96.8937 76.8867 95.9437 76.8112 95.0189C76.476 91.2356 74.1962 89.428 70.3073 89.8484C69.0333 86.1576 67.7007 82.4752 70.7683 78.9357Z" fill="#040403"/>
<path d="M132.614 72.2351C132.262 72.2771 131.902 72.378 131.55 72.3444C127.166 71.924 122.909 72.7143 118.643 73.5635C116.606 73.9754 114.502 74.1772 112.424 74.236C111.451 74.2612 110.412 73.8577 109.515 73.4037C109.138 73.2103 108.794 72.3192 108.929 71.9072C109.054 71.5037 109.884 70.9824 110.286 71.0749C113.228 71.697 116.036 70.7974 118.894 70.4696C122.875 70.0071 126.865 69.7718 130.762 71.0749C131.424 71.2935 132.036 71.6382 132.673 71.9324L132.606 72.2351L132.614 72.2351Z" fill="#0A0807"/>
<path d="M57.9029 62.2724C61.3309 61.4569 64.4823 61.7428 67.3822 63.0879C70.3241 64.4583 73.0899 66.2239 75.8893 67.8885C76.8615 68.4686 77.0794 69.4775 76.6017 70.1249C76.1156 70.7974 75.0595 70.8647 74.2801 70.1837C69.6787 66.1566 64.3314 63.6765 58.3639 62.491C58.2968 62.4742 58.2381 62.4322 57.9113 62.264L57.9029 62.2724Z" fill="#0A0807"/>
<path d="M149.846 48.3752C150.693 48.8628 151.531 49.3084 152.336 49.8128C164.748 57.6568 176.147 66.7619 186.28 77.414C187.277 78.4565 188.166 79.6083 189.054 80.7517C189.247 81.0039 189.247 81.4075 189.331 81.7438C189.004 81.7269 188.627 81.8026 188.359 81.6681C183.078 79.1459 177.53 77.6326 171.722 77.0945C170.23 76.96 168.688 77.1954 167.179 77.3635C166.534 77.4308 166.207 77.3215 165.98 76.691C162.511 67.1151 157.524 58.3883 151.187 50.4265C150.718 49.838 150.232 49.2663 149.763 48.6778C149.737 48.6442 149.796 48.5433 149.846 48.3752Z" fill="#FAA329"/>
<path d="M10.3806 76.5733C11.7971 75.3122 13.3141 74.152 14.6048 72.7732C18.0412 69.1076 21.4189 65.3747 24.7463 61.6083C30.2947 55.328 36.2539 49.527 43.5373 45.2476C45.3476 44.1883 47.2167 43.2719 49.6808 43.087C49.2114 43.5578 48.9516 43.8436 48.6666 44.1127C39.3885 52.7386 32.2476 62.8946 26.9841 74.4042C26.6572 75.1104 26.3136 75.2954 25.5173 75.2365C20.8992 74.8918 16.3146 75.1945 11.8055 76.3547C11.3361 76.4724 10.8416 76.4976 10.3639 76.5649L10.3806 76.5817V76.5733Z" fill="#FAA329"/>
<path d="M55.355 23.851C56.2182 18.773 57.8861 13.9977 60.6939 9.66792C61.8589 7.87716 63.2753 6.25454 64.5577 4.53945C64.851 4.14431 65.0941 3.70712 65.5383 3.40446C66.301 12.2658 69.3434 19.8912 75.4618 26.1715C75.0176 26.4657 74.6153 26.844 74.1292 27.029C73.3665 27.3148 72.5116 27.3821 71.7657 27.7016C69.4021 28.7273 66.8542 28.8366 64.4068 28.7609C61.4482 28.66 58.6656 27.4914 56.3607 25.5073C55.8914 25.1037 55.6735 24.4059 55.3466 23.851H55.355Z" fill="#FA1002"/>
<path d="M124.87 28.4835C128.298 25.5745 131.081 22.1023 133.561 18.3695C135.774 15.0318 137.475 11.4419 138.85 7.6922C139.06 7.11209 139.202 6.49836 139.562 5.89303C141.633 9.56703 142.312 13.5773 142.714 17.6549C142.697 17.9155 142.672 18.1845 142.672 18.4451C142.722 21.1691 142.881 23.9099 141.775 26.5078C141.557 27.0122 141.373 27.5503 141.063 27.9958C139.671 29.9968 137.526 30.8291 135.288 31.1234C131.944 31.5605 128.658 31.0645 125.649 29.3999C125.323 29.2149 125.13 28.7861 124.87 28.4751V28.4835Z" fill="#FA1002"/>
<path d="M55.355 23.851C55.6902 24.4143 55.9081 25.1037 56.3691 25.5073C58.674 27.4914 61.4566 28.66 64.4152 28.7609C66.8542 28.845 69.4105 28.7273 71.774 27.7016C72.52 27.3821 73.3749 27.3148 74.1376 27.029C74.6153 26.844 75.026 26.4657 75.4702 26.1715C75.8558 26.4993 76.2413 26.8272 76.8364 27.3401C69.1171 30.0472 62.0684 33.5615 55.5393 38.4377C54.7599 35.3691 54.6426 32.4685 54.7599 29.568C54.8269 27.8613 55.0197 26.1715 55.1706 24.4648C55.1873 24.2546 55.2963 24.0444 55.3633 23.8342L55.355 23.851Z" fill="#740D07"/>
<path d="M124.87 28.4835C125.13 28.7945 125.314 29.2317 125.649 29.4083C128.667 31.0729 131.944 31.569 135.288 31.1318C137.526 30.8375 139.663 30.0136 141.063 28.0043C141.373 27.5587 141.566 27.0206 141.775 26.5162C142.873 23.9183 142.714 21.1775 142.672 18.4536C142.672 18.1929 142.697 17.9239 142.714 17.6633C142.84 18.0416 143.099 18.4199 143.083 18.7898C142.957 23.0523 142.982 27.3317 142.563 31.5689C142.32 34.0743 141.364 36.5125 140.711 38.9758C140.669 39.1439 140.51 39.2784 140.342 39.5054C138.699 38.362 137.132 37.1934 135.489 36.1509C133.059 34.604 130.586 33.1327 128.105 31.6782C127.041 31.0561 125.901 30.5769 124.803 30.0052C124.501 29.8455 124.241 29.5932 123.965 29.3831L124.87 28.4919V28.4835Z" fill="#740D07"/>
<path d="M10.3639 76.5649L10.28 76.691C10.28 76.691 10.2717 76.6321 10.28 76.6237C10.3052 76.5985 10.3471 76.5901 10.3722 76.5817L10.3555 76.5649H10.3639Z" fill="#FAA329"/>
</svg>
