<svg width="185" height="184" viewBox="0 0 185 184" fill="none" xmlns="http://www.w3.org/2000/svg">
<path d="M92.8544 0C144.21 0.0825641 185.108 40.9931 184.984 92.1209C184.839 143.042 143.319 184.056 92.2331 183.726C40.9605 183.396 -0.144546 142.299 0.000382062 91.5223C0.12465 40.7041 41.5196 -0.0825636 92.8544 0.0206415V0ZM111.429 42.149C109.586 47.4331 105.01 48.1968 99.3981 47.5363C94.9873 47.0203 90.3487 46.8138 86.0208 47.5776C79.8085 48.6715 75.6876 46.2978 72.54 40.8486C65.1887 43.1191 58.2309 44.9974 51.5008 47.4744C48.7674 48.4858 45.7647 50.3228 44.2323 52.6759C30.7101 73.3169 24.3736 96.022 25.968 120.667C26.1337 123.268 28.1009 126.55 30.2753 128.098C39.2211 134.435 48.933 139.389 60.4673 142.196C62.6623 138.584 64.6917 135.219 66.7625 131.834C63.2836 129.357 60.5294 127.376 57.7753 125.415L58.4379 123.475C81.3408 133.155 104.244 133.093 127.188 123.227L127.706 125.456L118.221 131.648C120.52 135.261 122.798 138.832 125.78 143.476C135.782 138.357 144.893 133.692 153.984 129.027C158.084 126.922 159.347 123.578 159.492 118.975C159.968 103.762 157.504 89.1486 152.493 74.7618C145.929 55.8753 135.368 42.149 111.471 42.2109L111.429 42.149Z" fill="white"/>
<path d="M82.4804 96.8477C82.4804 103.804 76.9928 109.934 70.6562 110.079C63.9262 110.244 58.0244 103.721 58.2729 96.373C58.5214 89.2725 63.9676 83.7407 70.5941 83.8645C77.2206 83.9883 82.4804 89.7472 82.4597 96.8477H82.4804Z" fill="white"/>
<path d="M115.323 83.8646C122.073 84.1123 126.753 89.6028 126.629 97.0955C126.505 104.506 121.514 110.037 114.888 110.099C108.013 110.161 102.732 103.948 103.022 96.1873C103.312 88.8804 108.572 83.6169 115.302 83.8646H115.323Z" fill="white"/>
</svg>
