<svg width="156" height="99" viewBox="0 0 156 99" fill="none" xmlns="http://www.w3.org/2000/svg">
<path d="M5.35453 92.36H9.83453V95H1.93453V80.96H5.35453V92.36ZM18.8058 95.14C17.4858 95.14 16.2725 94.8333 15.1658 94.22C14.0725 93.6067 13.1991 92.7533 12.5458 91.66C11.9058 90.5533 11.5858 89.3133 11.5858 87.94C11.5858 86.5667 11.9058 85.3333 12.5458 84.24C13.1991 83.1467 14.0725 82.2933 15.1658 81.68C16.2725 81.0667 17.4858 80.76 18.8058 80.76C20.1258 80.76 21.3325 81.0667 22.4258 81.68C23.5325 82.2933 24.3991 83.1467 25.0258 84.24C25.6658 85.3333 25.9858 86.5667 25.9858 87.94C25.9858 89.3133 25.6658 90.5533 25.0258 91.66C24.3858 92.7533 23.5191 93.6067 22.4258 94.22C21.3325 94.8333 20.1258 95.14 18.8058 95.14ZM18.8058 92.02C19.9258 92.02 20.8191 91.6467 21.4858 90.9C22.1658 90.1533 22.5058 89.1667 22.5058 87.94C22.5058 86.7 22.1658 85.7133 21.4858 84.98C20.8191 84.2333 19.9258 83.86 18.8058 83.86C17.6725 83.86 16.7658 84.2267 16.0858 84.96C15.4191 85.6933 15.0858 86.6867 15.0858 87.94C15.0858 89.18 15.4191 90.1733 16.0858 90.92C16.7658 91.6533 17.6725 92.02 18.8058 92.02ZM41.7684 80.96L36.7884 95H32.5084L27.5284 80.96H31.1684L34.6484 91.56L38.1484 80.96H41.7684ZM47.3178 83.7V86.54H51.8978V89.18H47.3178V92.26H52.4978V95H43.8978V80.96H52.4978V83.7H47.3178ZM72.5164 80.96V95H69.0964V89.22H63.7764V95H60.3564V80.96H63.7764V86.46H69.0964V80.96H72.5164ZM84.4253 92.52H79.1853L78.3453 95H74.7653L79.8453 80.96H83.8053L88.8853 95H85.2653L84.4253 92.52ZM83.5453 89.88L81.8053 84.74L80.0853 89.88H83.5453ZM101.231 80.96V83.7H97.5114V95H94.0914V83.7H90.3714V80.96H101.231ZM107.068 83.7V86.54H111.648V89.18H107.068V92.26H112.248V95H103.648V80.96H112.248V83.7H107.068ZM123.526 80.96V95H120.106V80.96H123.526ZM139.265 95H135.845L130.125 86.34V95H126.705V80.96H130.125L135.845 89.66V80.96H139.265V95ZM145.804 80.96V89.36C145.804 90.2 146.011 90.8467 146.424 91.3C146.837 91.7533 147.444 91.98 148.244 91.98C149.044 91.98 149.657 91.7533 150.084 91.3C150.511 90.8467 150.724 90.2 150.724 89.36V80.96H154.144V89.34C154.144 90.5933 153.877 91.6533 153.344 92.52C152.811 93.3867 152.091 94.04 151.184 94.48C150.291 94.92 149.291 95.14 148.184 95.14C147.077 95.14 146.084 94.9267 145.204 94.5C144.337 94.06 143.651 93.4067 143.144 92.54C142.637 91.66 142.384 90.5933 142.384 89.34V80.96H145.804Z" fill="white"/>
<path d="M69.6121 6.33483C69.2203 8.39267 69.6359 10.2656 70.6082 12.0627C72.867 11.6504 75.1311 11.363 77.4229 11.3564C79.716 11.3497 81.984 11.6277 84.2653 12.0388C85.2245 10.2656 85.6387 8.40198 85.2535 6.35345C85.334 6.39469 85.3867 6.40799 85.4197 6.44125C85.677 6.69931 85.9567 6.9414 86.1797 7.22607C87.1006 8.40331 87.6442 9.75081 87.8896 11.2247C87.9807 11.7687 88.0163 12.3181 87.9991 12.8702C87.9912 13.1189 87.9886 13.1189 88.2485 13.2373C88.3145 13.1961 88.3884 13.1508 88.4609 13.1043C90.9123 11.5466 93.5762 10.5676 96.4419 10.1499C97.3285 10.0208 98.2218 9.9836 99.1163 10.09C99.6058 10.1485 100.082 10.2536 100.535 10.4598C100.903 10.6274 101.163 10.8828 101.329 11.2659C102.143 13.1402 102.631 15.0943 102.807 17.1295C102.919 18.4278 102.944 19.7274 102.845 21.0257C102.717 22.723 102.39 24.3765 101.714 25.9448C101.503 26.433 101.242 26.9012 100.987 27.3681C100.909 27.5105 100.895 27.6116 100.97 27.7606C102.177 30.1523 103.224 32.6145 104.109 35.1446C104.498 36.2566 104.849 37.3846 105.197 38.5113C105.389 39.1272 105.539 39.7551 105.708 40.3776C105.887 41.0427 105.981 41.7198 105.996 42.4089C106.017 43.4012 105.965 44.3895 105.755 45.3593C105.488 46.599 104.931 47.7044 104.061 48.6263C102.866 49.8953 101.565 51.0499 100.217 52.15C97.5792 54.301 94.8217 56.287 91.8399 57.9218C88.643 59.675 85.2838 61.0252 81.6806 61.685C78.6288 62.2437 75.5889 62.1865 72.557 61.532C69.81 60.94 67.2095 59.9397 64.6842 58.7106C62.3449 57.572 60.1745 56.1579 58.0608 54.6521C55.6596 52.9415 53.3849 51.0765 51.2845 48.9961C50.5179 48.2365 49.9624 47.3559 49.5455 46.3689C49.2843 45.7517 49.1787 45.0999 49.1009 44.4428C48.9966 43.5608 48.9676 42.6776 49.0402 41.7916C49.0903 41.1678 49.2407 40.5652 49.4004 39.9639C50.3055 36.5426 51.4995 33.2251 52.964 30.0073C53.3137 29.2398 53.6844 28.4815 54.0525 27.722C54.1066 27.6102 54.1132 27.5278 54.0446 27.416C53.2068 26.0645 52.7173 24.58 52.4204 23.025C52.1394 21.5525 52.0669 20.0666 52.1143 18.5701C52.1592 17.1308 52.3162 15.7062 52.6553 14.3055C52.9165 13.2253 53.2741 12.1798 53.724 11.1635C53.8467 10.8855 54.038 10.6899 54.2953 10.5489C54.798 10.2736 55.3442 10.1525 55.9063 10.0874C57.0977 9.95034 58.2785 10.0634 59.4475 10.2922C61.8383 10.7578 64.0865 11.6065 66.1777 12.8715C66.3334 12.9659 66.4838 13.071 66.6408 13.1628C66.691 13.1921 66.7543 13.1987 66.811 13.216C66.8295 13.1522 66.8625 13.0883 66.8651 13.0231C66.881 12.6094 66.8651 12.1918 66.906 11.7807C67.0815 10.0488 67.6766 8.48179 68.7651 7.12098C68.9616 6.87489 69.2084 6.66871 69.434 6.44656C69.4709 6.41065 69.5224 6.38937 69.6121 6.3335V6.33483ZM59.0728 42.2426C58.2297 42.3131 57.384 42.3623 56.5435 42.4594C55.2598 42.6084 53.9998 42.8784 52.7767 43.3081C52.65 43.352 52.5194 43.3999 52.4112 43.4757C51.989 43.7683 51.6367 44.1328 51.3834 44.5864C51.1565 44.9935 51.0588 45.4311 51.0918 45.898C51.1182 46.2638 51.204 46.603 51.4639 46.8824C51.6143 47.0447 51.741 47.2309 51.8835 47.4025C53.0485 48.8112 54.3731 50.0563 55.7849 51.2069C58.6955 53.5787 61.8501 55.5673 65.1948 57.2514C67.5697 58.4472 70.0145 59.4702 72.5768 60.1898C74.0057 60.5902 75.4557 60.8775 76.9387 60.964C78.0193 61.0278 79.088 60.9041 80.1488 60.7139C81.8363 60.412 83.4723 59.9238 85.078 59.3238C88.7749 57.9431 92.2423 56.1087 95.5302 53.9232C97.5159 52.6036 99.4079 51.163 101.14 49.5135C102.039 48.6582 102.882 47.7497 103.63 46.7547C103.709 46.6482 103.787 46.5285 103.82 46.4022C103.999 45.741 103.931 45.1065 103.577 44.5119C103.362 44.1514 103.085 43.8455 102.753 43.5954C102.602 43.4823 102.433 43.3839 102.259 43.3201C101.902 43.191 101.539 43.0793 101.172 42.9809C99.838 42.6204 98.4791 42.4129 97.1016 42.3184C95.8337 42.2319 94.5697 42.2665 93.3176 42.5033C92.5787 42.643 91.8465 42.8106 91.1076 42.9516C90.2474 43.1165 89.3832 43.1697 88.515 42.9915C87.1363 42.7082 85.8578 42.1681 84.6386 41.4724C84.5357 41.4139 84.4434 41.3367 84.3484 41.2649C83.8892 40.915 83.5145 40.4867 83.1768 40.0198C82.5553 39.1618 81.7716 38.4887 80.8322 38.0032C79.6118 37.3727 78.3122 37.108 76.9492 37.2237C74.3329 37.4472 72.2746 38.6483 70.8273 40.8711C70.5885 41.2383 70.2916 41.5176 69.9156 41.7198C68.9405 42.2413 67.922 42.6536 66.8467 42.913C66.22 43.0647 65.588 43.1338 64.9401 43.0886C64.1947 43.0367 63.4677 42.8784 62.7434 42.7148C61.5348 42.4421 60.3157 42.2679 59.0728 42.2413V42.2426ZM55.0355 25.8437C55.0843 25.7692 55.116 25.7253 55.1437 25.6788C55.4221 25.2052 55.6939 24.7277 55.9775 24.2581C57.2507 22.1577 58.6532 20.1517 60.2893 18.3187C61.1918 17.3091 62.1549 16.3646 63.2579 15.5758C63.2883 15.5545 63.3147 15.5253 63.3595 15.484C63.2764 15.4348 63.2131 15.3909 63.1445 15.3577C62.8674 15.2206 62.593 15.0783 62.3119 14.9519C61.201 14.4518 60.0492 14.0753 58.8393 13.9317C57.4077 13.7614 55.996 13.9077 54.6172 14.3374C54.1515 14.4824 54.2452 14.3826 54.0763 14.8735C53.6937 15.9842 53.5578 17.1388 53.5195 18.3081C53.4786 19.5638 53.5789 20.8115 53.8018 22.0473C54.0222 23.2684 54.3613 24.4537 54.8943 25.5764C54.9339 25.6602 54.9801 25.7413 55.0355 25.8451V25.8437ZM91.6446 15.484C91.7053 15.5346 91.7528 15.5732 91.8003 15.6131C92.3122 16.0401 92.8387 16.4484 93.3308 16.8967C94.1475 17.6403 94.8784 18.4704 95.579 19.3257C97.1795 21.2811 98.5582 23.3895 99.809 25.5843C99.8552 25.6655 99.904 25.744 99.9673 25.849C100.021 25.7466 100.065 25.6814 100.094 25.6083C100.298 25.0988 100.532 24.5986 100.697 24.0759C101.411 21.8291 101.631 19.5239 101.411 17.1774C101.332 16.334 101.164 15.5066 100.876 14.7072C100.814 14.5356 100.722 14.4372 100.545 14.3786C99.6216 14.074 98.6717 13.9197 97.7033 13.8771C97.1333 13.8519 96.5646 13.8585 95.9999 13.949C94.5248 14.1831 93.1382 14.6793 91.8188 15.3763C91.7647 15.4042 91.7145 15.4401 91.6459 15.4814L91.6446 15.484ZM69.4248 30.3784C67.8402 30.3638 66.8994 31.6607 66.8915 32.842C66.8823 34.248 67.9721 35.388 69.3575 35.4066C70.7336 35.4252 71.8775 34.2906 71.8828 32.9005C71.8881 31.5251 70.7824 30.3904 69.4248 30.3797V30.3784ZM83.124 32.8805C83.1187 34.2653 84.231 35.3986 85.6031 35.4053C86.9726 35.4119 88.1007 34.2906 88.1139 32.9072C88.1258 31.6328 87.1455 30.3864 85.6216 30.3771C84.2494 30.3691 83.1306 31.4905 83.1253 32.8792L83.124 32.8805ZM81.8468 27.4187C82.4128 27.4001 82.8628 27.3189 83.3087 27.2045C84.1109 26.9997 84.855 26.6472 85.5992 26.292C86.2351 25.9887 86.7325 25.5138 87.1824 24.9831C87.2682 24.882 87.3315 24.7569 87.3817 24.6332C87.4621 24.4297 87.4054 24.2967 87.2035 24.2089C87.0967 24.1623 86.9766 24.1198 86.8631 24.1184C86.5478 24.1144 86.2272 24.0972 85.9185 24.1464C84.5529 24.3659 83.3087 24.9006 82.1793 25.7001C81.897 25.8996 81.645 26.147 81.3982 26.3944C81.2782 26.5141 81.1858 26.6738 81.1132 26.8307C81.0024 27.0728 81.071 27.2365 81.323 27.3149C81.5249 27.3775 81.7386 27.3987 81.8468 27.4187ZM68.5724 24.0599C68.3257 24.1038 68.0711 24.1251 67.8323 24.1983C67.5921 24.2714 67.5341 24.435 67.633 24.6705C67.6792 24.7796 67.7386 24.8873 67.8138 24.9778C68.1938 25.442 68.6173 25.869 69.145 26.1523C69.9116 26.5647 70.7032 26.9318 71.5463 27.1646C72.0437 27.303 72.5464 27.4147 73.0636 27.4081C73.2734 27.4054 73.4898 27.3708 73.6917 27.3096C73.9305 27.2378 73.9925 27.0742 73.8935 26.8401C73.8381 26.7097 73.7682 26.5767 73.6732 26.4756C73.4621 26.2508 73.2457 26.026 73.0043 25.8344C72.3736 25.3316 71.6624 24.9631 70.9183 24.6638C70.1663 24.3619 69.3944 24.1317 68.5724 24.0599Z" fill="white"/>
<path d="M77.1677 5.8809C74.9498 5.84528 72.7371 5.76215 70.5298 5.55897C68.7011 5.39009 66.879 5.16711 65.0965 4.70796C64.5464 4.56679 64.0041 4.38339 63.475 4.17889C63.1702 4.06014 62.8734 3.88862 62.6135 3.68807C62.0131 3.22893 62.0224 2.64048 62.6082 2.16022C62.8984 1.92273 63.2349 1.76176 63.5792 1.62059C64.3142 1.32109 65.0807 1.12582 65.8552 0.960893C67.5599 0.598061 69.2856 0.38168 71.0219 0.240505C73.5156 0.0373186 76.0145 -0.0286496 78.5161 0.0109321C81.0651 0.0518332 83.6076 0.200923 86.1356 0.541326C86.8256 0.635002 87.5156 0.735278 88.1951 0.883049C89.029 1.06513 89.8655 1.24984 90.6597 1.57177C90.9527 1.69051 91.239 1.82773 91.5134 1.9821C91.6757 2.07314 91.8274 2.1998 91.9554 2.3357C92.3024 2.70249 92.305 3.13921 91.9554 3.4994C91.7984 3.66168 91.611 3.80682 91.4131 3.91501C91.1163 4.07729 90.8049 4.21979 90.4869 4.33721C89.5119 4.70005 88.4973 4.91115 87.4747 5.08927C85.555 5.42307 83.6195 5.61834 81.6734 5.71334C80.1719 5.7859 78.6691 5.82549 77.1677 5.87958V5.8809ZM88.3838 2.88324L88.393 2.82783C88.2756 2.79089 88.1608 2.74075 88.0408 2.71964C87.4879 2.62069 86.9364 2.50854 86.381 2.44125C84.7067 2.23806 83.0231 2.15626 81.3383 2.11404C77.7851 2.02564 74.2346 2.04279 70.6894 2.33834C69.6801 2.42278 68.6721 2.51777 67.6667 2.63652C67.1574 2.69721 66.6561 2.81859 66.1521 2.91887C66.0505 2.93866 65.9555 2.99012 65.8578 3.02706L65.8618 3.07983C65.97 3.1181 66.0769 3.17087 66.189 3.19066C66.7247 3.29094 67.2603 3.4044 67.8 3.47169C69.4189 3.67488 71.047 3.7514 72.6765 3.79626C76.6333 3.90709 80.5875 3.85432 84.5351 3.52183C85.5128 3.44003 86.4878 3.33052 87.4523 3.14185C87.769 3.07983 88.0883 3.01914 88.3838 2.88324Z" fill="white"/>
<path d="M78.0026 45.0883C77.9868 45.434 77.9591 45.7717 77.9564 46.1095C77.9538 46.6386 77.9235 47.1743 78.0659 47.6915C78.1557 48.0173 78.2876 48.3327 78.4077 48.6506C78.475 48.8274 78.6082 48.9449 78.7771 49.0346C79.4724 49.404 80.2179 49.6059 80.9963 49.6837C82.8764 49.8684 84.6497 49.5122 86.3108 48.6084C86.3385 48.5939 86.3676 48.5807 86.4216 48.5557C86.3953 48.6757 86.3082 48.7179 86.2409 48.772C85.3595 49.4806 84.3726 49.9872 83.2855 50.2933C82.4358 50.5334 81.5663 50.6522 80.6823 50.6284C79.5357 50.5968 78.4842 50.2801 77.5857 49.536C77.5672 49.5214 77.5461 49.5096 77.5158 49.4898C77.4801 49.5109 77.4366 49.528 77.4023 49.5558C76.5552 50.2511 75.567 50.5836 74.4891 50.6192C72.4084 50.6878 70.519 50.1205 68.8592 48.8406C68.7906 48.7879 68.7247 48.7311 68.6587 48.6731C68.6429 48.6586 68.6336 48.6348 68.5967 48.5728C68.6956 48.6177 68.7576 48.6414 68.8157 48.6718C70.5692 49.5821 72.4229 49.9173 74.3809 49.6349C75.0353 49.5399 75.6594 49.3446 76.2452 49.0293C76.4062 48.9436 76.5196 48.8261 76.6001 48.6638C76.8376 48.1836 76.9893 47.6809 77.0329 47.1439C77.0883 46.4644 77.054 45.7863 77.0012 45.0883C76.8811 45.0685 76.7663 45.05 76.6516 45.0329C74.687 44.7321 73.0325 43.162 72.6274 41.2185C72.601 41.0932 72.6274 41.0153 72.7132 40.9243C73.7964 39.7817 75.1184 39.0679 76.6397 38.6958C77.2558 38.5454 77.8601 38.5626 78.4697 38.7183C79.4698 38.9742 80.4039 39.3793 81.2351 39.9889C81.6217 40.2725 81.9555 40.6288 82.3183 40.9467C82.4054 41.0233 82.412 41.1064 82.3843 41.2027C82.317 41.4389 82.2669 41.6816 82.1745 41.9072C81.4607 43.6607 80.1664 44.703 78.3034 45.0395C78.2111 45.0566 78.1187 45.0711 78.0026 45.0896V45.0883Z" fill="white"/>
</svg>
