<svg width="144" height="37" viewBox="0 0 144 37" fill="none" xmlns="http://www.w3.org/2000/svg">
<path d="M12.3415 3.77622C12.1069 5.00297 12.3557 6.11949 12.9379 7.19082C14.2904 6.94499 15.646 6.77371 17.0182 6.76974C18.3912 6.76578 19.7492 6.93151 21.1151 7.17654C21.6894 6.11949 21.9375 5.00852 21.7068 3.78732C21.755 3.81191 21.7866 3.81984 21.8063 3.83966C21.9604 3.9935 22.1278 4.13782 22.2614 4.30752C22.8128 5.00931 23.1382 5.81261 23.2852 6.69124C23.3397 7.01557 23.361 7.34307 23.3507 7.67216C23.346 7.82045 23.3444 7.82045 23.5001 7.89102C23.5396 7.86644 23.5838 7.83948 23.6272 7.81173C25.095 6.88314 26.69 6.2995 28.4059 6.0505C28.9367 5.97358 29.4716 5.95138 30.0072 6.01482C30.3002 6.04971 30.5854 6.11236 30.8564 6.23527C31.0768 6.33519 31.2324 6.48744 31.332 6.71582C31.8194 7.83314 32.1117 8.99803 32.2168 10.2113C32.2839 10.9853 32.2989 11.76 32.2397 12.534C32.163 13.5458 31.9671 14.5315 31.5626 15.4664C31.4362 15.7574 31.2798 16.0366 31.1274 16.3149C31.0808 16.3998 31.0721 16.46 31.1171 16.5488C31.8399 17.9746 32.4664 19.4424 32.9965 20.9507C33.2295 21.6136 33.4396 22.2861 33.6482 22.9578C33.7628 23.3249 33.8528 23.6992 33.9539 24.0703C34.0614 24.4668 34.1175 24.8704 34.1261 25.2812C34.1388 25.8728 34.108 26.462 33.9824 27.04C33.822 27.7791 33.4886 28.4381 32.968 28.9876C32.2523 29.7441 31.4734 30.4324 30.666 31.0882C29.0868 32.3705 27.4358 33.5544 25.6504 34.529C23.7363 35.5742 21.725 36.379 19.5675 36.7724C17.7403 37.1054 15.9201 37.0713 14.1048 36.6812C12.46 36.3283 10.9029 35.732 9.39091 34.9992C7.99026 34.3205 6.69074 33.4775 5.42518 32.5798C3.98741 31.5601 2.62547 30.4483 1.36782 29.2081C0.908835 28.7553 0.576252 28.2303 0.326616 27.6419C0.170199 27.274 0.106999 26.8854 0.0603903 26.4937C-0.00201859 25.9679 -0.0193976 25.4414 0.0240516 24.9133C0.0540711 24.5413 0.144129 24.1821 0.239717 23.8237C0.781647 21.7841 1.49658 19.8064 2.37347 17.8882C2.58281 17.4306 2.8048 16.9786 3.02521 16.5258C3.0576 16.4592 3.06155 16.4101 3.02047 16.3435C2.51883 15.5378 2.22574 14.6528 2.04799 13.7258C1.87973 12.848 1.83628 11.9622 1.86472 11.0701C1.89158 10.2121 1.98559 9.3628 2.18861 8.52779C2.34503 7.88389 2.55911 7.2606 2.8285 6.65476C2.90197 6.48903 3.01652 6.37246 3.17056 6.2884C3.47155 6.12425 3.7986 6.05209 4.13514 6.01323C4.84849 5.93156 5.55553 5.99896 6.25546 6.13535C7.68691 6.4129 9.03305 6.91882 10.2852 7.67295C10.3784 7.72926 10.4685 7.7919 10.5625 7.84662C10.5925 7.86406 10.6304 7.86803 10.6644 7.87834C10.6754 7.84027 10.6952 7.80221 10.6968 7.76335C10.7062 7.51674 10.6968 7.26774 10.7212 7.02271C10.8263 5.99024 11.1826 5.0561 11.8343 4.24488C11.952 4.09817 12.0998 3.97526 12.2349 3.84283C12.257 3.82142 12.2878 3.80953 12.3415 3.77622ZM6.0311 25.1821C5.5263 25.2241 5.01992 25.2535 4.5167 25.3113C3.74804 25.4002 2.99361 25.5611 2.26129 25.8173C2.18545 25.8434 2.10724 25.872 2.04246 25.9172C1.78967 26.0916 1.57874 26.3089 1.42707 26.5793C1.29119 26.822 1.23273 27.0829 1.25248 27.3612C1.26828 27.5793 1.31963 27.7815 1.47525 27.948C1.56531 28.0448 1.64115 28.1558 1.72647 28.2581C2.42403 29.0978 3.21717 29.8401 4.06246 30.526C5.80517 31.9399 7.69402 33.1254 9.69663 34.1293C11.1186 34.8422 12.5825 35.452 14.1166 35.881C14.9722 36.1197 15.8404 36.291 16.7283 36.3426C17.3753 36.3806 18.0152 36.3069 18.6503 36.1935C19.6607 36.0135 20.6403 35.7225 21.6017 35.3648C23.8153 34.5417 25.8913 33.4482 27.86 32.1453C29.0489 31.3586 30.1817 30.4998 31.219 29.5165C31.757 29.0067 32.2618 28.465 32.7097 27.8719C32.7571 27.8084 32.8037 27.7371 32.8235 27.6617C32.9309 27.2676 32.8898 26.8894 32.6781 26.5349C32.5493 26.32 32.3834 26.1376 32.1844 25.9885C32.0943 25.9211 31.9932 25.8625 31.8889 25.8244C31.6748 25.7475 31.4576 25.6809 31.238 25.6222C30.4393 25.4073 29.6256 25.2836 28.8009 25.2273C28.0417 25.1757 27.2849 25.1964 26.5352 25.3375C26.0928 25.4208 25.6543 25.5207 25.2119 25.6047C24.6969 25.7031 24.1794 25.7348 23.6596 25.6285C22.8341 25.4596 22.0686 25.1377 21.3386 24.7229C21.277 24.688 21.2217 24.6421 21.1649 24.5992C20.8899 24.3907 20.6656 24.1353 20.4633 23.857C20.0913 23.3455 19.622 22.9443 19.0595 22.6548C18.3288 22.279 17.5507 22.1212 16.7346 22.1901C15.1681 22.3234 13.9357 23.0394 13.0691 24.3645C12.9261 24.5834 12.7483 24.7499 12.5232 24.8704C11.9394 25.1813 11.3295 25.4271 10.6857 25.5817C10.3105 25.6721 9.93205 25.7134 9.54417 25.6864C9.09783 25.6555 8.66254 25.5611 8.22884 25.4636C7.50521 25.301 6.77527 25.1979 6.0311 25.1821ZM3.61374 15.4062C3.64297 15.3617 3.66193 15.3356 3.67852 15.3078C3.84521 15.0255 4.00795 14.7408 4.1778 14.4609C4.94013 13.2088 5.77989 12.013 6.75947 10.9202C7.29982 10.3184 7.87651 9.75533 8.53694 9.28509C8.55511 9.27241 8.5709 9.25496 8.59776 9.23038C8.548 9.20104 8.51008 9.17487 8.469 9.15504C8.3031 9.07337 8.13878 8.98852 7.97052 8.91318C7.30535 8.61502 6.61569 8.39061 5.89127 8.30496C5.03414 8.20346 4.18885 8.29069 3.36332 8.54682C3.08445 8.63326 3.14054 8.57379 3.03943 8.8664C2.81033 9.52854 2.72896 10.2169 2.70605 10.9139C2.68156 11.6625 2.7416 12.4063 2.87511 13.143C3.00704 13.8709 3.21006 14.5775 3.52922 15.2468C3.55292 15.2967 3.58057 15.3443 3.61374 15.4062ZM25.5335 9.23038C25.5698 9.26051 25.5983 9.28351 25.6267 9.3073C25.9332 9.56185 26.2484 9.80529 26.5431 10.0725C27.0321 10.5158 27.4697 11.0106 27.8892 11.5205C28.8475 12.6862 29.673 13.9431 30.4219 15.2515C30.4496 15.2999 30.4788 15.3467 30.5167 15.4093C30.5491 15.3483 30.5752 15.3094 30.5925 15.2658C30.715 14.9621 30.8548 14.6639 30.9536 14.3523C31.3809 13.0129 31.5129 11.6387 31.3809 10.2399C31.3335 9.7371 31.2332 9.24386 31.061 8.76727C31.0239 8.66498 30.9686 8.6063 30.8627 8.57141C30.3097 8.38981 29.7409 8.29783 29.1611 8.27245C28.8198 8.25738 28.4793 8.26135 28.1412 8.31527C27.258 8.45484 26.4277 8.75062 25.6378 9.16615C25.6054 9.1828 25.5753 9.20421 25.5343 9.22879L25.5335 9.23038ZM12.2293 18.1094C11.2806 18.1007 10.7173 18.8739 10.7126 19.578C10.707 20.4162 11.3596 21.0958 12.189 21.1069C13.013 21.118 13.6979 20.4416 13.7011 19.6129C13.7042 18.793 13.0422 18.1158 12.2293 18.1094ZM20.4317 19.601C20.4286 20.4265 21.0945 21.1022 21.9161 21.1061C22.7361 21.1101 23.4116 20.4416 23.4195 19.6169C23.4266 18.8572 22.8396 18.1142 21.9272 18.1086C21.1056 18.1039 20.4357 18.7724 20.4325 19.6003L20.4317 19.601ZM19.667 16.345C20.0059 16.3339 20.2753 16.2856 20.5423 16.2174C21.0227 16.0953 21.4682 15.8851 21.9138 15.6734C22.2945 15.4926 22.5924 15.2095 22.8617 14.8931C22.9131 14.8328 22.951 14.7583 22.981 14.6845C23.0292 14.5632 22.9952 14.4839 22.8744 14.4316C22.8104 14.4038 22.7385 14.3784 22.6706 14.3776C22.4818 14.3753 22.2898 14.365 22.1049 14.3943C21.2873 14.5251 20.5423 14.8439 19.8661 15.3205C19.6971 15.4395 19.5462 15.587 19.3984 15.7344C19.3266 15.8058 19.2713 15.901 19.2278 15.9945C19.1614 16.1389 19.2025 16.2364 19.3534 16.2832C19.4743 16.3205 19.6023 16.3332 19.667 16.345ZM11.719 14.3428C11.5713 14.3689 11.4188 14.3816 11.2758 14.4252C11.132 14.4688 11.0973 14.5664 11.1565 14.7067C11.1842 14.7718 11.2197 14.836 11.2648 14.8899C11.4923 15.1667 11.7459 15.4212 12.0619 15.5901C12.5208 15.836 12.9948 16.0548 13.4996 16.1936C13.7974 16.2761 14.0984 16.3427 14.4081 16.3387C14.5337 16.3371 14.6633 16.3165 14.7841 16.28C14.9271 16.2372 14.9643 16.1397 14.905 16.0001C14.8718 15.9224 14.83 15.8431 14.7731 15.7828C14.6467 15.6488 14.5171 15.5148 14.3726 15.4006C13.9949 15.1009 13.5691 14.8812 13.1236 14.7028C12.6733 14.5228 12.2112 14.3856 11.719 14.3428Z" fill="white"/>
<path d="M16.8653 3.50581C15.5374 3.48457 14.2126 3.43502 12.8909 3.31389C11.796 3.21322 10.705 3.08029 9.63777 2.80658C9.30834 2.72242 8.98366 2.61309 8.66688 2.49118C8.48439 2.42039 8.30664 2.31814 8.15102 2.19859C7.79157 1.92487 7.7971 1.57408 8.14786 1.28778C8.32165 1.14621 8.5231 1.05025 8.72929 0.966089C9.16931 0.787546 9.62829 0.671138 10.092 0.572822C11.1127 0.356525 12.146 0.227532 13.1856 0.143373C14.6787 0.0222469 16.1749 -0.017079 17.6727 0.00651699C19.199 0.0308996 20.7213 0.119777 22.2349 0.322703C22.648 0.378547 23.0612 0.438325 23.468 0.526416C23.9673 0.634958 24.4682 0.745072 24.9437 0.936986C25.1191 1.00777 25.2905 1.08957 25.4549 1.1816C25.552 1.23587 25.6429 1.31138 25.7195 1.39239C25.9273 1.61105 25.9288 1.87139 25.7195 2.08611C25.6255 2.18286 25.5133 2.26938 25.3948 2.33387C25.2171 2.43062 25.0306 2.51556 24.8402 2.58556C24.2564 2.80186 23.6489 2.92771 23.0367 3.03389C21.8873 3.23288 20.7284 3.34929 19.5631 3.40592C18.6641 3.44918 17.7643 3.47356 16.8653 3.50581ZM23.581 1.7188L23.5865 1.68577C23.5162 1.66374 23.4475 1.63386 23.3756 1.62127C23.0446 1.56228 22.7144 1.49543 22.3818 1.45531C21.3793 1.33419 20.3713 1.28542 19.3625 1.26025C17.2351 1.20755 15.1092 1.21778 12.9865 1.39396C12.3822 1.4443 11.7786 1.50093 11.1767 1.57172C10.8717 1.6079 10.5715 1.68026 10.2698 1.74004C10.2089 1.75184 10.152 1.78251 10.0936 1.80454L10.096 1.836C10.1607 1.85881 10.2247 1.89027 10.2919 1.90206C10.6126 1.96184 10.9333 2.02948 11.2564 2.0696C12.2258 2.19072 13.2006 2.23634 14.1762 2.26308C16.5454 2.32915 18.913 2.29769 21.2766 2.09949C21.862 2.05072 22.4458 1.98544 23.0233 1.87296C23.2129 1.836 23.4041 1.79981 23.581 1.7188Z" fill="white"/>
<path d="M17.3652 26.8788C17.3558 27.0848 17.3392 27.2862 17.3376 27.4875C17.336 27.8029 17.3178 28.1223 17.4032 28.4306C17.4569 28.6249 17.5359 28.8128 17.6078 29.0024C17.6481 29.1078 17.7278 29.1778 17.829 29.2313C18.2453 29.4515 18.6916 29.5718 19.1577 29.6183C20.2834 29.7284 21.3452 29.516 22.3398 28.9772C22.3564 28.9686 22.3737 28.9607 22.4061 28.9458C22.3903 29.0173 22.3382 29.0425 22.2979 29.0748C21.7702 29.4971 21.1793 29.7992 20.5283 29.9816C20.0196 30.1248 19.499 30.1956 18.9697 30.1814C18.2832 30.1625 17.6536 29.9738 17.1156 29.5302C17.1045 29.5215 17.0919 29.5144 17.0737 29.5026C17.0524 29.5152 17.0263 29.5254 17.0058 29.542C16.4986 29.9565 15.9069 30.1547 15.2615 30.1759C14.0157 30.2168 12.8844 29.8786 11.8906 29.1157C11.8496 29.0842 11.8101 29.0504 11.7706 29.0158C11.7611 29.0071 11.7555 28.993 11.7334 28.956C11.7927 28.9827 11.8298 28.9969 11.8646 29.015C12.9145 29.5577 14.0244 29.7575 15.1967 29.5892C15.5886 29.5325 15.9622 29.4161 16.313 29.2281C16.4094 29.177 16.4773 29.107 16.5255 29.0103C16.6677 28.724 16.7585 28.4243 16.7846 28.1042C16.8178 27.6991 16.7972 27.2948 16.7656 26.8788C16.6937 26.867 16.625 26.8559 16.5563 26.8457C15.38 26.6664 14.3894 25.7304 14.1468 24.5718C14.131 24.4971 14.1468 24.4507 14.1982 24.3965C14.8468 23.7153 15.6383 23.2898 16.5492 23.068C16.9181 22.9783 17.2799 22.9886 17.6449 23.0814C18.2437 23.234 18.803 23.4754 19.3007 23.8388C19.5322 24.0079 19.732 24.2203 19.9493 24.4098C20.0014 24.4554 20.0054 24.505 19.9888 24.5624C19.9485 24.7032 19.9185 24.8479 19.8632 24.9824C19.4358 26.0277 18.6608 26.6491 17.5454 26.8497C17.4901 26.8599 17.4348 26.8677 17.3652 26.8788Z" fill="white"/>
<path d="M50.4581 13.5571H54.3785V15.8573H47.4652V3.62461H50.4581V13.5571Z" fill="white"/>
<path d="M62.2292 15.9793C61.0741 15.9793 60.0123 15.7121 59.0439 15.1777C58.0871 14.6433 57.3228 13.8998 56.7511 12.9472C56.191 11.983 55.911 10.9027 55.911 9.7061C55.911 8.50955 56.191 7.43498 56.7511 6.48239C57.3228 5.5298 58.0871 4.78631 59.0439 4.25193C60.0123 3.71755 61.0741 3.45036 62.2292 3.45036C63.3843 3.45036 64.4403 3.71755 65.397 4.25193C66.3655 4.78631 67.1239 5.5298 67.6723 6.48239C68.2324 7.43498 68.5124 8.50955 68.5124 9.7061C68.5124 10.9027 68.2324 11.983 67.6723 12.9472C67.1122 13.8998 66.3538 14.6433 65.397 15.1777C64.4403 15.7121 63.3843 15.9793 62.2292 15.9793ZM62.2292 13.2609C63.2093 13.2609 63.9911 12.9356 64.5745 12.2851C65.1695 11.6345 65.4671 10.7749 65.4671 9.7061C65.4671 8.62572 65.1695 7.76607 64.5745 7.12713C63.9911 6.47658 63.2093 6.15131 62.2292 6.15131C61.2374 6.15131 60.444 6.47077 59.8489 7.10971C59.2655 7.74864 58.9738 8.61411 58.9738 9.7061C58.9738 10.7865 59.2655 11.6519 59.8489 12.3025C60.444 12.9414 61.2374 13.2609 62.2292 13.2609Z" fill="white"/>
<path d="M82.3237 3.62461L77.9658 15.8573H74.2204L69.8624 3.62461H73.0477L76.0931 12.8601L79.1559 3.62461H82.3237Z" fill="white"/>
<path d="M87.18 6.0119V8.48632H91.1879V10.7865H87.18V13.47H91.713V15.8573H84.1871V3.62461H91.713V6.0119H87.18Z" fill="white"/>
<path d="M109.231 3.62461V15.8573H106.238V10.8213H101.583V15.8573H98.59V3.62461H101.583V8.41662H106.238V3.62461H109.231Z" fill="white"/>
<path d="M119.653 13.6965H115.067L114.332 15.8573H111.199L115.645 3.62461H119.11L123.556 15.8573H120.388L119.653 13.6965ZM118.883 11.3964L117.36 6.91803L115.855 11.3964H118.883Z" fill="white"/>
<path d="M134.36 3.62461V6.0119H131.104V15.8573H128.111V6.0119H124.856V3.62461H134.36Z" fill="white"/>
<path d="M139.467 6.0119V8.48632H143.475V10.7865H139.467V13.47H144V15.8573H136.474V3.62461H144V6.0119H139.467Z" fill="white"/>
<path d="M50.4581 23.6639V35.8966H47.4652V23.6639H50.4581Z" fill="white"/>
<path d="M64.2307 35.8966H61.2379L56.2323 28.3514V35.8966H53.2395V23.6639H56.2323L61.2379 31.244V23.6639H64.2307V35.8966Z" fill="white"/>
<path d="M69.953 23.6639V30.9826C69.953 31.7145 70.1339 32.2779 70.4956 32.6729C70.8573 33.0679 71.3882 33.2653 72.0883 33.2653C72.7883 33.2653 73.3251 33.0679 73.6984 32.6729C74.0718 32.2779 74.2585 31.7145 74.2585 30.9826V23.6639H77.2513V30.9652C77.2513 32.0572 77.018 32.9807 76.5513 33.7358C76.0845 34.4909 75.4545 35.0602 74.661 35.4435C73.8793 35.8269 73.0042 36.0186 72.0358 36.0186C71.0673 36.0186 70.1981 35.8327 69.428 35.461C68.6696 35.0776 68.0686 34.5084 67.6253 33.7533C67.1819 32.9865 66.9602 32.0572 66.9602 30.9652V23.6639H69.953Z" fill="white"/>
</svg>
