<svg width="815" height="52" viewBox="0 0 815 52" fill="none" xmlns="http://www.w3.org/2000/svg">
<rect x="1.5" y="1.5" width="812" height="49" rx="24.5" fill="white" stroke="black" stroke-width="3"/>
<rect x="12.5" y="10.5" width="790" height="31" rx="15.5" fill="url(#paint0_linear_1117_2262)" stroke="black" stroke-width="3"/>
<path d="M194.018 31.36H198.498V34H190.598V19.96H194.018V31.36ZM207.969 34.14C206.649 34.14 205.436 33.8333 204.329 33.22C203.236 32.6067 202.363 31.7533 201.709 30.66C201.069 29.5533 200.749 28.3133 200.749 26.94C200.749 25.5667 201.069 24.3333 201.709 23.24C202.363 22.1467 203.236 21.2933 204.329 20.68C205.436 20.0667 206.649 19.76 207.969 19.76C209.289 19.76 210.496 20.0667 211.589 20.68C212.696 21.2933 213.563 22.1467 214.189 23.24C214.829 24.3333 215.149 25.5667 215.149 26.94C215.149 28.3133 214.829 29.5533 214.189 30.66C213.549 31.7533 212.683 32.6067 211.589 33.22C210.496 33.8333 209.289 34.14 207.969 34.14ZM207.969 31.02C209.089 31.02 209.983 30.6467 210.649 29.9C211.329 29.1533 211.669 28.1667 211.669 26.94C211.669 25.7 211.329 24.7133 210.649 23.98C209.983 23.2333 209.089 22.86 207.969 22.86C206.836 22.86 205.929 23.2267 205.249 23.96C204.583 24.6933 204.249 25.6867 204.249 26.94C204.249 28.18 204.583 29.1733 205.249 29.92C205.929 30.6533 206.836 31.02 207.969 31.02ZM231.432 19.96L226.452 34H222.172L217.192 19.96H220.832L224.312 30.56L227.812 19.96H231.432ZM237.481 22.7V25.54H242.061V28.18H237.481V31.26H242.661V34H234.061V19.96H242.661V22.7H237.481Z" fill="black"/>
<path d="M595.094 19.96V34H591.674V28.22H586.354V34H582.934V19.96H586.354V25.46H591.674V19.96H595.094ZM607.503 31.52H602.263L601.423 34H597.843L602.923 19.96H606.883L611.963 34H608.343L607.503 31.52ZM606.623 28.88L604.883 23.74L603.163 28.88H606.623ZM624.809 19.96V22.7H621.089V34H617.669V22.7H613.949V19.96H624.809ZM631.146 22.7V25.54H635.726V28.18H631.146V31.26H636.326V34H627.726V19.96H636.326V22.7H631.146Z" fill="white"/>
<defs>
<linearGradient id="paint0_linear_1117_2262" x1="804" y1="26.4146" x2="11" y2="26.4141" gradientUnits="userSpaceOnUse">
<stop offset="0.473834" stop-color="#E5000B"/>
<stop offset="0.47541" stop-color="#56BFFF"/>
</linearGradient>
</defs>
</svg>
