<svg width="319" height="314" viewBox="0 0 319 314" fill="none" xmlns="http://www.w3.org/2000/svg">
<mask id="mask0_866_2274" style="mask-type:alpha" maskUnits="userSpaceOnUse" x="0" y="0" width="319" height="314">
<rect width="319" height="314" fill="#D9D9D9"/>
</mask>
<g mask="url(#mask0_866_2274)">
<path d="M133.642 103.837C147.031 117.349 159.803 130.119 172.429 143.025C182.078 152.9 182.005 167.885 172.491 177.677C163.249 187.186 147.689 187.447 137.59 178.251C136.326 177.091 135.073 175.911 133.559 174.5C132.212 175.775 131.011 176.945 129.778 178.084C119.659 187.395 104.255 187.291 94.8771 177.854C85.0291 167.948 84.9142 153.036 94.8562 142.878C107.472 130.004 120.265 117.297 133.653 103.837H133.642Z" fill="#FB0B35"/>
<path d="M196.521 16.0475C203.048 12.4945 207.988 8.72212 213.554 7.01878C224.227 3.7375 235.015 8.62807 240.863 18.1584C246.409 27.1976 245.521 38.9224 237.908 47.042C229.72 55.7677 220.948 63.9396 212.52 72.4354C207.905 77.096 203.477 81.9344 198.224 87.4728C187.457 76.469 177.41 66.1968 167.364 55.9454C164.45 52.9671 161.369 50.1457 158.581 47.0629C149.548 37.0623 150.122 22.5474 159.834 12.8707C168.732 4.0092 184.532 3.7793 193.963 12.505C195.32 13.759 196.177 15.5668 196.521 16.058V16.0475Z" fill="#FB0B35"/>
<path d="M101.571 87.3997C72.2674 87.1802 52.7176 62.393 60.5396 35.359C66.2939 15.4623 87.5355 3.85245 110.887 7.84433C141.026 12.9857 154.842 45.161 137.684 70.2409C130.353 80.9521 116.557 87.5146 101.582 87.3997H101.571ZM124.275 47.46C124.411 33.896 114.876 23.6028 102.156 23.5924C89.6972 23.5819 79.703 33.6975 79.4419 46.6031C79.1704 59.8641 89.3839 70.7843 102.104 70.8156C114.49 70.847 124.15 60.6792 124.275 47.4496V47.46Z" fill="black"/>
<path d="M72.8627 182.17H53.3338V151.907H19.8109V182.087H0V103.775H19.4454V135.543H52.9682V103.639H72.8522V182.181L72.8627 182.17Z" fill="black"/>
<path d="M317.935 103.743V118.844H276.068V134.665H313.757V150.465H275.995V166.464H319V182.055H255.902V103.743H317.935Z" fill="black"/>
<path d="M317.496 8.01153V23.4565H275.859V39.0374H313.59V54.7018H275.869V70.9724H318.843V86.2606H255.881V8.01153H317.496Z" fill="black"/>
<path d="M246.743 103.482V119.105H222.964V182.045H202.871V119.512H179.28V103.482H246.753H246.743Z" fill="black"/>
<path d="M0.073101 7.95928H19.5602V69.802H53.2815V86.3338H0.073101V7.95928Z" fill="black"/>
<rect y="199" width="319" height="115" fill="black"/>
<path d="M77.052 211.656V301H59.132V211.656H77.052ZM171.873 301H153.953L113.377 239.688V301H95.457V211.528H113.377L153.953 272.968V211.528H171.873V301ZM207.946 211.656V266.952C207.946 273.011 209.525 277.661 212.682 280.904C215.839 284.061 220.277 285.64 225.994 285.64C231.797 285.64 236.277 284.061 239.434 280.904C242.591 277.661 244.17 273.011 244.17 266.952V211.656H262.218V266.824C262.218 274.419 260.554 280.861 257.226 286.152C253.983 291.357 249.589 295.283 244.042 297.928C238.581 300.573 232.479 301.896 225.738 301.896C219.082 301.896 213.023 300.573 207.562 297.928C202.186 295.283 197.919 291.357 194.762 286.152C191.605 280.861 190.026 274.419 190.026 266.824V211.656H207.946Z" fill="url(#paint0_linear_866_2274)"/>
</g>
<defs>
<linearGradient id="paint0_linear_866_2274" x1="11" y1="257" x2="341" y2="257" gradientUnits="userSpaceOnUse">
<stop offset="0.364583" stop-color="#B8E099"/>
</linearGradient>
</defs>
</svg>
