<svg width="162" height="146" viewBox="0 0 162 146" fill="none" xmlns="http://www.w3.org/2000/svg">
<path d="M80.3867 146C79.815 145.002 79.3703 144.131 78.8409 143.313C76.6386 139.883 73.9492 136.867 70.9845 134.084C65.1717 128.604 59.0095 123.56 52.6143 118.781C48.6438 115.807 44.6733 112.855 40.7663 109.796C34.7735 105.102 28.8442 100.334 23.2643 95.1407C18.7326 90.9245 14.4657 86.4747 10.8869 81.3983C8.56813 78.1061 6.49287 74.6758 4.95761 70.9376C4.06822 68.7605 3.08353 66.6046 2.45884 64.3532C1.37886 60.4662 0.521226 56.5156 0.320054 52.4694C0.129469 48.5506 -0.0505263 44.6211 0.0130018 40.7024C0.065942 37.357 0.362405 33.9905 1.36827 30.7832C2.24707 27.9689 3.53881 25.3033 4.97879 22.7332C8.19755 16.9984 12.2845 12.0283 17.6209 8.14132C21.6443 5.21019 25.996 2.91626 30.7183 1.36574C33.0265 0.611714 35.4088 0.186913 37.8228 0.112572C41.031 0.00637192 44.2498 0.0700922 47.4685 0.0488521C51.3543 0.0276121 55.0496 0.898455 58.533 2.59766C64.2082 5.36949 69.2481 9.00154 73.3457 13.8655C75.7386 16.7117 77.9197 19.6853 79.1797 23.243C79.4973 24.1457 79.6667 25.1121 79.9314 26.0361C80.0903 26.6096 80.3126 27.1618 80.7679 27.7247C81.3079 26.6096 81.8902 25.5051 82.3773 24.3581C84.4525 19.4304 87.2583 14.9806 91.0806 11.2211C94.3947 7.96078 98.1852 5.42259 102.431 3.48974C105.364 2.16224 108.424 1.30202 111.537 0.611714C114.607 -0.0679683 117.741 -0.00424801 120.865 0.00637203C125.799 0.0169921 130.51 1.1321 135.106 2.86316C141.84 5.40135 147.504 9.47944 152.131 14.9594C155.901 19.4304 158.812 24.3794 160.136 30.1885C160.94 33.725 161.427 37.2827 161.735 40.8829C162.084 44.9822 162.137 49.0816 161.597 53.1703C161.279 55.5704 161.015 57.9705 160.633 60.36C160.072 63.9284 158.812 67.2949 157.362 70.5765C155.879 73.9218 154.037 77.0866 151.983 80.1239C149.061 84.4463 145.694 88.3969 141.956 91.9971C138.557 95.2787 135 98.4116 131.368 101.449C127.683 104.529 123.946 107.566 120.039 110.349C115.137 113.843 110.372 117.506 105.766 121.372C101.944 124.579 98.164 127.84 94.5111 131.238C90.4136 135.051 86.4748 139.033 82.5149 142.995C81.7314 143.78 81.202 144.811 80.3655 146H80.3867Z" fill="#FC0B36"/>
</svg>
