<svg width="240" height="161" viewBox="0 0 240 161" fill="none" xmlns="http://www.w3.org/2000/svg">
<path d="M50.6468 155.763C51.0345 155.803 51.4223 155.878 51.8101 155.871C63.4563 155.81 75.1025 155.743 86.7487 155.669C93.1468 155.628 99.5448 155.568 105.943 155.5C106.27 155.5 106.591 155.339 106.919 155.251C106.759 155.002 106.611 154.746 106.438 154.503C104.138 151.283 103.449 147.544 104.833 144.02C109.587 131.934 124.803 126.053 136.529 134.831C136.877 135.087 137.218 135.35 137.666 135.687C137.666 135.175 137.693 134.865 137.666 134.568C136.964 127.717 136.101 120.899 133.828 114.357C132.999 111.965 132.077 109.601 131.201 107.229C131.067 107.485 130.9 107.728 130.793 107.997C130.586 108.516 130.506 109.129 130.191 109.567C128.199 112.356 125.344 113.656 122.048 113.96C120.791 114.074 119.481 113.852 118.218 113.663C116.994 113.481 115.71 113.313 114.594 112.828C111.813 111.622 109.179 110.079 106.906 108.065C104.9 106.286 102.734 104.79 100.414 103.517C99.5047 103.019 98.5219 102.399 97.5993 102.628V106.65C99.839 109.055 99.1437 112.43 97.7798 115.287C94.9987 114.903 93.2136 116.196 92.8058 119.026C92.6855 119.875 92.8526 120.784 93.0131 121.64C93.1067 122.125 93.12 122.455 92.6855 122.731C91.6626 123.378 90.6664 124.072 89.6101 124.658C89.2023 124.887 89.0084 125.076 89.0686 125.554C89.2625 126.969 89.5767 128.343 90.5194 129.455C92.9663 132.352 96.1285 133.699 99.8657 133.477C102.6 133.315 103.463 131.921 102.72 129.293C102.714 129.266 102.687 129.233 102.7 129.206C102.801 128.828 102.908 128.451 103.015 128.074C103.389 128.188 103.884 128.188 104.118 128.438C105.528 129.933 105.441 132.493 103.83 133.767C103.048 134.386 102.039 134.919 101.069 135.04C96.6968 135.599 92.5852 134.979 89.209 131.752C89.1154 131.665 88.9683 131.624 88.9349 131.611C88.3733 132.668 87.9722 133.753 87.3103 134.636C84.9236 137.822 81.7279 139.682 77.7767 140.072C74.3203 140.416 71.4723 138.597 70.5697 135.599C70.2555 134.555 70.4293 133.841 71.0845 133.733C72.0673 133.571 72.1876 134.353 72.3815 135.033C72.9163 136.906 74.1999 138.018 76.1321 138.085C80.3239 138.233 83.5062 136.381 85.7258 132.864C86.1604 132.17 86.4479 131.267 86.4813 130.452C86.5415 129.057 86.3543 127.649 86.274 126.248C86.2473 125.716 85.9197 125.615 85.4584 125.48C84.3352 125.15 83.2388 124.698 82.1424 124.274C81.554 124.045 81.3936 123.688 81.5473 122.994C82.2627 119.78 79.4147 114.876 75.2295 116.163C74.3938 114.849 74.0729 113.374 73.8924 111.844C73.6049 111.709 73.2707 111.622 73.03 111.42C71.5926 110.254 70.1151 109.122 68.33 108.617C67.5813 108.402 66.6319 108.489 65.8898 108.759C63.8173 109.527 62.8145 111.339 61.9119 113.232C61.1832 114.755 60.4946 116.345 59.4784 117.665C57.4326 120.326 54.4709 121.532 51.2619 122.037C49.6373 122.293 47.9726 122.347 46.3279 122.388C45.4722 122.415 44.6097 122.132 43.754 122.145C38.2184 122.233 32.6426 121.505 27.1672 122.853C25.9705 123.149 24.7336 123.519 23.6974 124.153C22.2934 125.022 21.0633 126.181 19.7596 127.211C19.6192 130.216 19.4855 133.228 19.3317 136.502C19.9 136.104 20.1942 135.889 20.4883 135.693C26.9265 131.402 33.8594 130.061 41.2402 132.567C47.05 134.541 51.0546 138.476 52.3516 144.728C53.1472 148.588 52.3382 152.246 50.6802 155.756L50.6468 155.763Z" fill="white"/>
<path d="M50.6468 155.763C52.3048 152.253 53.1204 148.595 52.3182 144.734C51.0212 138.483 47.0232 134.555 41.2068 132.574C33.8327 130.068 26.8931 131.409 20.4549 135.7C20.154 135.902 19.8666 136.111 19.2983 136.509C19.4454 133.234 19.5858 130.23 19.7262 127.218C20.2008 123.708 20.4749 120.158 21.1903 116.695C23.1692 107.074 26.7861 98.1141 32.3685 90.0162C38.9137 80.5169 47.2973 73.2544 58.0276 68.9494C67.4676 65.1632 77.2018 64.5164 87.0964 66.7329C95.821 68.6867 103.516 72.7828 110.422 78.4487C115.517 82.6324 119.876 87.4898 123.579 92.9603C126.615 97.4404 129.209 102.163 131.187 107.223C132.063 109.601 132.986 111.959 133.815 114.35C136.095 120.892 136.957 127.71 137.652 134.562C137.686 134.865 137.652 135.168 137.652 135.68C137.204 135.343 136.864 135.08 136.516 134.824C124.796 126.053 109.573 131.934 104.82 144.014C103.436 147.537 104.124 151.276 106.424 154.496C106.598 154.739 106.745 154.995 106.906 155.244C107.16 155.46 107.434 155.655 107.668 155.891C109.673 157.892 112.16 158.431 114.861 158.269C115.263 158.242 115.65 158.013 116.152 157.845C117.536 159.044 119.154 160.014 121.126 160.223C123.098 160.432 124.93 160.129 126.508 158.748C126.915 158.956 127.31 159.179 127.718 159.374C131.248 161.004 135.192 159.792 137.225 156.457C137.492 156.019 137.726 155.554 137.973 155.103C138.047 154.806 138.174 154.517 138.181 154.22C138.227 152.886 138.321 151.552 138.234 150.225C138.194 149.538 137.639 149.066 136.87 149.188C136.155 149.302 135.894 149.848 135.881 150.528C135.867 151.168 135.921 151.815 135.867 152.455C135.62 155.568 133.14 157.771 130.185 157.542C128.065 157.373 125.959 155.5 125.311 153.156C124.916 151.734 124.963 150.313 125.378 148.898C125.545 148.325 125.532 147.746 124.876 147.51C124.221 147.281 123.847 147.746 123.613 148.278C123.011 149.653 122.797 151.088 122.998 152.583C123.238 154.308 123.9 155.857 124.983 157.238C120.136 159.509 115.309 155.628 115.764 151.114C115.824 150.535 115.878 149.935 115.771 149.376C115.71 149.053 115.356 148.588 115.095 148.561C114.768 148.521 114.347 148.81 114.059 149.066C113.885 149.221 113.845 149.565 113.798 149.828C113.437 152.037 113.491 154.187 114.821 156.275C114.5 156.208 114.36 156.174 114.213 156.147C114.032 156.12 113.852 156.086 113.671 156.073C110.65 155.911 108.63 154.234 107.367 151.62C105.903 148.588 105.535 145.529 107.775 142.633C108.63 141.521 109.426 140.355 110.362 139.318C116.753 132.197 127.263 130.95 134.818 136.488C139.685 140.059 142.152 145.098 142.974 151.013C143.155 152.307 143.228 153.614 143.348 154.921C144.712 155.675 145.521 155.217 145.535 153.675C145.575 147.988 143.95 142.889 140.34 138.462C140.133 138.206 139.966 137.809 139.972 137.485C140.113 131.766 139.437 126.127 138.261 120.542C138.187 120.185 138.12 119.828 138.04 119.417C138.969 119.026 139.872 118.601 140.801 118.265C144.204 117.012 147.554 115.624 150.482 113.448C151.612 112.605 152.628 111.561 153.531 110.47C154.246 109.608 154.112 109.015 153.343 108.193C152.842 107.66 152.32 107.122 151.719 106.731C145.688 102.783 140.788 97.6425 136.188 92.1383C132.678 87.9479 128.854 84.0674 124.469 80.7662C121.6 78.6036 118.532 76.8183 115.216 75.518C113.772 74.9521 112.147 74.8645 110.636 74.4401C109.787 74.2043 108.938 73.827 108.196 73.3487C107.033 72.5874 106.016 71.5903 104.84 70.8627C101.203 68.6193 97.3453 66.8407 93.2938 65.4731C81.3936 61.4443 69.5669 61.6128 57.7803 65.9514C51.9371 68.1006 46.709 71.3141 41.8419 75.1812C41.2135 75.6797 40.4046 75.9425 39.6892 76.3265C30.7306 81.1098 22.1396 86.4657 14.4847 93.2095C10.8545 96.4096 7.35793 99.7647 3.89482 103.147C2.64462 104.373 1.62843 105.855 0.578796 107.283C-0.216782 108.375 -0.190033 108.9 0.64566 109.911C4.83749 114.977 10.0656 118.413 16.4703 119.929C16.818 120.01 17.1723 120.084 17.5734 120.164C17.3662 122.037 17.1456 123.856 16.965 125.675C16.8447 126.895 16.7712 128.114 16.6843 129.334C16.4436 132.655 16.2163 135.976 15.9422 139.291C15.9087 139.709 15.6547 140.153 15.4006 140.504C12.566 144.377 11.2556 148.642 12.1381 153.452C12.3119 154.409 12.2985 155.635 13.7493 155.729C13.8964 155.204 14.2307 154.651 14.1504 154.16C13.4752 149.76 14.6051 145.839 17.2124 142.329C20.475 137.95 24.9142 135.505 30.2024 134.575C35.1096 133.713 39.7761 134.366 44.0147 137.135C49.664 140.834 51.5761 147.726 48.728 153.83C47.8389 155.736 44.5563 157.036 42.5172 156.255C42.6375 155.979 42.7645 155.702 42.8715 155.426C43.6938 153.371 43.6604 151.303 42.925 149.242C42.7311 148.709 42.3367 148.157 41.7216 148.426C41.4074 148.561 41.16 149.167 41.1199 149.585C41.0263 150.495 41.14 151.424 41.0597 152.334C40.6987 156.457 36.5136 158.748 33.124 156.726C32.5223 156.369 32.4421 156.086 32.783 155.433C33.9931 153.136 34.1536 150.757 32.9569 148.393C32.7028 147.894 32.3017 147.429 31.8671 147.079C31.6465 146.897 31.1384 146.87 30.8776 147.005C30.6771 147.106 30.5768 147.578 30.5902 147.874C30.6102 148.292 30.8242 148.696 30.891 149.114C31.0247 150.016 31.232 150.926 31.2052 151.829C31.1384 154.106 29.4403 156.14 27.3477 156.619C25.1481 157.117 22.7881 156.073 21.7987 153.917C21.3508 152.933 21.1903 151.754 21.1435 150.656C21.0967 149.45 20.836 148.763 20.007 148.696C19.1846 148.629 18.6498 149.242 18.5161 150.421C18.4827 150.69 18.476 150.973 18.4693 151.242C18.4158 152.981 19.0041 154.537 19.8131 156.026C20.2477 156.491 20.6488 156.989 21.1168 157.427C23.5503 159.697 27.0535 160.075 29.9751 158.397C30.3428 158.188 30.6035 157.959 31.0782 158.35C33.5251 160.398 37.1821 160.567 40.0235 158.869C40.3644 158.667 40.8859 158.525 41.2469 158.626C45.0109 159.718 48.0929 158.66 50.6334 155.75L50.6468 155.763ZM144.425 114.728C142.854 115.408 141.289 116.109 139.705 116.749C139.397 116.87 138.99 116.749 138.628 116.735H137.519C136.302 113.131 135.099 109.587 133.855 105.902C140.293 105.175 146.277 106.461 152 109.378C151.144 111.036 147.106 113.845 144.432 114.728H144.425ZM34.5413 81.8239L34.762 82.0058C34.6817 82.1675 34.6216 82.3494 34.5146 82.4909C32.5758 85.1049 30.5166 87.6447 28.7048 90.353C25.7833 94.7321 23.5169 99.4682 21.7252 104.427C21.4845 105.094 21.2171 105.363 20.4282 105.262C19.1713 105.1 17.881 105.026 16.6241 105.141C12.0846 105.572 7.75237 106.798 3.64076 108.806C3.46025 108.893 3.19952 108.819 2.9789 108.819C3.01901 108.583 2.9789 108.287 3.11259 108.112C3.65413 107.371 4.19566 106.63 4.81073 105.963C11.6835 98.5183 19.4186 92.0979 27.7154 86.3512C29.9617 84.8017 32.2549 83.333 34.5346 81.8239H34.5413ZM114.701 77.8086C116.6 77.9838 118.398 78.9809 120.156 80.0858C125.251 83.2859 129.556 87.3887 133.554 91.8621C136.696 95.3789 139.892 98.8552 143.114 102.298C143.95 103.194 144.973 103.915 146.069 104.865C145.595 104.743 145.334 104.683 145.073 104.609C141.343 103.632 137.559 103.194 133.708 103.578C133.039 103.645 132.765 103.537 132.484 102.918C128.921 95.1026 124.261 88.0287 118.371 81.7902C117.101 80.4428 115.864 79.0617 114.701 77.7952V77.8086ZM17.9077 117.901C12.8133 116.776 8.3942 114.472 4.61018 110.51C9.89175 108.402 15.0129 106.69 20.6154 107.135C19.6994 110.786 18.8169 114.27 17.9077 117.901Z" fill="#090707"/>
<path d="M67.8754 51.9384C74.0328 51.7632 78.5522 51.6891 83.0716 51.487C86.0868 51.3522 89.102 51.0828 92.1038 50.7661C94.7713 50.4832 97.4389 50.153 100.066 49.6612C102.767 49.156 105.495 48.6507 107.928 47.2292C109.433 46.3533 110.482 45.2148 110.335 43.3284C110.202 41.6239 109.092 40.5864 107.701 39.9262C105.762 39.0167 103.683 38.5451 101.544 38.3497C98.2345 38.0466 94.9318 37.6626 91.6225 37.3661C90.4792 37.2651 89.3159 37.2988 88.1593 37.2988C84.1814 37.2988 80.2036 37.2516 76.2257 37.319C73.1971 37.3729 70.1686 37.5211 67.14 37.7165C64.5795 37.8849 62.0122 38.1005 59.4717 38.4575C57.2187 38.7742 54.979 39.2525 52.7661 39.7847C50.4529 40.3439 48.1531 40.9907 45.8934 41.725C44.7702 42.0888 43.6938 42.6682 42.691 43.3082C41.521 44.0493 41.3606 46.3264 42.2899 47.4313C43.3662 48.7181 44.8437 49.3042 46.3814 49.7017C49.8044 50.591 53.2809 51.103 56.8242 51.2579C61.0562 51.4398 65.2814 51.7699 67.8754 51.9384ZM98.6757 43.8943L98.6356 44.2244C82.7307 46.9058 66.7456 47.0068 50.7069 45.6123C50.7872 45.4304 50.8741 45.3697 50.9744 45.3495C53.5751 44.8645 56.1624 44.2986 58.7831 43.9347C61.4105 43.5709 64.0647 43.3823 66.7121 43.1937C69.2526 43.0118 71.7931 42.8703 74.3403 42.8231C82.0421 42.6951 89.7438 42.6008 97.4121 43.5036C97.84 43.5575 98.2545 43.7528 98.6757 43.8809V43.8943Z" fill="#FDE846"/>
<path d="M143.362 154.907C143.242 153.607 143.168 152.293 142.987 151C142.165 145.085 139.698 140.045 134.831 136.475C127.276 130.93 116.767 132.183 110.375 139.304C109.439 140.342 108.651 141.514 107.788 142.619C105.548 145.516 105.916 148.575 107.38 151.606C108.644 154.22 110.663 155.898 113.685 156.059C113.865 156.066 114.046 156.1 114.226 156.134C114.373 156.161 114.514 156.194 114.835 156.262C113.504 154.173 113.451 152.024 113.812 149.814C113.859 149.545 113.899 149.201 114.073 149.053C114.367 148.804 114.781 148.514 115.109 148.548C115.376 148.581 115.731 149.046 115.784 149.363C115.884 149.922 115.837 150.522 115.777 151.101C115.323 155.615 120.156 159.495 124.997 157.225C123.914 155.851 123.252 154.301 123.011 152.57C122.804 151.074 123.024 149.639 123.626 148.265C123.86 147.732 124.235 147.268 124.89 147.497C125.545 147.726 125.552 148.312 125.391 148.885C124.977 150.299 124.93 151.721 125.324 153.142C125.973 155.487 128.079 157.36 130.198 157.528C133.153 157.764 135.633 155.554 135.881 152.442C135.934 151.802 135.881 151.155 135.894 150.515C135.907 149.834 136.168 149.289 136.884 149.174C137.652 149.053 138.201 149.525 138.247 150.212C138.328 151.539 138.241 152.873 138.194 154.207C138.181 154.503 138.06 154.8 137.987 155.089C139.625 155.089 141.256 155.11 142.894 155.096C143.054 155.096 143.208 154.968 143.369 154.901L143.362 154.907Z" fill="white"/>
<path d="M19.8398 156.033C19.0309 154.544 18.4425 152.987 18.496 151.249C18.5027 150.973 18.5094 150.697 18.5428 150.427C18.6765 149.248 19.2114 148.635 20.0337 148.703C20.8627 148.77 21.1234 149.457 21.1702 150.663C21.217 151.761 21.3708 152.94 21.8254 153.924C22.8149 156.073 25.1682 157.124 27.3744 156.625C29.467 156.147 31.1651 154.119 31.232 151.835C31.2587 150.933 31.0515 150.023 30.9178 149.12C30.8576 148.703 30.6437 148.298 30.6169 147.881C30.6035 147.584 30.7038 147.113 30.9044 147.012C31.1651 146.877 31.6732 146.904 31.8939 147.086C32.3284 147.443 32.7296 147.901 32.9836 148.399C34.1803 150.764 34.0199 153.142 32.8098 155.44C32.4688 156.086 32.5557 156.376 33.1507 156.733C36.5403 158.754 40.7255 156.464 41.0865 152.341C41.1667 151.431 41.053 150.501 41.1466 149.592C41.1934 149.174 41.4341 148.568 41.7483 148.433C42.3634 148.164 42.7645 148.716 42.9517 149.248C43.6872 151.31 43.7206 153.378 42.8983 155.433C42.7846 155.709 42.6643 155.985 42.5439 156.262C44.583 157.05 47.8656 155.75 48.7548 153.836C51.6095 147.726 49.6908 140.834 44.0415 137.142C39.8028 134.373 35.143 133.719 30.2292 134.582C24.9342 135.511 20.495 137.957 17.2391 142.336C14.6318 145.846 13.5019 149.76 14.1772 154.166C14.2507 154.658 13.9164 155.211 13.776 155.736C14.0234 155.851 14.2641 156.066 14.5114 156.066C16.2898 156.086 18.0681 156.059 19.8465 156.046L19.8398 156.033Z" fill="white"/>
<path d="M131.187 107.223C129.209 102.163 126.615 97.4471 123.579 92.9603C119.876 87.4965 115.523 82.6324 110.422 78.4487C103.516 72.7828 95.821 68.6867 87.0964 66.7329C77.1951 64.5164 67.4676 65.1632 58.0276 68.9494C47.2973 73.2544 38.9137 80.5169 32.3685 90.0162C26.7861 98.1141 23.1692 107.081 21.1903 116.695C20.4816 120.158 20.2008 123.708 19.7262 127.218C21.0298 126.187 22.26 125.029 23.664 124.16C24.7002 123.52 25.937 123.149 27.1338 122.859C32.6092 121.512 38.185 122.233 43.7206 122.152C44.5763 122.138 45.4388 122.421 46.2945 122.394C47.9458 122.347 49.6038 122.3 51.2284 122.044C54.4442 121.532 57.3992 120.333 59.445 117.672C60.4612 116.351 61.1498 114.761 61.8785 113.239C62.7877 111.339 63.7839 109.527 65.8564 108.765C66.5985 108.489 67.5478 108.408 68.2966 108.624C70.0816 109.129 71.5592 110.261 72.9965 111.427C73.2372 111.622 73.5715 111.709 73.859 111.851C74.0997 108.786 75.8178 106.798 78.4921 105.599C81.8616 104.09 85.4183 103.369 89.1087 103.605C92.2041 103.8 95.1524 104.528 97.5793 106.657V102.635C98.5086 102.406 99.4913 103.025 100.394 103.524C102.714 104.797 104.88 106.293 106.886 108.071C109.159 110.086 111.793 111.622 114.574 112.835C115.697 113.32 116.974 113.488 118.197 113.67C119.461 113.859 120.771 114.088 122.028 113.966C125.324 113.663 128.172 112.363 130.171 109.574C130.486 109.136 130.559 108.523 130.773 108.004C130.88 107.735 131.04 107.492 131.181 107.236L131.187 107.223ZM64.6731 95.069L64.7533 95.3115C63.8775 95.6618 63.0217 96.2008 62.1125 96.3288C60.3074 96.5848 58.4555 96.8071 56.6437 96.6859C55.1662 96.5848 53.6419 96.1401 52.2848 95.5271C51.3822 95.1161 50.4596 94.3548 50.5599 93.0074C50.6668 91.5185 51.8235 90.9257 52.7929 90.1644C53.3478 89.7332 53.8759 89.8073 54.5244 90.124C57.8872 91.8015 61.2835 93.4184 64.6664 95.0555L64.6731 95.069ZM95.6538 91.5859C94.9585 91.5859 94.2566 91.6129 93.5613 91.5724C93.334 91.559 93.12 91.3703 92.8994 91.2693C93.0398 91.0604 93.1401 90.7775 93.334 90.6495C94.3502 89.9892 95.3931 89.3627 96.4294 88.7294C98.5353 87.4426 100.628 86.1424 102.747 84.8893C103.289 84.5659 104.017 84.0337 104.465 84.1819C106.177 84.7613 106.484 86.8498 105.462 87.9007C104.492 88.8911 103.483 89.7197 102.152 90.2452C100.046 91.0806 97.9403 91.7072 95.6605 91.5926L95.6538 91.5859ZM48.1932 101.146L48.1665 100.863C48.8952 100.587 49.6038 100.243 50.3526 100.041C53.3076 99.2325 56.3094 99.4076 59.2979 99.7782C61.5442 100.054 63.7438 100.775 66.057 100.23C66.3578 100.155 66.9796 100.614 67.1133 100.957C67.2269 101.247 66.9595 101.833 66.6787 102.102C66.3779 102.392 65.8831 102.52 65.4486 102.635C63.7237 103.1 62.0122 102.79 60.3141 102.446C56.5635 101.691 52.833 100.849 48.962 101.26C48.708 101.287 48.4473 101.193 48.1865 101.159L48.1932 101.146ZM107.715 93.2567C102.854 94.2336 98.5019 96.2479 94.758 99.5289C94.1095 100.095 93.3005 100.048 92.9061 99.5019C92.5317 98.9832 92.7256 98.1815 93.4677 97.6964C95.7942 96.1671 98.0473 94.4828 100.748 93.6272C103.035 92.8996 105.348 92.5358 107.721 93.2634L107.715 93.2567Z" fill="#FAA329"/>
<path d="M97.5926 106.643C95.1591 104.514 92.2175 103.787 89.1221 103.591C85.4316 103.356 81.8816 104.07 78.5054 105.585C75.8312 106.785 74.113 108.779 73.8724 111.837C74.0529 113.36 74.3738 114.842 75.2095 116.156C79.3879 114.862 82.2426 119.774 81.5273 122.987C81.3735 123.681 81.5273 124.045 82.1223 124.267C83.2187 124.692 84.3152 125.143 85.4383 125.473C85.8996 125.608 86.2272 125.716 86.254 126.241C86.3342 127.643 86.5214 129.051 86.4612 130.445C86.4211 131.267 86.1403 132.163 85.7057 132.857C83.4862 136.381 80.3038 138.226 76.112 138.078C74.1866 138.011 72.8963 136.899 72.3614 135.026C72.1675 134.339 72.0472 133.558 71.0644 133.726C70.4092 133.834 70.2354 134.548 70.5496 135.592C71.4589 138.59 74.3069 140.409 77.7567 140.066C81.7078 139.668 84.9102 137.816 87.2902 134.629C87.9521 133.746 88.3599 132.662 88.9148 131.604C88.9482 131.617 89.0953 131.658 89.1889 131.745C92.5584 134.966 96.67 135.592 101.049 135.033C102.012 134.912 103.028 134.373 103.81 133.76C105.421 132.487 105.508 129.926 104.098 128.431C103.864 128.182 103.369 128.182 102.995 128.067C102.888 128.444 102.787 128.822 102.68 129.199C102.674 129.226 102.694 129.259 102.7 129.286C103.449 131.914 102.58 133.308 99.8457 133.47C96.1085 133.692 92.9462 132.345 90.4993 129.448C89.5633 128.337 89.2424 126.962 89.0485 125.547C88.9817 125.069 89.1755 124.88 89.59 124.651C90.6464 124.065 91.6425 123.371 92.6654 122.725C93.1 122.448 93.0866 122.118 92.993 121.633C92.8325 120.778 92.6654 119.868 92.7857 119.019C93.1869 116.19 94.9786 114.896 97.7598 115.28C99.1236 112.417 99.8189 109.048 97.5793 106.643H97.5926Z" fill="#030303"/>
<path d="M34.5413 81.8172C32.2682 83.3263 29.9684 84.795 27.7221 86.3445C19.4187 92.0844 11.6835 98.5116 4.81743 105.956C4.20236 106.623 3.65414 107.371 3.11929 108.105C2.99226 108.28 3.02571 108.57 2.9856 108.813C3.20622 108.813 3.46695 108.887 3.64746 108.799C7.75906 106.791 12.0913 105.559 16.6308 105.134C17.8876 105.013 19.1779 105.094 20.4348 105.255C21.2237 105.356 21.4911 105.087 21.7318 104.42C23.5302 99.4615 25.79 94.7254 28.7115 90.3463C30.5166 87.638 32.5758 85.1049 34.5213 82.4841C34.6282 82.3427 34.6884 82.1608 34.7686 81.9991L34.548 81.8172H34.5413Z" fill="#FAA329"/>
<path d="M114.701 77.8019C115.864 79.0685 117.094 80.4496 118.371 81.797C124.261 88.0355 128.921 95.1094 132.484 102.924C132.765 103.544 133.039 103.652 133.708 103.585C137.552 103.194 141.336 103.632 145.073 104.615C145.334 104.683 145.595 104.75 146.069 104.871C144.966 103.928 143.95 103.201 143.114 102.305C139.892 98.8552 136.696 95.3856 133.554 91.8689C129.556 87.3955 125.251 83.2926 120.156 80.0925C118.405 78.9876 116.6 77.9905 114.701 77.8154V77.8019Z" fill="#FAA329"/>
<path d="M144.432 114.728C147.106 113.845 151.144 111.036 152 109.378C146.277 106.461 140.293 105.175 133.855 105.902C135.099 109.581 136.302 113.124 137.519 116.735H138.628C138.776 116.533 138.876 116.217 139.063 116.156C140.714 115.59 142.379 115.065 144.044 114.546C144.144 114.512 144.298 114.667 144.425 114.734L144.432 114.728Z" fill="white"/>
<path d="M17.9144 117.894C18.8303 114.27 19.7061 110.78 20.622 107.128C15.0195 106.684 9.89174 108.395 4.61685 110.504C8.40755 114.465 12.82 116.762 17.9144 117.894Z" fill="white"/>
<path d="M64.6797 95.069C61.2969 93.4319 57.9006 91.815 54.5378 90.1374C53.896 89.8141 53.3611 89.74 52.8062 90.1779C51.8368 90.9391 50.6802 91.532 50.5733 93.0209C50.473 94.3683 51.3956 95.1296 52.2981 95.5405C53.6553 96.1536 55.1796 96.605 56.6571 96.6993C58.4689 96.8206 60.3141 96.5983 62.1259 96.3423C63.0351 96.2143 63.8908 95.6753 64.7666 95.325L64.6864 95.0824L64.6797 95.069Z" fill="white"/>
<path d="M95.6538 91.5859C97.9336 91.7004 100.04 91.0739 102.146 90.2385C103.476 89.713 104.485 88.8843 105.455 87.894C106.484 86.843 106.17 84.7545 104.459 84.1751C104.011 84.0202 103.282 84.5592 102.741 84.8825C100.621 86.1424 98.5286 87.4359 96.4227 88.7227C95.3864 89.3559 94.3502 89.9825 93.3273 90.6427C93.1334 90.7707 93.0331 91.047 92.8927 91.2625C93.1133 91.3703 93.3273 91.5522 93.5546 91.5657C94.2499 91.6061 94.9519 91.5792 95.6472 91.5792L95.6538 91.5859Z" fill="white"/>
<path d="M48.1932 101.146C48.4539 101.186 48.7147 101.274 48.9687 101.247C52.8397 100.836 56.5769 101.678 60.3208 102.433C62.0189 102.776 63.7304 103.086 65.4553 102.621C65.8898 102.507 66.3846 102.379 66.6854 102.089C66.9662 101.819 67.2403 101.227 67.12 100.944C66.9796 100.6 66.3645 100.149 66.0636 100.216C63.7504 100.762 61.5509 100.041 59.3046 99.7647C56.3161 99.3941 53.3143 99.2257 50.3593 100.027C49.6105 100.23 48.9019 100.573 48.1731 100.849L48.1999 101.132L48.1932 101.146Z" fill="#090707"/>
<path d="M107.715 93.2567C105.334 92.5291 103.028 92.8929 100.742 93.6205C98.0406 94.4761 95.7876 96.1604 93.461 97.6897C92.7189 98.1815 92.5317 98.9765 92.8994 99.4952C93.2938 100.048 94.1028 100.095 94.7513 99.5221C98.5019 96.2412 102.847 94.2268 107.708 93.25L107.715 93.2567Z" fill="#090707"/>
<mask id="path-2-inside-1_979_2270" fill="white">
<path d="M149.152 97.301C152.635 95.3556 155.916 93.6384 159.081 91.7266C162.223 89.8292 165.201 87.6581 168.349 85.7703C169.536 85.0594 170.972 84.4926 172.334 84.3941C178.269 83.9666 184.232 83.9042 190.159 83.395C202.937 82.2974 214.371 77.8374 223.985 69.1648C226.891 66.5421 229.115 63.4607 229.737 59.4667C230.439 54.961 228.77 51.1543 226.147 47.6622C222.691 43.0653 218.055 39.8782 213.199 36.9793C199.613 28.8663 184.926 25.1316 169.111 26.1331C156.346 26.9401 144.959 31.2008 135.523 40.0775C130.986 44.3454 128.358 49.6556 127.462 55.7608C126.836 60.0479 128.507 63.7657 131.094 67.0873C135.258 72.4408 140.583 76.1538 147.056 78.2073C148.454 78.6516 148.869 79.1824 148.9 80.7675C148.999 85.7223 149.071 90.677 149.152 95.6318C149.16 96.0689 149.152 96.506 149.152 97.2962V97.301ZM195.398 55.0475C196.063 52.5641 196.671 50.2104 197.331 47.8735C197.583 46.9825 197.734 45.736 199.039 46.0002C200.227 46.2404 200.124 47.4412 200.091 48.3803C200.023 50.256 199.944 52.1342 199.73 53.9979C199.579 55.3117 199.706 56.1787 201.287 56.378C201.707 56.4309 202.389 57.2955 202.315 57.6582C202.211 58.1601 201.524 58.5564 201.051 58.9551C200.924 59.0608 200.662 59.0463 200.468 59.0247C199.346 58.8974 199.111 59.4955 199.007 60.4946C198.782 62.673 198.489 64.8513 198.049 66.9937C197.807 68.1753 196.572 68.9871 195.71 68.8598C194.79 68.7229 193.822 67.7046 193.76 66.5565C193.7 65.4493 193.793 64.3277 193.913 63.2205C194.077 61.7315 194.331 60.252 194.564 58.6429C192.119 58.4675 189.838 58.3018 187.522 58.1361C187.417 58.8278 187.337 59.3394 187.263 59.8509C186.951 61.9813 186.694 64.1236 186.309 66.2395C186.105 67.3683 185.279 67.8967 184.119 67.8439C182.976 67.791 182.337 67.1329 182.239 66.0522C182.133 64.909 182.003 63.7249 182.176 62.6033C182.877 58.0688 183.66 53.544 184.479 49.0288C184.705 47.7847 185.051 46.5358 185.551 45.3782C185.752 44.9122 186.672 44.307 186.98 44.4367C187.479 44.6504 187.775 45.3974 188.092 45.957C188.19 46.1323 188.082 46.4253 188.072 46.6655C187.988 48.8198 187.873 50.9742 187.854 53.1309C187.851 53.4599 188.252 54.0364 188.536 54.0844C190.772 54.4567 193.027 54.7281 195.4 55.0499L195.398 55.0475ZM161.781 55.4726C162.211 49.8117 163.2 44.2854 164.893 38.8839C165.191 37.9304 165.782 37.4621 166.767 37.647C167.718 37.8247 167.874 38.5404 167.811 39.3834C167.473 43.9251 167.153 48.4692 166.815 53.0108C166.707 54.4447 166.584 55.8785 166.416 57.3075C166.267 58.5804 165.503 59.3129 164.336 59.3994C163.162 59.4883 162.436 58.9887 162.093 57.7062C161.901 56.9857 161.879 56.2195 161.781 55.4726ZM178.381 51.4569C178.069 55.0331 177.776 58.614 177.433 62.1878C177.284 63.7393 176.03 64.6928 174.62 64.431C173.309 64.1884 172.644 63.0164 173.014 61.4673C173.842 57.9752 174.707 54.4927 175.552 51.0054C175.764 50.1384 176.047 49.3338 177.185 49.5499C178.235 49.7517 178.449 50.5226 178.384 51.4569H178.381ZM175.819 39.5372C177.111 39.4891 178.283 40.4762 178.288 41.6122C178.293 42.7531 176.926 44.1749 175.754 44.2541C174.491 44.3382 173.206 43.183 173.184 41.9461C173.162 40.714 174.392 39.5924 175.819 39.5396V39.5372ZM162.633 62.2887C163.904 62.2911 164.965 63.2157 164.982 64.3349C165.001 65.5454 163.599 66.9576 162.362 66.9744C161.087 66.9912 159.934 65.9201 159.919 64.7024C159.903 63.3791 161.135 62.2839 162.633 62.2863V62.2887Z"/>
<path d="M195.398 55.0475C193.022 54.7281 190.769 54.4567 188.533 54.082C188.25 54.034 187.849 53.4575 187.851 53.1285C187.871 50.9742 187.986 48.8174 188.07 46.6631C188.08 46.4229 188.19 46.1299 188.089 45.9546C187.772 45.395 187.479 44.648 186.977 44.4343C186.67 44.3046 185.75 44.9098 185.548 45.3757C185.049 46.5334 184.703 47.7823 184.477 49.0264C183.658 53.5416 182.875 58.064 182.174 62.6009C182.001 63.7225 182.13 64.9042 182.236 66.0498C182.335 67.1305 182.973 67.7886 184.117 67.8415C185.277 67.8967 186.103 67.3659 186.307 66.2371C186.691 64.1188 186.948 61.9789 187.261 59.8485C187.335 59.337 187.414 58.8254 187.52 58.1337C189.835 58.2994 192.117 58.4651 194.562 58.6405C194.329 60.2496 194.074 61.7291 193.911 63.2181C193.791 64.3229 193.697 65.4469 193.757 66.5541C193.82 67.7022 194.788 68.7205 195.707 68.8574C196.57 68.9847 197.804 68.1729 198.047 66.9912C198.484 64.8489 198.779 62.6681 199.005 60.4922C199.108 59.4931 199.344 58.895 200.465 59.0223C200.66 59.0439 200.922 59.0584 201.049 58.9527C201.522 58.554 202.209 58.1553 202.312 57.6558C202.387 57.2931 201.705 56.4309 201.284 56.3756C199.704 56.1763 199.577 55.3093 199.728 53.9955C199.942 52.1342 200.019 50.2536 200.088 48.3779C200.122 47.4388 200.225 46.238 199.036 45.9978C197.732 45.7336 197.581 46.9801 197.329 47.8711C196.668 50.208 196.06 52.5617 195.395 55.0451L195.398 55.0475Z"/>
<path d="M161.781 55.4726C161.879 56.2195 161.898 56.9857 162.093 57.7062C162.436 58.9887 163.162 59.4883 164.336 59.3994C165.503 59.3129 166.267 58.5804 166.416 57.3075C166.582 55.8785 166.707 54.4447 166.815 53.0108C167.156 48.4692 167.475 43.9251 167.811 39.3834C167.874 38.5404 167.718 37.8247 166.767 37.647C165.784 37.4621 165.194 37.9328 164.893 38.8839C163.2 44.2854 162.211 49.8117 161.781 55.4726Z"/>
<path d="M178.381 51.4569C178.446 50.5226 178.232 49.7517 177.183 49.5499C176.045 49.3314 175.761 50.136 175.55 51.0054C174.704 54.4927 173.842 57.9752 173.011 61.4673C172.644 63.0164 173.307 64.1884 174.618 64.431C176.028 64.6928 177.281 63.7393 177.43 62.1878C177.774 58.614 178.067 55.0331 178.379 51.4569H178.381Z"/>
<path d="M175.819 39.5372C174.392 39.59 173.162 40.7116 173.184 41.9437C173.206 43.1806 174.491 44.3358 175.754 44.2517C176.926 44.1749 178.29 42.7507 178.288 41.6098C178.283 40.4738 177.111 39.4891 175.819 39.5348V39.5372Z"/>
<path d="M162.633 62.2887C161.135 62.2839 159.903 63.3815 159.919 64.7048C159.934 65.9201 161.087 66.9912 162.362 66.9768C163.599 66.9624 164.999 65.5502 164.982 64.3373C164.965 63.2181 163.906 62.2935 162.633 62.2911V62.2887Z"/>
</mask>
<path d="M149.152 97.301C152.635 95.3556 155.916 93.6384 159.081 91.7266C162.223 89.8292 165.201 87.6581 168.349 85.7703C169.536 85.0594 170.972 84.4926 172.334 84.3941C178.269 83.9666 184.232 83.9042 190.159 83.395C202.937 82.2974 214.371 77.8374 223.985 69.1648C226.891 66.5421 229.115 63.4607 229.737 59.4667C230.439 54.961 228.77 51.1543 226.147 47.6622C222.691 43.0653 218.055 39.8782 213.199 36.9793C199.613 28.8663 184.926 25.1316 169.111 26.1331C156.346 26.9401 144.959 31.2008 135.523 40.0775C130.986 44.3454 128.358 49.6556 127.462 55.7608C126.836 60.0479 128.507 63.7657 131.094 67.0873C135.258 72.4408 140.583 76.1538 147.056 78.2073C148.454 78.6516 148.869 79.1824 148.9 80.7675C148.999 85.7223 149.071 90.677 149.152 95.6318C149.16 96.0689 149.152 96.506 149.152 97.2962V97.301ZM195.398 55.0475C196.063 52.5641 196.671 50.2104 197.331 47.8735C197.583 46.9825 197.734 45.736 199.039 46.0002C200.227 46.2404 200.124 47.4412 200.091 48.3803C200.023 50.256 199.944 52.1342 199.73 53.9979C199.579 55.3117 199.706 56.1787 201.287 56.378C201.707 56.4309 202.389 57.2955 202.315 57.6582C202.211 58.1601 201.524 58.5564 201.051 58.9551C200.924 59.0608 200.662 59.0463 200.468 59.0247C199.346 58.8974 199.111 59.4955 199.007 60.4946C198.782 62.673 198.489 64.8513 198.049 66.9937C197.807 68.1753 196.572 68.9871 195.71 68.8598C194.79 68.7229 193.822 67.7046 193.76 66.5565C193.7 65.4493 193.793 64.3277 193.913 63.2205C194.077 61.7315 194.331 60.252 194.564 58.6429C192.119 58.4675 189.838 58.3018 187.522 58.1361C187.417 58.8278 187.337 59.3394 187.263 59.8509C186.951 61.9813 186.694 64.1236 186.309 66.2395C186.105 67.3683 185.279 67.8967 184.119 67.8439C182.976 67.791 182.337 67.1329 182.239 66.0522C182.133 64.909 182.003 63.7249 182.176 62.6033C182.877 58.0688 183.66 53.544 184.479 49.0288C184.705 47.7847 185.051 46.5358 185.551 45.3782C185.752 44.9122 186.672 44.307 186.98 44.4367C187.479 44.6504 187.775 45.3974 188.092 45.957C188.19 46.1323 188.082 46.4253 188.072 46.6655C187.988 48.8198 187.873 50.9742 187.854 53.1309C187.851 53.4599 188.252 54.0364 188.536 54.0844C190.772 54.4567 193.027 54.7281 195.4 55.0499L195.398 55.0475ZM161.781 55.4726C162.211 49.8117 163.2 44.2854 164.893 38.8839C165.191 37.9304 165.782 37.4621 166.767 37.647C167.718 37.8247 167.874 38.5404 167.811 39.3834C167.473 43.9251 167.153 48.4692 166.815 53.0108C166.707 54.4447 166.584 55.8785 166.416 57.3075C166.267 58.5804 165.503 59.3129 164.336 59.3994C163.162 59.4883 162.436 58.9887 162.093 57.7062C161.901 56.9857 161.879 56.2195 161.781 55.4726ZM178.381 51.4569C178.069 55.0331 177.776 58.614 177.433 62.1878C177.284 63.7393 176.03 64.6928 174.62 64.431C173.309 64.1884 172.644 63.0164 173.014 61.4673C173.842 57.9752 174.707 54.4927 175.552 51.0054C175.764 50.1384 176.047 49.3338 177.185 49.5499C178.235 49.7517 178.449 50.5226 178.384 51.4569H178.381ZM175.819 39.5372C177.111 39.4891 178.283 40.4762 178.288 41.6122C178.293 42.7531 176.926 44.1749 175.754 44.2541C174.491 44.3382 173.206 43.183 173.184 41.9461C173.162 40.714 174.392 39.5924 175.819 39.5396V39.5372ZM162.633 62.2887C163.904 62.2911 164.965 63.2157 164.982 64.3349C165.001 65.5454 163.599 66.9576 162.362 66.9744C161.087 66.9912 159.934 65.9201 159.919 64.7024C159.903 63.3791 161.135 62.2839 162.633 62.2863V62.2887Z" fill="white"/>
<path d="M195.398 55.0475C193.022 54.7281 190.769 54.4567 188.533 54.082C188.25 54.034 187.849 53.4575 187.851 53.1285C187.871 50.9742 187.986 48.8174 188.07 46.6631C188.08 46.4229 188.19 46.1299 188.089 45.9546C187.772 45.395 187.479 44.648 186.977 44.4343C186.67 44.3046 185.75 44.9098 185.548 45.3757C185.049 46.5334 184.703 47.7823 184.477 49.0264C183.658 53.5416 182.875 58.064 182.174 62.6009C182.001 63.7225 182.13 64.9042 182.236 66.0498C182.335 67.1305 182.973 67.7886 184.117 67.8415C185.277 67.8967 186.103 67.3659 186.307 66.2371C186.691 64.1188 186.948 61.9789 187.261 59.8485C187.335 59.337 187.414 58.8254 187.52 58.1337C189.835 58.2994 192.117 58.4651 194.562 58.6405C194.329 60.2496 194.074 61.7291 193.911 63.2181C193.791 64.3229 193.697 65.4469 193.757 66.5541C193.82 67.7022 194.788 68.7205 195.707 68.8574C196.57 68.9847 197.804 68.1729 198.047 66.9912C198.484 64.8489 198.779 62.6681 199.005 60.4922C199.108 59.4931 199.344 58.895 200.465 59.0223C200.66 59.0439 200.922 59.0584 201.049 58.9527C201.522 58.554 202.209 58.1553 202.312 57.6558C202.387 57.2931 201.705 56.4309 201.284 56.3756C199.704 56.1763 199.577 55.3093 199.728 53.9955C199.942 52.1342 200.019 50.2536 200.088 48.3779C200.122 47.4388 200.225 46.238 199.036 45.9978C197.732 45.7336 197.581 46.9801 197.329 47.8711C196.668 50.208 196.06 52.5617 195.395 55.0451L195.398 55.0475Z" fill="white"/>
<path d="M161.781 55.4726C161.879 56.2195 161.898 56.9857 162.093 57.7062C162.436 58.9887 163.162 59.4883 164.336 59.3994C165.503 59.3129 166.267 58.5804 166.416 57.3075C166.582 55.8785 166.707 54.4447 166.815 53.0108C167.156 48.4692 167.475 43.9251 167.811 39.3834C167.874 38.5404 167.718 37.8247 166.767 37.647C165.784 37.4621 165.194 37.9328 164.893 38.8839C163.2 44.2854 162.211 49.8117 161.781 55.4726Z" fill="white"/>
<path d="M178.381 51.4569C178.446 50.5226 178.232 49.7517 177.183 49.5499C176.045 49.3314 175.761 50.136 175.55 51.0054C174.704 54.4927 173.842 57.9752 173.011 61.4673C172.644 63.0164 173.307 64.1884 174.618 64.431C176.028 64.6928 177.281 63.7393 177.43 62.1878C177.774 58.614 178.067 55.0331 178.379 51.4569H178.381Z" fill="white"/>
<path d="M175.819 39.5372C174.392 39.59 173.162 40.7116 173.184 41.9437C173.206 43.1806 174.491 44.3358 175.754 44.2517C176.926 44.1749 178.29 42.7507 178.288 41.6098C178.283 40.4738 177.111 39.4891 175.819 39.5348V39.5372Z" fill="white"/>
<path d="M162.633 62.2887C161.135 62.2839 159.903 63.3815 159.919 64.7048C159.934 65.9201 161.087 66.9912 162.362 66.9768C163.599 66.9624 164.999 65.5502 164.982 64.3373C164.965 63.2181 163.906 62.2935 162.633 62.2911V62.2887Z" fill="white"/>
<path d="M117.032 122.968V123.968H116.032V122.968H117.032ZM240 122.968H241V123.968H240V122.968ZM240 0V-1H241V0H240ZM117.032 0H116.032V-1H117.032V0ZM214.073 32.1206L213.573 32.9864L213.573 32.9864L214.073 32.1206ZM229.471 43.9924L230.221 43.3307L230.221 43.3308L229.471 43.9924ZM234.454 61.2607L233.476 61.0564L233.476 61.0563L234.454 61.2607ZM227.139 72.8034L226.471 72.0591L226.471 72.059L227.139 72.8034ZM190.212 88.1528L190.123 87.1568H190.123L190.212 88.1528ZM174.652 88.686L174.677 89.6857L174.677 89.6857L174.652 88.686ZM167.951 90.8332L167.317 90.0593L167.318 90.0589L167.951 90.8332ZM150.846 100.87L151.274 101.774L151.274 101.774L150.846 100.87ZM144.584 97.4211L143.593 97.5489L143.592 97.5483L144.584 97.4211ZM143.268 82.528L142.27 82.4718L142.27 82.4697L143.268 82.528ZM142.589 81.5337L143.013 80.6283L143.014 80.6287L142.589 81.5337ZM139.26 80.2055L138.818 81.1028L138.817 81.1023L139.26 80.2055ZM123.601 63.4775L124.495 63.0313L124.496 63.0321L123.601 63.4775ZM122.791 60.73L123.776 60.5553L123.776 60.5557L122.791 60.73ZM126.451 43.6825L127.302 44.2082L127.302 44.2084L126.451 43.6825ZM142.761 28.8399L142.269 27.9696L142.269 27.9696L142.761 28.8399ZM173.331 21.3441H174.331V22.3382L173.336 22.3441L173.331 21.3441ZM142.761 28.8375L143.254 29.7078L143.254 29.7078L142.761 28.8375ZM126.451 43.6801L125.601 43.1545L125.601 43.1544L126.451 43.6801ZM122.791 60.7276L123.776 60.5529L123.776 60.5533L122.791 60.7276ZM123.601 63.4751L122.705 63.9204L122.705 63.9193L123.601 63.4751ZM139.26 80.2031L138.818 81.1004L138.817 81.0999L139.26 80.2031ZM142.589 81.5313L143.011 80.6251L143.014 80.6263L142.589 81.5313ZM143.268 82.5256L142.27 82.4694L142.27 82.4669L143.268 82.5256ZM144.584 97.4187L145.576 97.2914L145.576 97.2917L144.584 97.4187ZM150.846 100.868L150.418 99.9637L150.418 99.9637L150.846 100.868ZM167.951 90.8307L167.317 90.0571L167.317 90.0569L167.951 90.8307ZM174.652 88.6836L174.677 89.6833H174.677L174.652 88.6836ZM190.212 88.1504L190.123 87.1544L190.123 87.1544L190.212 88.1504ZM227.139 72.801L227.807 73.5452L227.806 73.5454L227.139 72.801ZM234.454 61.2583L235.433 61.4625L235.433 61.4627L234.454 61.2583ZM229.471 43.99L230.221 43.3285L230.221 43.3286L229.471 43.99ZM214.073 32.1182L213.573 32.984L213.573 32.984L214.073 32.1182ZM173.331 21.3393H172.331V20.3384L173.332 20.3393L173.331 21.3393ZM149.152 95.6366L148.153 95.6531L149.152 95.6366ZM148.9 80.7723L147.9 80.7922V80.7921L148.9 80.7723ZM147.056 78.2121L147.358 77.2589L147.359 77.2591L147.056 78.2121ZM131.094 67.0921L130.305 67.7063L130.305 67.7062L131.094 67.0921ZM127.462 55.7656L126.473 55.6209L126.473 55.6208L127.462 55.7656ZM135.523 40.0823L134.837 39.354L134.837 39.354L135.523 40.0823ZM169.111 26.1379L169.174 27.1359L169.174 27.136L169.111 26.1379ZM213.199 36.9841L212.687 37.8428L212.686 37.8427L213.199 36.9841ZM226.147 47.667L225.348 48.2681L225.348 48.2681L226.147 47.667ZM229.737 59.4715L228.749 59.3176L228.749 59.3172L229.737 59.4715ZM223.985 69.1696L224.655 69.912L224.655 69.9121L223.985 69.1696ZM190.159 83.3998L190.074 82.4035H190.074L190.159 83.3998ZM172.334 84.3989L172.406 85.3963L172.406 85.3963L172.334 84.3989ZM168.349 85.7751L168.865 86.6322L168.864 86.6328L168.349 85.7751ZM159.081 91.7314L158.564 90.8756L158.564 90.8754L159.081 91.7314ZM149.152 97.3058L149.64 98.1789L148.152 99.0093V97.3058H149.152ZM164.336 59.3994L164.261 58.4023L164.262 58.4021L164.336 59.3994ZM117.032 121.968H240V123.968H117.032V121.968ZM239 122.968V0H241V122.968H239ZM240 1H117.032V-1H240V1ZM118.032 0V122.968H116.032V0H118.032ZM173.331 20.3417C188.638 20.3539 202.09 24.0376 214.574 31.2549L213.573 32.9864C201.396 25.947 188.29 22.3536 173.33 22.3417L173.331 20.3417ZM214.574 31.2549C220.267 34.5463 225.754 38.2683 230.221 43.3307L228.721 44.654C224.465 39.8309 219.196 36.2372 213.573 32.9864L214.574 31.2549ZM230.221 43.3308C234.764 48.4801 236.887 54.5058 235.433 61.4652L233.476 61.0563C234.779 54.8158 232.92 49.4141 228.721 44.6539L230.221 43.3308ZM235.433 61.4651C234.386 66.483 231.407 70.3189 227.806 73.5479L226.471 72.059C229.903 68.981 232.549 65.4965 233.476 61.0564L235.433 61.4651ZM227.807 73.5478C217.108 83.1466 204.361 87.8864 190.302 89.1488L190.123 87.1568C203.827 85.9263 216.145 81.3233 226.471 72.0591L227.807 73.5478ZM190.302 89.1488C185.098 89.6161 179.816 89.5525 174.677 89.6857L174.626 87.6863C179.867 87.5505 185.004 87.6166 190.123 87.1568L190.302 89.1488ZM174.677 89.6857C172.332 89.7453 170.303 90.2024 168.584 91.6074L167.318 90.0589C169.519 88.2601 172.057 87.7516 174.626 87.6863L174.677 89.6857ZM168.584 91.607C163.304 95.9292 157.268 98.9351 151.274 101.774L150.418 99.9662C156.413 97.1272 162.246 94.2104 167.317 90.0593L168.584 91.607ZM151.274 101.774C148.083 103.284 144.046 101.069 143.593 97.5489L145.576 97.2932C145.857 99.4752 148.464 100.891 150.418 99.9661L151.274 101.774ZM143.592 97.5483C142.97 92.6945 141.98 87.6249 142.27 82.4718L144.267 82.5842C143.99 87.4943 144.931 92.2622 145.576 97.2938L143.592 97.5483ZM142.27 82.4697C142.266 82.5294 142.273 82.5717 142.277 82.5917C142.281 82.6125 142.285 82.6213 142.283 82.6178C142.282 82.6147 142.278 82.6052 142.27 82.5899C142.262 82.5749 142.251 82.5572 142.237 82.538C142.209 82.4979 142.178 82.4631 142.153 82.4393C142.14 82.4279 142.133 82.4225 142.132 82.4216C142.13 82.4203 142.14 82.4279 142.163 82.4387L143.014 80.6287C143.388 80.8047 143.685 81.1195 143.875 81.3904C144.05 81.6392 144.296 82.0818 144.267 82.5863L142.27 82.4697ZM142.164 82.4391C141.674 82.2093 141.156 82.0249 140.581 81.8177C140.022 81.6164 139.41 81.3939 138.818 81.1028L139.701 79.3083C140.179 79.5432 140.69 79.7313 141.258 79.936C141.81 80.1346 142.422 80.3513 143.013 80.6283L142.164 82.4391ZM138.817 81.1023C131.248 77.3672 126.314 71.1764 122.705 63.9229L124.496 63.0321C127.982 70.0401 132.65 75.8291 139.702 79.3088L138.817 81.1023ZM122.706 63.9237C122.219 62.9468 121.976 61.8617 121.806 60.9042L123.776 60.5557C123.938 61.4716 124.142 62.3222 124.495 63.0313L122.706 63.9237ZM121.807 60.9047C120.66 54.4424 122.274 48.537 125.601 43.1566L127.302 44.2084C124.178 49.2611 122.732 54.6726 123.776 60.5553L121.807 60.9047ZM125.601 43.1568C129.723 36.4857 135.635 31.7247 142.269 27.9696L143.254 29.7101C136.803 33.3619 131.191 37.9148 127.302 44.2082L125.601 43.1568ZM142.269 27.9696C152.204 22.3462 163.021 20.4049 173.325 20.3441L173.336 22.3441C163.269 22.4034 152.812 24.3001 143.254 29.7101L142.269 27.9696ZM172.331 21.3441V21.3417H174.331V21.3441H172.331ZM173.336 22.3417C163.269 22.401 152.814 24.2977 143.254 29.7078L142.269 27.9672C152.206 22.3438 163.021 20.4025 173.325 20.3417L173.336 22.3417ZM143.254 29.7078C136.801 33.3595 131.191 37.9123 127.302 44.2058L125.601 43.1544C129.723 36.4834 135.633 31.7224 142.269 27.9672L143.254 29.7078ZM127.302 44.2058C124.18 49.2589 122.732 54.6705 123.776 60.5529L121.807 60.9023C120.66 54.4398 122.277 48.5345 125.601 43.1545L127.302 44.2058ZM123.776 60.5533C123.937 61.467 124.144 62.3198 124.496 63.031L122.705 63.9193C122.221 62.9444 121.976 61.8615 121.806 60.9018L123.776 60.5533ZM124.496 63.0298C127.982 70.04 132.65 75.8266 139.702 79.3064L138.817 81.0999C131.248 77.3649 126.314 71.1765 122.705 63.9204L124.496 63.0298ZM139.701 79.3059C140.179 79.541 140.691 79.7298 141.259 79.9346C141.81 80.1335 142.422 80.3499 143.011 80.6251L142.166 82.4375C141.675 82.2083 141.156 82.0236 140.58 81.816C140.021 81.6143 139.409 81.3913 138.818 81.1004L139.701 79.3059ZM143.014 80.6263C143.389 80.8028 143.687 81.1193 143.876 81.3895C144.049 81.6371 144.296 82.0801 144.266 82.5843L142.27 82.4669C142.266 82.5276 142.273 82.5706 142.277 82.5907C142.281 82.6116 142.285 82.6204 142.284 82.6167C142.282 82.6136 142.278 82.6039 142.27 82.5884C142.261 82.5732 142.25 82.5553 142.237 82.5359C142.208 82.4953 142.177 82.4603 142.152 82.4363C142.139 82.4249 142.132 82.4195 142.131 82.4187C142.129 82.4175 142.14 82.4253 142.163 82.4363L143.014 80.6263ZM144.267 82.5818C143.99 87.4919 144.931 92.2598 145.576 97.2914L143.592 97.5459C142.97 92.6921 141.98 87.6225 142.27 82.4694L144.267 82.5818ZM145.576 97.2917C145.855 99.472 148.463 100.889 150.418 99.9637L151.274 101.771C148.084 103.281 144.043 101.067 143.592 97.5457L145.576 97.2917ZM150.418 99.9637C156.415 97.1247 162.246 94.2104 167.317 90.0571L168.584 91.6044C163.304 95.9292 157.27 98.9327 151.274 101.771L150.418 99.9637ZM167.317 90.0569C169.516 88.2575 172.057 87.7492 174.626 87.6839L174.677 89.6833C172.332 89.7429 170.3 90.2001 168.584 91.6046L167.317 90.0569ZM174.626 87.6839C179.867 87.5506 185.004 87.6142 190.123 87.1544L190.302 89.1464C185.098 89.6138 179.817 89.5525 174.677 89.6833L174.626 87.6839ZM190.123 87.1544C203.827 85.9239 216.145 81.3186 226.471 72.0566L227.806 73.5454C217.108 83.1418 204.361 87.884 190.302 89.1464L190.123 87.1544ZM226.471 72.0568C229.903 68.9761 232.549 65.4939 233.476 61.054L235.433 61.4627C234.386 66.4807 231.407 70.3142 227.807 73.5452L226.471 72.0568ZM233.475 61.0542C234.777 54.8134 232.92 49.4139 228.721 44.6513L230.221 43.3286C234.764 48.4803 236.884 54.5034 235.433 61.4625L233.475 61.0542ZM228.721 44.6514C224.465 39.8262 219.196 36.2349 213.573 32.984L214.574 31.2525C220.267 34.5438 225.754 38.2634 230.221 43.3285L228.721 44.6514ZM213.573 32.984C201.396 25.9447 188.29 22.3535 173.33 22.3393L173.332 20.3393C188.638 20.3539 202.089 24.0352 214.574 31.2525L213.573 32.984ZM174.331 21.3393V21.3417H172.331V21.3393H174.331ZM148.152 97.301C148.152 96.4897 148.16 96.0802 148.153 95.6531L150.152 95.6201C150.16 96.0673 150.152 96.5319 150.152 97.301H148.152ZM148.153 95.6531C148.071 90.6957 147.999 85.7447 147.9 80.7922L149.9 80.7525C149.999 85.7095 150.071 90.668 150.152 95.6201L148.153 95.6531ZM147.9 80.7921C147.886 80.0512 147.777 79.7842 147.683 79.6552C147.594 79.5337 147.398 79.3703 146.753 79.1651L147.359 77.2591C148.111 77.4982 148.822 77.8236 149.298 78.4754C149.769 79.1198 149.883 79.9107 149.9 80.7526L147.9 80.7921ZM146.753 79.1653C140.087 77.0505 134.593 73.2166 130.305 67.7063L131.883 66.4779C135.924 71.6697 141.079 75.2668 147.358 77.2589L146.753 79.1653ZM130.305 67.7062C127.632 64.2709 125.791 60.2827 126.473 55.6209L128.452 55.9103C127.88 59.8227 129.387 63.2701 131.883 66.4781L130.305 67.7062ZM126.473 55.6208C127.397 49.306 130.126 43.7857 134.837 39.354L136.208 40.8107C131.845 44.9148 129.315 50.0149 128.452 55.9104L126.473 55.6208ZM134.837 39.354C144.468 30.2948 156.083 25.9594 169.048 25.1399L169.174 27.136C156.603 27.9305 145.45 32.1164 136.208 40.8107L134.837 39.354ZM169.048 25.1399C185.07 24.1252 199.959 27.913 213.712 36.1256L212.686 37.8427C199.267 29.8292 184.777 26.1477 169.174 27.1359L169.048 25.1399ZM213.712 36.1255C218.592 39.039 223.368 42.3096 226.946 47.0659L225.348 48.2681C222.013 43.8354 217.518 40.7271 212.687 37.8428L213.712 36.1255ZM226.946 47.0658C229.657 50.6704 231.487 54.7473 230.725 59.6257L228.749 59.3172C229.395 55.1796 227.886 51.643 225.348 48.2681L226.946 47.0658ZM230.726 59.6253C230.056 63.9258 227.661 67.1998 224.655 69.912L223.315 68.4272C226.122 65.8941 228.175 63.0052 228.749 59.3176L230.726 59.6253ZM224.655 69.9121C214.861 78.7475 203.213 83.2822 190.245 84.3961L190.074 82.4035C202.66 81.3223 213.882 76.937 223.315 68.4271L224.655 69.9121ZM190.245 84.3961C187.26 84.6527 184.268 84.7957 181.295 84.9281C178.315 85.0608 175.356 85.1826 172.406 85.3963L172.262 83.4016C175.246 83.1853 178.238 83.0622 181.206 82.9301C184.18 82.7977 187.134 82.6561 190.074 82.4035L190.245 84.3961ZM172.406 85.3963C171.248 85.4801 169.963 85.9716 168.865 86.6322L167.834 84.9181C169.108 84.152 170.697 83.5147 172.262 83.4015L172.406 85.3963ZM168.864 86.6328C167.312 87.5631 165.799 88.5653 164.266 89.5829C162.738 90.5964 161.19 91.6257 159.598 92.5874L158.564 90.8754C160.113 89.9397 161.625 88.9348 163.16 87.9165C164.688 86.9022 166.238 85.8749 167.835 84.9175L168.864 86.6328ZM159.598 92.5872C156.416 94.5104 153.093 96.2514 149.64 98.1789L148.665 96.4326C152.182 94.4694 155.42 92.7759 158.564 90.8756L159.598 92.5872ZM148.152 97.3058V97.301H150.152V97.3058H148.152ZM160.784 55.3969C161.219 49.6689 162.221 44.0668 163.939 38.5848L165.848 39.183C164.18 44.5039 163.203 49.9545 162.778 55.5483L160.784 55.3969ZM166.95 36.664C167.691 36.8025 168.259 37.1967 168.567 37.8259C168.837 38.3774 168.843 38.9874 168.809 39.4573L166.814 39.3096C166.827 39.1362 166.826 38.9986 166.814 38.8908C166.802 38.7831 166.782 38.7281 166.771 38.7056C166.764 38.6905 166.762 38.6906 166.759 38.6886C166.752 38.6835 166.706 38.653 166.583 38.63L166.95 36.664ZM167.409 57.4237C167.314 58.2348 167.011 58.9631 166.463 59.5079C165.911 60.0557 165.191 60.3388 164.41 60.3967L164.262 58.4021C164.649 58.3735 164.894 58.2471 165.053 58.0889C165.216 57.9275 165.369 57.6532 165.423 57.1913L167.409 57.4237ZM164.412 60.3966C163.671 60.4526 162.932 60.3319 162.309 59.8714C161.693 59.4165 161.333 58.7354 161.127 57.9649L163.059 57.4475C163.196 57.9595 163.371 58.1695 163.497 58.2627C163.616 58.3505 163.827 58.4351 164.261 58.4023L164.412 60.3966ZM149.152 97.301L150.128 99.047L147.152 100.709V97.301H149.152ZM159.081 91.7266L160.115 93.4386L160.115 93.4386L159.081 91.7266ZM168.349 85.7703L167.321 84.055L167.321 84.0547L168.349 85.7703ZM172.334 84.3941L172.19 82.3993L172.19 82.3993L172.334 84.3941ZM190.159 83.395L190.331 85.3877H190.331L190.159 83.395ZM223.985 69.1648L225.325 70.6496L225.325 70.6499L223.985 69.1648ZM229.737 59.4667L231.714 59.7743L231.714 59.7744L229.737 59.4667ZM226.147 47.6622L227.745 46.4603L227.746 46.4611L226.147 47.6622ZM213.199 36.9793L212.174 38.6966L212.174 38.6965L213.199 36.9793ZM169.111 26.1331L169.237 28.1291L169.237 28.1292L169.111 26.1331ZM135.523 40.0775L134.152 38.6208L134.152 38.6208L135.523 40.0775ZM127.462 55.7608L125.484 55.4714L125.484 55.4704L127.462 55.7608ZM131.094 67.0873L132.672 65.8585L132.672 65.8593L131.094 67.0873ZM147.056 78.2073L147.661 76.3009L147.662 76.3013L147.056 78.2073ZM148.9 80.7675L146.901 80.8073L146.901 80.8069L148.9 80.7675ZM149.152 95.6318L147.153 95.6647L149.152 95.6318ZM197.331 47.8735L195.406 47.3296L195.407 47.3289L197.331 47.8735ZM199.039 46.0002L198.643 47.9606L198.642 47.9604L199.039 46.0002ZM200.091 48.3803L202.089 48.4519L202.089 48.452L200.091 48.3803ZM199.73 53.9979L201.717 54.2258L201.717 54.2268L199.73 53.9979ZM201.287 56.378L201.037 58.3624L201.036 58.3623L201.287 56.378ZM202.315 57.6582L204.274 58.0604L204.274 58.0612L202.315 57.6582ZM201.051 58.9551L202.34 60.4845L202.334 60.4892L202.329 60.4939L201.051 58.9551ZM200.468 59.0247L200.247 61.0125L200.242 61.012L200.468 59.0247ZM199.007 60.4946L200.997 60.7002L200.997 60.7008L199.007 60.4946ZM198.049 66.9937L200.008 67.3956L200.008 67.3958L198.049 66.9937ZM195.71 68.8598L195.418 70.8383L195.415 70.838L195.71 68.8598ZM193.76 66.5565L191.763 66.6652L191.763 66.6648L193.76 66.5565ZM193.913 63.2205L191.925 63.0049L191.925 63.0025L193.913 63.2205ZM194.564 58.6429L194.707 56.648L196.852 56.8018L196.544 58.9294L194.564 58.6429ZM187.522 58.1361L185.545 57.834L185.824 56.0094L187.665 56.1412L187.522 58.1361ZM187.263 59.8509L189.242 60.139L189.242 60.141L187.263 59.8509ZM186.309 66.2395L184.341 65.8836L184.342 65.8821L186.309 66.2395ZM184.119 67.8439L184.028 69.8418L184.027 69.8417L184.119 67.8439ZM182.239 66.0522L184.23 65.8681L184.23 65.8707L182.239 66.0522ZM182.176 62.6033L180.199 62.2985L180.2 62.2976L182.176 62.6033ZM184.479 49.0288L182.511 48.6718L182.512 48.6717L184.479 49.0288ZM185.551 45.3782L183.714 44.5857L183.715 44.5835L185.551 45.3782ZM186.98 44.4367L187.757 42.5939L187.766 42.5979L186.98 44.4367ZM188.092 45.957L189.832 44.9711L189.835 44.9776L188.092 45.957ZM188.072 46.6655L186.074 46.5875L186.074 46.5855L188.072 46.6655ZM187.854 53.1309L185.854 53.1163L185.854 53.1131L187.854 53.1309ZM188.536 54.0844L188.207 56.0572L188.202 56.0563L188.536 54.0844ZM195.4 55.0499L196.813 53.6347L201.014 57.8296L195.131 57.0317L195.4 55.0499ZM164.893 38.8839L166.801 39.4859L162.984 38.2876L164.893 38.8839ZM166.767 37.647L167.137 35.6815L166.398 39.6126L166.767 37.647ZM167.811 39.3834L165.817 39.2347L169.806 39.5311L167.811 39.3834ZM166.815 53.0108L168.809 53.1606L168.809 53.1612L166.815 53.0108ZM166.416 57.3075L168.402 57.5412L164.429 57.0771L166.416 57.3075ZM162.093 57.7062L164.025 57.1909L160.162 58.2275L162.093 57.7062ZM177.433 62.1878L175.442 61.9967L175.442 61.9965L177.433 62.1878ZM174.62 64.431L174.984 62.4644L174.985 62.4646L174.62 64.431ZM173.014 61.4673L174.96 61.929L174.959 61.9317L173.014 61.4673ZM175.552 51.0054L173.608 50.5342L173.609 50.5317L175.552 51.0054ZM177.185 49.5499L177.558 47.585L177.563 47.5859L177.185 49.5499ZM178.384 51.4569L180.379 51.5954L180.25 53.4569H178.384V51.4569ZM178.288 41.6122L180.288 41.6038V41.6038L178.288 41.6122ZM175.754 44.2541L175.889 46.2496L175.887 46.2497L175.754 44.2541ZM173.184 41.9461L175.184 41.911V41.9111L173.184 41.9461ZM175.819 39.5396H177.819V41.4669L175.893 41.5382L175.819 39.5396ZM164.982 64.3349L162.982 64.3667L162.982 64.365L164.982 64.3349ZM162.362 66.9744L162.389 68.9743L162.388 68.9743L162.362 66.9744ZM159.919 64.7024L161.919 64.677L161.919 64.6787L159.919 64.7024ZM162.633 62.2863L162.637 60.2863L164.633 60.2895V62.2863H162.633ZM188.533 54.082L188.203 56.0545L188.199 56.0539L188.533 54.082ZM187.851 53.1285L185.851 53.1139L185.851 53.1107L187.851 53.1285ZM188.07 46.6631L186.071 46.5851L186.072 46.5831L188.07 46.6631ZM188.089 45.9546L186.356 46.952L186.349 46.9404L188.089 45.9546ZM186.977 44.4343L187.755 42.5915L187.761 42.5942L186.977 44.4343ZM185.548 45.3757L183.712 44.5833L183.713 44.5811L185.548 45.3757ZM184.477 49.0264L182.509 48.6694L182.509 48.6693L184.477 49.0264ZM182.174 62.6009L180.197 62.2961L180.197 62.2954L182.174 62.6009ZM182.236 66.0498L184.228 65.8661L184.228 65.8683L182.236 66.0498ZM184.117 67.8415L184.209 65.8436L184.212 65.8437L184.117 67.8415ZM186.307 66.2371L184.339 65.8812L184.339 65.8801L186.307 66.2371ZM187.261 59.8485L189.24 60.1366L189.239 60.1386L187.261 59.8485ZM187.52 58.1337L185.543 57.8316L185.822 56.007L187.663 56.1388L187.52 58.1337ZM194.562 58.6405L194.705 56.6456L196.849 56.7994L196.541 58.927L194.562 58.6405ZM193.911 63.2181L191.923 63.002L191.923 63.0001L193.911 63.2181ZM193.757 66.5541L191.76 66.6628L191.76 66.6624L193.757 66.5541ZM195.707 68.8574L195.415 70.836L195.413 70.8356L195.707 68.8574ZM198.047 66.9912L200.006 67.3911L200.006 67.3934L198.047 66.9912ZM199.005 60.4922L200.994 60.6978L200.994 60.6986L199.005 60.4922ZM200.465 59.0223L200.244 61.0101L200.24 61.0096L200.465 59.0223ZM201.049 58.9527L202.338 60.4821L202.332 60.4868L202.326 60.4915L201.049 58.9527ZM202.312 57.6558L204.271 58.058L204.271 58.0607L202.312 57.6558ZM201.284 56.3756L201.535 54.3913L201.545 54.3927L201.284 56.3756ZM199.728 53.9955L201.715 54.2237L201.715 54.2244L199.728 53.9955ZM200.088 48.3779L202.087 48.4495L202.087 48.4521L200.088 48.3779ZM199.036 45.9978L198.64 47.9582L198.639 47.958L199.036 45.9978ZM197.329 47.8711L195.404 47.3272L195.404 47.3265L197.329 47.8711ZM195.395 55.0451L193.983 56.4612L193.164 55.6446L193.463 54.5275L195.395 55.0451ZM177.183 49.5499L177.56 47.5858L177.56 47.5859L177.183 49.5499ZM175.55 51.0054L173.606 50.5342L173.606 50.533L175.55 51.0054ZM173.011 61.4673L171.065 61.0057L171.065 61.0043L173.011 61.4673ZM174.618 64.431L174.982 62.4644L174.983 62.4646L174.618 64.431ZM177.43 62.1878L175.439 61.9967L175.439 61.9965L177.43 62.1878ZM178.379 51.4569L176.387 51.283L176.546 49.4569H178.379V51.4569ZM173.184 41.9437L175.184 41.9086V41.9087L173.184 41.9437ZM175.754 44.2517L175.621 42.2562L175.623 42.256L175.754 44.2517ZM178.288 41.6098L180.288 41.6014L180.288 41.6056L178.288 41.6098ZM175.819 39.5348H173.819V37.6041L175.748 37.536L175.819 39.5348ZM159.919 64.7048L161.919 64.6794L161.919 64.6811L159.919 64.7048ZM162.362 66.9768L162.385 68.9767L162.385 68.9767L162.362 66.9768ZM164.982 64.3373L166.982 64.3073L166.982 64.3096L164.982 64.3373ZM162.633 62.2911L162.63 64.2911L160.633 64.2873V62.2911H162.633ZM148.177 95.555C151.724 93.5734 154.919 91.9041 158.047 90.0146L160.115 93.4386C156.913 95.3727 153.546 97.1378 150.128 99.047L148.177 95.555ZM158.047 90.0146C159.575 89.0919 161.069 88.0992 162.607 87.0784C164.132 86.0659 165.701 85.0261 167.321 84.055L169.378 87.4856C167.849 88.4023 166.354 89.392 164.819 90.4113C163.295 91.4223 161.729 92.4639 160.115 93.4386L158.047 90.0146ZM167.321 84.0547C168.68 83.2409 170.42 82.5273 172.19 82.3993L172.478 86.3889C171.525 86.4579 170.392 86.8779 169.377 87.4859L167.321 84.0547ZM172.19 82.3993C175.191 82.1831 178.198 82.0594 181.16 81.9272C184.134 81.7945 187.07 81.653 189.988 81.4024L190.331 85.3877C187.322 85.6462 184.312 85.7905 181.339 85.9232C178.353 86.0564 175.411 86.1776 172.478 86.389L172.19 82.3993ZM189.988 81.4024C202.383 80.3376 213.392 76.027 222.646 67.6798L225.325 70.6499C215.35 79.6479 203.49 84.2573 190.331 85.3877L189.988 81.4024ZM222.645 67.6801C225.353 65.2364 227.235 62.5401 227.761 59.1589L231.714 59.7744C230.996 64.3813 228.43 67.8479 225.325 70.6496L222.645 67.6801ZM227.761 59.1591C228.347 55.3937 226.999 52.1267 224.548 48.8632L227.746 46.4611C230.54 50.1819 232.53 54.5284 231.714 59.7743L227.761 59.1591ZM224.548 48.8641C221.336 44.5912 216.982 41.5666 212.174 38.6966L214.224 35.262C219.129 38.1898 224.046 41.5394 227.745 46.4603L224.548 48.8641ZM212.174 38.6965C198.921 30.7825 184.634 27.1542 169.237 28.1291L168.984 24.1371C185.219 23.1091 200.305 26.9501 214.225 35.2622L212.174 38.6965ZM169.237 28.1292C156.865 28.9113 145.942 33.0224 136.893 41.5343L134.152 38.6208C143.977 29.3792 155.826 24.969 168.985 24.1371L169.237 28.1292ZM136.893 41.5343C132.705 45.4742 130.276 50.3641 129.441 56.0512L125.484 55.4704C126.441 48.9471 129.267 43.2166 134.152 38.6208L136.893 41.5343ZM129.441 56.0502C128.924 59.5883 130.263 62.7654 132.672 65.8585L129.516 68.3161C126.751 64.7661 124.747 60.5074 125.484 55.4714L129.441 56.0502ZM132.672 65.8593C136.589 70.8937 141.574 74.37 147.661 76.3009L146.451 80.1137C139.592 77.9377 133.928 73.9879 129.515 68.3153L132.672 65.8593ZM147.662 76.3013C148.466 76.5569 149.435 76.9622 150.105 77.8792C150.765 78.7815 150.882 79.8352 150.9 80.7281L146.901 80.8069C146.894 80.4835 146.869 80.3064 146.848 80.2153C146.83 80.1393 146.826 80.1723 146.876 80.2401C146.927 80.3102 146.969 80.3269 146.925 80.3015C146.865 80.2667 146.729 80.2022 146.45 80.1133L147.662 76.3013ZM150.9 80.7278C150.998 85.6871 151.071 90.6493 151.152 95.5988L147.153 95.6647C147.071 90.7048 146.999 85.7575 146.901 80.8073L150.9 80.7278ZM151.152 95.5988C151.16 96.056 151.152 96.5482 151.152 97.2962H147.152C147.152 96.4639 147.16 96.0818 147.153 95.6647L151.152 95.5988ZM151.152 97.2962V97.301H147.152V97.2962H151.152ZM193.466 54.5299C194.125 52.0702 194.741 49.6838 195.406 47.3296L199.256 48.4175C198.6 50.737 198.001 53.058 197.329 55.565L193.466 54.5299ZM195.407 47.3289C195.431 47.2441 195.454 47.1537 195.487 47.0243C195.518 46.9052 195.557 46.7565 195.602 46.6033C195.688 46.3114 195.827 45.8907 196.072 45.4799C196.328 45.0512 196.746 44.5529 197.414 44.2424C198.09 43.9284 198.797 43.9106 199.436 44.04L198.642 47.9604C198.628 47.9577 198.827 47.9967 199.1 47.8699C199.365 47.7466 199.485 47.5661 199.508 47.5274C199.521 47.5065 199.494 47.5481 199.44 47.7322C199.415 47.817 199.39 47.9099 199.359 48.0284C199.331 48.1367 199.294 48.2802 199.255 48.4182L195.407 47.3289ZM199.435 44.0398C200.072 44.1685 200.667 44.4589 201.141 44.9453C201.602 45.4177 201.835 45.9594 201.956 46.416C202.17 47.2218 202.101 48.1222 202.089 48.4519L198.092 48.3087C198.102 48.0322 198.111 47.8594 198.108 47.6795C198.107 47.5991 198.103 47.5395 198.098 47.4958C198.093 47.4519 198.089 47.4358 198.09 47.4403C198.092 47.4493 198.131 47.587 198.277 47.7374C198.349 47.8113 198.428 47.8681 198.504 47.9074C198.577 47.9455 198.629 47.9579 198.643 47.9606L199.435 44.0398ZM202.089 48.452C202.022 50.3269 201.941 52.2757 201.717 54.2258L197.743 53.77C197.947 51.9927 198.025 50.1852 198.092 48.3086L202.089 48.452ZM201.717 54.2268C201.701 54.3645 201.691 54.4785 201.686 54.5747C201.681 54.6712 201.682 54.738 201.684 54.7822C201.69 54.8784 201.701 54.8139 201.635 54.6853C201.599 54.6174 201.55 54.5472 201.488 54.4838C201.427 54.4211 201.37 54.3825 201.333 54.3619C201.298 54.3426 201.29 54.3436 201.323 54.3535C201.357 54.3635 201.425 54.3797 201.537 54.3938L201.036 58.3623C199.915 58.2208 198.72 57.7541 198.084 56.5265C197.563 55.5218 197.67 54.406 197.743 53.7691L201.717 54.2268ZM201.536 54.3937C202.169 54.4732 202.634 54.7934 202.858 54.9666C203.129 55.1764 203.363 55.4208 203.55 55.6551C203.735 55.8877 203.924 56.1723 204.067 56.489C204.172 56.7208 204.424 57.3304 204.274 58.0604L200.355 57.2559C200.292 57.5664 200.329 57.8069 200.352 57.9145C200.377 58.0333 200.41 58.1095 200.422 58.1361C200.445 58.187 200.451 58.1842 200.422 58.1487C200.395 58.115 200.385 58.1106 200.412 58.1321C200.428 58.144 200.476 58.1803 200.559 58.2217C200.635 58.2597 200.8 58.3326 201.037 58.3624L201.536 54.3937ZM204.274 58.0612C204.078 59.0118 203.412 59.6132 203.133 59.8556C202.957 60.0086 202.775 60.1469 202.646 60.2453C202.498 60.358 202.412 60.4236 202.34 60.4845L199.763 57.4257C199.927 57.2873 200.104 57.1538 200.221 57.0644C200.357 56.9607 200.443 56.8938 200.51 56.8351C200.579 56.7753 200.576 56.7689 200.546 56.809C200.514 56.8507 200.408 57.0023 200.356 57.2551L204.274 58.0612ZM202.329 60.4939C201.763 60.964 201.13 61.0194 200.915 61.0334C200.629 61.0521 200.374 61.0266 200.247 61.0125L200.689 57.037C200.756 57.0444 200.729 57.037 200.654 57.0419C200.613 57.0446 200.512 57.0536 200.377 57.0925C200.246 57.1304 200.014 57.2169 199.774 57.4163L202.329 60.4939ZM200.242 61.012C200.129 60.9991 200.192 61.0243 200.349 60.9777C200.434 60.9527 200.535 60.9098 200.641 60.8403C200.747 60.7705 200.834 60.6884 200.902 60.6054C201.032 60.4474 201.058 60.3271 201.048 60.3614C201.038 60.3968 201.018 60.4927 200.997 60.7002L197.018 60.289C197.067 59.8115 197.176 58.8416 197.809 58.0691C198.622 57.0781 199.777 56.9335 200.693 57.0375L200.242 61.012ZM200.997 60.7008C200.767 62.9169 200.466 65.1659 200.008 67.3956L196.09 66.5917C196.512 64.5368 196.796 62.429 197.018 60.2884L200.997 60.7008ZM200.008 67.3958C199.771 68.5508 199.073 69.447 198.311 70.0181C197.586 70.5613 196.536 71.0034 195.418 70.8383L196.002 66.8812C195.854 66.8594 195.781 66.8879 195.798 66.8824C195.809 66.8788 195.854 66.861 195.913 66.8171C195.97 66.7743 196.017 66.7243 196.048 66.6774C196.079 66.6321 196.088 66.6023 196.09 66.5915L200.008 67.3958ZM195.415 70.838C194.377 70.6835 193.505 70.0841 192.911 69.4073C192.301 68.7139 191.822 67.7592 191.763 66.6652L195.757 66.4479C195.76 66.5019 195.795 66.6304 195.916 66.7673C195.97 66.8295 196.022 66.869 196.055 66.8887C196.09 66.9098 196.076 66.8923 196.004 66.8816L195.415 70.838ZM191.763 66.6648C191.693 65.3868 191.803 64.1305 191.925 63.0049L195.902 63.4362C195.784 64.5249 195.706 65.5119 195.757 66.4482L191.763 66.6648ZM191.925 63.0025C192.093 61.4693 192.362 59.8939 192.585 58.3563L196.544 58.9294C196.3 60.6101 196.06 61.9937 195.901 63.4386L191.925 63.0025ZM194.421 60.6377C191.97 60.462 189.698 60.297 187.38 60.131L187.665 56.1412C189.977 56.3067 192.268 56.4731 194.707 56.648L194.421 60.6377ZM189.499 58.4381C189.393 59.1358 189.315 59.6366 189.242 60.139L185.284 59.5629C185.36 59.0421 185.441 58.5197 185.545 57.834L189.499 58.4381ZM189.242 60.141C188.94 62.2005 188.669 64.4378 188.277 66.5969L184.342 65.8821C184.718 63.8094 184.962 61.762 185.284 59.5609L189.242 60.141ZM188.278 66.5954C188.097 67.5955 187.595 68.5046 186.727 69.1179C185.891 69.709 184.919 69.8824 184.028 69.8418L184.21 65.8459C184.34 65.8519 184.416 65.8392 184.446 65.8317C184.474 65.8249 184.456 65.8248 184.418 65.8517C184.4 65.8646 184.381 65.8806 184.364 65.899C184.347 65.9173 184.336 65.934 184.329 65.9459C184.314 65.971 184.328 65.9596 184.341 65.8836L188.278 66.5954ZM184.027 69.8417C183.085 69.7982 182.135 69.4887 181.393 68.7674C180.656 68.0507 180.328 67.1253 180.247 66.2336L184.23 65.8707C184.239 65.9664 184.255 66.0015 184.252 65.9952C184.251 65.9916 184.245 65.9789 184.233 65.9604C184.22 65.9417 184.203 65.9206 184.181 65.8996C184.16 65.8786 184.138 65.8617 184.118 65.8489C184.098 65.8363 184.084 65.8303 184.079 65.8285C184.07 65.825 184.107 65.8412 184.211 65.846L184.027 69.8417ZM180.247 66.2363C180.149 65.1782 179.981 63.7169 180.199 62.2985L184.153 62.9081C184.026 63.7329 184.117 64.6397 184.23 65.8681L180.247 66.2363ZM180.2 62.2976C180.904 57.7402 181.691 53.1971 182.511 48.6718L186.447 49.3857C185.63 53.8909 184.85 58.3975 184.153 62.909L180.2 62.2976ZM182.512 48.6717C182.758 47.311 183.142 45.9108 183.714 44.5857L187.387 46.1706C186.96 47.1607 186.652 48.2583 186.447 49.3859L182.512 48.6717ZM183.715 44.5835C183.905 44.1453 184.19 43.8148 184.397 43.6069C184.623 43.3788 184.876 43.1778 185.126 43.0137C185.368 42.8542 185.669 42.6881 186.002 42.573C186.21 42.5014 186.951 42.254 187.757 42.5939L186.202 46.2794C186.571 46.4351 186.884 46.425 187.021 46.4124C187.172 46.3985 187.273 46.3659 187.308 46.3541C187.376 46.3305 187.377 46.3205 187.325 46.3544C187.281 46.3836 187.247 46.4132 187.235 46.4256C187.202 46.4581 187.297 46.378 187.386 46.1728L183.715 44.5835ZM187.766 42.5979C188.616 42.9613 189.088 43.6663 189.303 44.0123C189.431 44.2184 189.541 44.4245 189.624 44.5814C189.718 44.7596 189.772 44.8665 189.832 44.9711L186.351 46.9428C186.252 46.7677 186.151 46.5713 186.085 46.4454C186.007 46.2982 185.953 46.1992 185.905 46.1219C185.856 46.0431 185.843 46.0347 185.866 46.0598C185.891 46.0861 185.996 46.1914 186.193 46.2754L187.766 42.5979ZM189.835 44.9776C190.053 45.3654 190.112 45.7368 190.127 45.9805C190.143 46.2213 190.121 46.4262 190.107 46.5391C190.094 46.6375 190.071 46.7749 190.07 46.7853C190.062 46.8356 190.068 46.8053 190.071 46.7454L186.074 46.5855C186.081 46.4056 186.105 46.2486 186.117 46.1709C186.122 46.1407 186.132 46.0772 186.133 46.0688C186.135 46.0569 186.136 46.0488 186.137 46.0427C186.138 46.0367 186.138 46.0344 186.138 46.0347C186.138 46.0351 186.138 46.0394 186.137 46.0469C186.136 46.0544 186.135 46.0663 186.134 46.082C186.133 46.1117 186.131 46.1651 186.136 46.2352C186.144 46.3672 186.179 46.6362 186.348 46.9364L189.835 44.9776ZM190.071 46.7435C189.985 48.9364 189.873 51.0321 189.854 53.1487L185.854 53.1131C185.873 50.9162 185.991 48.7033 186.074 46.5875L190.071 46.7435ZM189.854 53.1455C189.856 52.8586 189.78 52.6777 189.768 52.6492C189.746 52.5958 189.729 52.5694 189.72 52.5573C189.713 52.5481 189.681 52.5028 189.606 52.4388C189.567 52.4054 189.496 52.3495 189.391 52.2917C189.29 52.2363 189.113 52.1537 188.87 52.1125L188.202 56.0563C187.614 55.9567 187.206 55.6485 187.013 55.484C186.783 55.2881 186.597 55.0691 186.455 54.8687C186.311 54.6654 186.176 54.4302 186.071 54.1747C185.976 53.9441 185.851 53.5678 185.854 53.1163L189.854 53.1455ZM188.864 52.1115C191.061 52.4772 193.256 52.7408 195.669 53.068L195.131 57.0317C192.798 56.7153 190.483 56.4361 188.207 56.0572L188.864 52.1115ZM193.987 56.465L193.984 56.4627L196.811 53.6323L196.813 53.6347L193.987 56.465ZM162.984 38.2876C163.209 37.5683 163.628 36.7518 164.434 36.1939C165.285 35.6051 166.257 35.5162 167.136 35.6814L166.398 39.6126C166.335 39.601 166.353 39.6136 166.426 39.6014C166.509 39.5878 166.612 39.551 166.71 39.4832C166.901 39.3516 166.876 39.246 166.802 39.4802L162.984 38.2876ZM169.806 39.5322C169.637 41.8005 169.472 44.0698 169.308 46.3416C169.143 48.6127 168.979 50.8862 168.809 53.1595L164.82 52.8621C164.989 50.5938 165.154 48.3244 165.318 46.0527C165.483 43.7816 165.647 41.508 165.817 39.2347L169.806 39.5322ZM168.809 53.1612C168.7 54.6064 168.575 56.0718 168.402 57.5412L164.43 57.0738C164.593 55.6851 164.713 54.283 164.82 52.8605L168.809 53.1612ZM160.16 58.2215C159.926 57.3421 159.859 56.1941 159.798 55.734L163.764 55.2112C163.9 56.245 163.876 56.6293 164.025 57.1909L160.16 58.2215ZM180.374 51.6309C180.063 55.1925 179.768 58.7939 179.424 62.3791L175.442 61.9965C175.784 58.4342 176.075 54.8737 176.389 51.283L180.374 51.6309ZM179.424 62.3789C179.17 65.0176 176.898 66.8881 174.255 66.3974L174.985 62.4646C175.137 62.4929 175.217 62.4533 175.263 62.4171C175.311 62.3795 175.416 62.2683 175.442 61.9967L179.424 62.3789ZM174.257 66.3976C173.059 66.1761 172.029 65.4867 171.434 64.4021C170.857 63.352 170.797 62.1399 171.068 61.0028L174.959 61.9317C174.861 62.3438 174.948 62.4923 174.939 62.4761C174.935 62.4687 174.923 62.4534 174.909 62.4434C174.896 62.4345 174.912 62.4511 174.984 62.4644L174.257 66.3976ZM171.068 61.0056C171.897 57.5084 172.767 54.0059 173.608 50.5342L177.496 51.4766C176.647 54.9795 175.787 58.442 174.96 61.929L171.068 61.0056ZM173.609 50.5317C173.704 50.1427 173.909 49.2695 174.496 48.5779C174.833 48.1801 175.295 47.8366 175.89 47.653C176.466 47.4755 177.04 47.4865 177.558 47.585L176.812 51.5148C176.762 51.5053 176.873 51.5358 177.069 51.4754C177.284 51.409 177.449 51.2803 177.546 51.165C177.625 51.0724 177.633 51.0215 177.605 51.0953C177.577 51.1677 177.544 51.2809 177.495 51.479L173.609 50.5317ZM177.563 47.5859C178.586 47.7826 179.468 48.3415 179.972 49.2958C180.407 50.1222 180.421 50.9974 180.379 51.5954L176.389 51.3184C176.399 51.1729 176.393 51.0905 176.389 51.0551C176.384 51.0211 176.386 51.071 176.433 51.1617C176.488 51.2649 176.576 51.3698 176.687 51.4465C176.789 51.5175 176.851 51.5222 176.808 51.514L177.563 47.5859ZM178.384 53.4569H178.381V49.4569H178.384V53.4569ZM175.744 37.5385C177.908 37.4581 180.277 39.0946 180.288 41.6038L176.288 41.6207C176.288 41.7565 176.352 41.7479 176.249 41.6613C176.151 41.5794 176.015 41.5313 175.893 41.5358L175.744 37.5385ZM180.288 41.6038C180.293 42.8973 179.58 44.0125 178.905 44.7162C178.222 45.4279 177.151 46.1642 175.889 46.2496L175.619 42.2587C175.548 42.2635 175.568 42.2785 175.676 42.2189C175.776 42.1632 175.9 42.0706 176.019 41.9464C176.139 41.8217 176.221 41.6997 176.266 41.6092C176.314 41.5106 176.287 41.516 176.288 41.6207L180.288 41.6038ZM175.887 46.2497C174.614 46.3344 173.466 45.8011 172.667 45.0832C171.87 44.3676 171.207 43.2746 171.184 41.981L175.184 41.9111C175.183 41.8783 175.175 41.8856 175.199 41.9319C175.223 41.9792 175.269 42.0439 175.34 42.1077C175.411 42.1714 175.485 42.2147 175.546 42.2384C175.606 42.2616 175.631 42.2579 175.621 42.2586L175.887 46.2497ZM171.184 41.9812C171.139 39.3985 173.511 37.6237 175.745 37.5409L175.893 41.5382C175.673 41.5463 175.456 41.6418 175.307 41.7776C175.152 41.9188 175.185 41.9871 175.184 41.911L171.184 41.9812ZM173.819 39.5396V39.5372H177.819V39.5396H173.819ZM162.637 60.2887C164.759 60.2927 166.945 61.8693 166.982 64.3049L162.982 64.365C162.984 64.4523 163.026 64.4549 162.964 64.4011C162.901 64.3464 162.784 64.289 162.63 64.2887L162.637 60.2887ZM166.982 64.3032C167.003 65.6374 166.286 66.7825 165.562 67.5115C164.834 68.2454 163.704 68.9564 162.389 68.9743L162.335 64.9746C162.275 64.9754 162.297 64.989 162.396 64.9389C162.491 64.8909 162.61 64.8081 162.724 64.6932C162.838 64.5779 162.916 64.4632 162.958 64.377C163.003 64.2861 162.981 64.2833 162.982 64.3667L166.982 64.3032ZM162.388 68.9743C160.098 69.0044 157.948 67.1381 157.92 64.7261L161.919 64.6787C161.919 64.6561 161.915 64.7302 162.03 64.8367C162.143 64.9416 162.265 64.9755 162.336 64.9746L162.388 68.9743ZM157.92 64.7278C157.886 62.0543 160.272 60.2825 162.637 60.2863L162.63 64.2863C162.366 64.2858 162.16 64.3827 162.038 64.4913C161.918 64.5976 161.919 64.67 161.919 64.677L157.92 64.7278ZM164.633 62.2863V62.2887H160.633V62.2863H164.633ZM195.131 57.0296C192.792 56.7151 190.481 56.4363 188.203 56.0545L188.864 52.1095C191.058 52.4771 193.252 52.741 195.664 53.0653L195.131 57.0296ZM188.199 56.0539C187.612 55.9543 187.203 55.6461 187.01 55.4816C186.78 55.2857 186.595 55.0667 186.453 54.8663C186.309 54.663 186.174 54.4278 186.068 54.1723C185.973 53.9417 185.848 53.5654 185.851 53.1139L189.851 53.1431C189.853 52.8562 189.778 52.6753 189.766 52.6468C189.744 52.5934 189.726 52.567 189.718 52.5549C189.711 52.5457 189.679 52.5005 189.604 52.4364C189.565 52.403 189.493 52.3471 189.388 52.2893C189.288 52.2339 189.111 52.1513 188.868 52.1101L188.199 56.0539ZM185.851 53.1107C185.871 50.9162 185.989 48.7009 186.071 46.5851L190.068 46.741C189.983 48.9339 189.87 51.0321 189.851 53.1463L185.851 53.1107ZM186.072 46.5831C186.079 46.4002 186.103 46.2409 186.116 46.1629C186.121 46.1323 186.131 46.0687 186.132 46.0604C186.134 46.0486 186.136 46.0406 186.137 46.0348C186.137 46.029 186.138 46.027 186.138 46.0276C186.138 46.0278 186.135 46.0467 186.133 46.078C186.131 46.1091 186.13 46.1644 186.134 46.2368C186.143 46.3741 186.181 46.6485 186.356 46.9519L189.823 44.9572C190.048 45.3483 190.109 45.725 190.126 45.9741C190.142 46.2192 190.119 46.4274 190.104 46.5413C190.092 46.6404 190.068 46.7797 190.067 46.7885C190.059 46.8384 190.066 46.8059 190.068 46.743L186.072 46.5831ZM186.349 46.9404C186.249 46.7642 186.148 46.5675 186.082 46.4412C186.004 46.2938 185.95 46.1952 185.902 46.1182C185.854 46.0398 185.841 46.0324 185.866 46.0582C185.892 46.0855 185.997 46.1908 186.194 46.2744L187.761 42.5942C188.613 42.9573 189.087 43.6634 189.303 44.0112C189.43 44.2177 189.54 44.4241 189.623 44.5807C189.716 44.7586 189.771 44.8651 189.829 44.9687L186.349 46.9404ZM186.2 46.277C186.569 46.4327 186.882 46.4226 187.019 46.41C187.17 46.3961 187.271 46.3635 187.305 46.3517C187.373 46.3281 187.374 46.3181 187.323 46.352C187.279 46.3812 187.245 46.4108 187.232 46.4232C187.2 46.4557 187.295 46.3756 187.383 46.1704L183.713 44.5811C183.903 44.1429 184.188 43.8124 184.394 43.6045C184.621 43.3764 184.874 43.1754 185.123 43.0113C185.365 42.8518 185.667 42.6857 186 42.5706C186.207 42.499 186.949 42.2516 187.755 42.5915L186.2 46.277ZM187.384 46.1682C186.957 47.1583 186.649 48.2559 186.445 49.3835L182.509 48.6693C182.756 47.3087 183.14 45.9084 183.712 44.5833L187.384 46.1682ZM186.445 49.3833C185.628 53.8887 184.848 58.3927 184.15 62.9064L180.197 62.2954C180.902 57.7353 181.688 53.1945 182.509 48.6694L186.445 49.3833ZM184.15 62.9056C184.023 63.7306 184.114 64.6346 184.228 65.8661L180.245 66.2335C180.147 65.1737 179.978 63.7144 180.197 62.2961L184.15 62.9056ZM184.228 65.8683C184.237 65.964 184.253 65.9991 184.25 65.9928C184.249 65.9892 184.243 65.9765 184.23 65.958C184.218 65.9393 184.2 65.9182 184.179 65.8972C184.157 65.8762 184.135 65.8593 184.115 65.8465C184.095 65.8339 184.081 65.8279 184.076 65.8261C184.068 65.8226 184.105 65.8388 184.209 65.8436L184.024 69.8393C183.083 69.7958 182.132 69.4863 181.39 68.765C180.653 68.0483 180.326 67.1229 180.244 66.2312L184.228 65.8683ZM184.212 65.8437C184.341 65.8499 184.415 65.8373 184.444 65.8301C184.471 65.8236 184.453 65.8238 184.415 65.8509C184.397 65.8638 184.378 65.8798 184.361 65.8981C184.344 65.9163 184.333 65.9328 184.326 65.9446C184.311 65.9691 184.325 65.9574 184.339 65.8812L188.275 66.593C188.094 67.5924 187.593 68.502 186.726 69.1158C185.889 69.7081 184.915 69.8817 184.022 69.8392L184.212 65.8437ZM184.339 65.8801C184.716 63.8047 184.959 61.7591 185.282 59.5585L189.239 60.1386C188.938 62.1986 188.667 64.4329 188.275 66.5941L184.339 65.8801ZM185.281 59.5605C185.357 59.0397 185.438 58.5173 185.543 57.8316L189.497 58.4357C189.39 59.1334 189.313 59.6342 189.24 60.1366L185.281 59.5605ZM187.663 56.1388C189.975 56.3043 192.266 56.4707 194.705 56.6456L194.419 60.6353C191.968 60.4596 189.696 60.2945 187.377 60.1286L187.663 56.1388ZM196.541 58.927C196.298 60.6077 196.057 61.9913 195.899 63.4362L191.923 63.0001C192.091 61.4669 192.36 59.8915 192.582 58.3539L196.541 58.927ZM195.899 63.4343C195.781 64.5199 195.704 65.5094 195.754 66.4458L191.76 66.6624C191.691 65.3845 191.8 64.126 191.923 63.002L195.899 63.4343ZM195.754 66.4455C195.757 66.4995 195.793 66.628 195.913 66.7649C195.968 66.8271 196.02 66.8666 196.053 66.8863C196.088 66.9074 196.074 66.8899 196.002 66.8792L195.413 70.8356C194.375 70.6811 193.503 70.0817 192.908 69.4049C192.299 68.7115 191.82 67.7568 191.76 66.6628L195.754 66.4455ZM196 66.8788C195.851 66.857 195.778 66.8855 195.796 66.88C195.807 66.8764 195.851 66.8586 195.91 66.8147C195.967 66.7719 196.014 66.7219 196.046 66.675C196.077 66.6297 196.085 66.5999 196.088 66.5891L200.006 67.3934C199.769 68.5484 199.071 69.4446 198.309 70.0157C197.584 70.5589 196.533 71.001 195.415 70.836L196 66.8788ZM196.087 66.5914C196.507 64.5342 196.794 62.4226 197.016 60.2858L200.994 60.6986C200.764 62.9137 200.461 65.1637 200.006 67.3911L196.087 66.5914ZM197.016 60.2866C197.065 59.809 197.173 58.8392 197.807 58.0667C198.619 57.0757 199.775 56.9311 200.691 57.0351L200.24 61.0096C200.127 60.9967 200.19 61.0219 200.347 60.9753C200.431 60.9503 200.533 60.9074 200.638 60.8379C200.744 60.7681 200.832 60.686 200.9 60.603C201.029 60.445 201.055 60.3247 201.046 60.359C201.036 60.3944 201.016 60.4903 200.994 60.6978L197.016 60.2866ZM200.686 57.0346C200.753 57.042 200.726 57.0346 200.652 57.0395C200.61 57.0422 200.509 57.0512 200.375 57.0901C200.244 57.128 200.012 57.2145 199.771 57.4139L202.326 60.4915C201.76 60.9615 201.127 61.017 200.913 61.031C200.627 61.0497 200.372 61.0242 200.244 61.0101L200.686 57.0346ZM199.76 57.4233C199.924 57.2855 200.1 57.1521 200.217 57.0627C200.353 56.959 200.439 56.8917 200.507 56.8328C200.576 56.7725 200.574 56.7655 200.544 56.8049C200.513 56.8454 200.406 56.997 200.354 57.2509L204.271 58.0607C204.075 59.0092 203.409 59.6103 203.131 59.8513C202.956 60.0043 202.775 60.1427 202.645 60.2414C202.497 60.3545 202.411 60.4205 202.338 60.4821L199.76 57.4233ZM200.353 57.2535C200.289 57.564 200.327 57.8046 200.35 57.9126C200.375 58.0317 200.408 58.1082 200.42 58.135C200.443 58.1863 200.449 58.1837 200.421 58.1481C200.394 58.1143 200.382 58.1093 200.409 58.13C200.424 58.1415 200.472 58.1771 200.553 58.218C200.627 58.2555 200.79 58.3278 201.024 58.3586L201.545 54.3927C202.171 54.475 202.632 54.7929 202.856 54.9659C203.127 55.1752 203.36 55.4187 203.547 55.6527C203.732 55.8849 203.921 56.1693 204.064 56.486C204.169 56.7181 204.421 57.3277 204.271 58.058L200.353 57.2535ZM201.034 58.3599C199.912 58.2184 198.718 57.7517 198.081 56.5241C197.56 55.5194 197.668 54.4036 197.741 53.7667L201.715 54.2244C201.699 54.3621 201.689 54.4761 201.684 54.5723C201.679 54.6688 201.679 54.7356 201.682 54.7798C201.687 54.876 201.699 54.8115 201.632 54.6829C201.597 54.615 201.548 54.5448 201.486 54.4814C201.424 54.4187 201.367 54.3801 201.33 54.3595C201.296 54.3402 201.288 54.3412 201.321 54.3511C201.355 54.3611 201.423 54.3773 201.535 54.3914L201.034 58.3599ZM197.741 53.7674C197.945 51.993 198.02 50.1852 198.09 48.3037L202.087 48.4521C202.017 50.3221 201.939 52.2753 201.715 54.2237L197.741 53.7674ZM198.089 48.3063C198.099 48.0298 198.108 47.857 198.105 47.6771C198.104 47.5967 198.1 47.5371 198.095 47.4934C198.091 47.4495 198.086 47.4334 198.087 47.4379C198.09 47.4469 198.128 47.5846 198.275 47.735C198.347 47.8089 198.426 47.8657 198.501 47.905C198.575 47.9431 198.627 47.9555 198.64 47.9582L199.432 44.0374C200.069 44.1661 200.665 44.4565 201.139 44.9429C201.6 45.4153 201.833 45.957 201.954 46.4136C202.167 47.2194 202.099 48.1198 202.087 48.4495L198.089 48.3063ZM198.639 47.958C198.626 47.9553 198.825 47.9943 199.097 47.8675C199.363 47.7442 199.483 47.5637 199.506 47.525C199.518 47.5042 199.491 47.5457 199.437 47.7298C199.412 47.8146 199.388 47.9075 199.357 48.026C199.329 48.1343 199.292 48.2778 199.253 48.4158L195.404 47.3265C195.428 47.2417 195.451 47.1513 195.485 47.0219C195.516 46.9028 195.555 46.7541 195.6 46.6009C195.686 46.309 195.825 45.8883 196.07 45.4775C196.325 45.0488 196.744 44.5505 197.412 44.24C198.088 43.926 198.794 43.9082 199.433 44.0376L198.639 47.958ZM199.253 48.4151C198.598 50.7346 197.999 53.0556 197.327 55.5626L193.463 54.5275C194.122 52.0678 194.739 49.6814 195.404 47.3272L199.253 48.4151ZM196.808 53.629L196.81 53.6314L193.985 56.4636L193.983 56.4612L196.808 53.629ZM163.764 55.2112C163.901 56.2537 163.873 56.6267 164.024 57.1849L160.162 58.2275C159.924 57.3446 159.857 56.1853 159.798 55.734L163.764 55.2112ZM164.429 57.0771C164.591 55.6847 164.713 54.28 164.82 52.8605L168.809 53.1612C168.7 54.6093 168.573 56.0722 168.403 57.5379L164.429 57.0771ZM164.82 52.8611C165.162 48.3144 165.479 43.7938 165.817 39.2358L169.806 39.5311C169.471 44.0564 169.15 48.624 168.809 53.1606L164.82 52.8611ZM166.397 39.6125C166.336 39.6012 166.356 39.6138 166.43 39.6014C166.513 39.5876 166.616 39.5505 166.713 39.4833C166.9 39.3537 166.875 39.2514 166.801 39.4859L162.986 38.2819C163.212 37.5653 163.632 36.7521 164.435 36.1956C165.284 35.6072 166.255 35.5155 167.137 35.6815L166.397 39.6125ZM176.386 51.3184C176.396 51.1729 176.391 51.0905 176.386 51.0551C176.382 51.0211 176.383 51.071 176.431 51.1617C176.485 51.2649 176.574 51.3698 176.684 51.4465C176.787 51.5175 176.848 51.5222 176.805 51.514L177.56 47.5859C178.584 47.7826 179.466 48.3415 179.969 49.2958C180.405 50.1222 180.418 50.9974 180.377 51.5954L176.386 51.3184ZM176.806 51.5141C176.755 51.5044 176.867 51.5353 177.064 51.4749C177.28 51.4085 177.446 51.2792 177.544 51.1632C177.623 51.0701 177.631 51.019 177.603 51.093C177.575 51.1656 177.541 51.2792 177.493 51.4778L173.606 50.533C173.701 50.143 173.906 49.2683 174.493 48.5761C174.831 48.1777 175.294 47.8339 175.891 47.6508C176.467 47.4739 177.041 47.4862 177.56 47.5858L176.806 51.5141ZM177.493 51.4766C176.645 54.9777 175.787 58.4425 174.957 61.9303L171.065 61.0043C171.898 57.5079 172.764 54.0077 173.606 50.5342L177.493 51.4766ZM174.957 61.9289C174.859 62.3426 174.947 62.4923 174.938 62.4769C174.934 62.4697 174.922 62.4541 174.907 62.4438C174.894 62.4346 174.91 62.4511 174.982 62.4644L174.254 66.3976C173.056 66.176 172.027 65.4859 171.432 64.4013C170.856 63.3519 170.796 62.1411 171.065 61.0057L174.957 61.9289ZM174.983 62.4646C175.135 62.4929 175.215 62.4533 175.261 62.4171C175.309 62.3795 175.413 62.2683 175.439 61.9967L179.421 62.3789C179.168 65.0176 176.896 66.8881 174.253 66.3974L174.983 62.4646ZM175.439 61.9965C175.782 58.4342 176.073 54.8737 176.387 51.283L180.371 51.6309C180.06 55.1925 179.766 58.7939 179.421 62.3791L175.439 61.9965ZM178.379 49.4569H178.381V53.4569H178.379V49.4569ZM175.893 41.5358C175.673 41.5439 175.456 41.6394 175.307 41.7752C175.152 41.9164 175.185 41.9847 175.184 41.9086L171.184 41.9788C171.139 39.3961 173.511 37.6213 175.745 37.5385L175.893 41.5358ZM175.184 41.9087C175.183 41.8759 175.175 41.8832 175.199 41.9295C175.223 41.9768 175.269 42.0415 175.34 42.1053C175.411 42.169 175.485 42.2123 175.546 42.236C175.606 42.2592 175.631 42.2555 175.621 42.2562L175.887 46.2473C174.614 46.332 173.466 45.7987 172.667 45.0808C171.87 44.3652 171.207 43.2722 171.184 41.9786L175.184 41.9087ZM175.623 42.256C175.55 42.2608 175.569 42.2765 175.675 42.2175C175.775 42.1623 175.898 42.0701 176.017 41.9457C176.137 41.821 176.219 41.6985 176.265 41.607C176.314 41.5075 176.288 41.5111 176.288 41.6141L180.288 41.6056C180.29 42.8955 179.58 44.0093 178.905 44.7138C178.223 45.4255 177.151 46.1644 175.885 46.2475L175.623 42.256ZM176.288 41.6183C176.288 41.7546 176.352 41.7468 176.249 41.6603C176.152 41.5783 176.013 41.5291 175.889 41.5335L175.748 37.536C177.905 37.4598 180.277 39.0892 180.288 41.6014L176.288 41.6183ZM177.819 39.5348V39.5372H173.819V39.5348H177.819ZM162.627 64.2887C162.366 64.2878 162.16 64.3838 162.038 64.4923C161.919 64.5988 161.919 64.6719 161.919 64.6794L157.92 64.7302C157.886 62.0593 160.269 60.2811 162.64 60.2887L162.627 64.2887ZM161.919 64.6811C161.919 64.6562 161.914 64.7299 162.03 64.8373C162.143 64.943 162.267 64.9778 162.339 64.977L162.385 68.9767C160.1 69.0025 157.948 67.14 157.92 64.7285L161.919 64.6811ZM162.339 64.977C162.278 64.9777 162.298 64.9917 162.397 64.9422C162.491 64.8948 162.609 64.8125 162.723 64.6978C162.837 64.5828 162.915 64.4679 162.957 64.381C163.002 64.2893 162.981 64.2845 162.982 64.3651L166.982 64.3096C167 65.641 166.286 66.7851 165.562 67.5153C164.833 68.2497 163.702 68.9614 162.385 68.9767L162.339 64.977ZM162.982 64.3674C162.984 64.4532 163.025 64.4559 162.965 64.403C162.903 64.3492 162.786 64.2914 162.63 64.2911L162.637 60.2911C164.763 60.2951 166.945 61.873 166.982 64.3073L162.982 64.3674ZM160.633 62.2911V62.2887H164.633V62.2911H160.633Z" fill="black" mask="url(#path-2-inside-1_979_2270)"/>
<path d="M161.554 34.7704L142.896 48.3393C143.603 55.1237 145.186 68.7774 145.865 69.1167C146.543 69.4559 166.501 74.9117 176.395 77.5972L204.381 71.6608L210.741 59.788L208.197 45.3711L186.571 33.4983L161.554 34.7704Z" fill="white"/>
<path d="M177.467 48.644V64H174.387V57.466H167.809V64H164.729V48.644H167.809V54.958H174.387V48.644H177.467ZM184.278 48.644V64H181.198V48.644H184.278ZM192.003 48.38L191.651 59.006H189.055L188.681 48.38H192.003ZM190.419 64.154C189.862 64.154 189.4 63.9853 189.033 63.648C188.681 63.296 188.505 62.8633 188.505 62.35C188.505 61.8367 188.681 61.4113 189.033 61.074C189.4 60.722 189.862 60.546 190.419 60.546C190.962 60.546 191.409 60.722 191.761 61.074C192.113 61.4113 192.289 61.8367 192.289 62.35C192.289 62.8633 192.113 63.296 191.761 63.648C191.409 63.9853 190.962 64.154 190.419 64.154Z" fill="black"/>
</svg>
