<svg width="258" height="430" viewBox="0 0 258 430" fill="none" xmlns="http://www.w3.org/2000/svg">
<mask id="mask0_843_2279" style="mask-type:alpha" maskUnits="userSpaceOnUse" x="0" y="0" width="258" height="430">
<rect width="258" height="430" fill="#D9D9D9"/>
</mask>
<g mask="url(#mask0_843_2279)">
<ellipse opacity="0.3" cx="128.5" cy="400.455" rx="123.5" ry="22.4545" fill="black"/>
<path d="M206.371 9.93207C211.828 19.9524 214.412 30.8339 215.687 42.0509C217.174 55.1467 217.23 68.2089 213.595 81.0475C213.45 81.5619 213.539 82.2777 213.797 82.7585C220.596 95.7201 224.857 109.476 226.646 123.981C229.498 147.03 226.378 169.24 216.961 190.522C216.537 191.484 215.843 192.334 215.206 193.184C212.79 196.393 210.341 199.558 207.936 202.768C204.76 206.984 200.533 210.004 196.216 212.867C193.13 214.913 189.842 216.635 186.632 218.503C186.162 218.771 185.693 219.029 184.977 219.42C185.614 219.923 186.062 220.304 186.52 220.65C196.731 228.445 205.42 237.593 211.538 248.989C215.183 255.789 217.543 262.991 217.767 270.763C217.856 273.738 217.543 276.735 217.409 279.878C218.482 279.956 219.735 279.967 220.965 280.157C230.684 281.667 237.192 287.404 241.397 295.982C245.01 303.34 245.982 311.236 245.334 319.299C244.283 332.417 239.485 344.037 230.594 353.822C224.958 360.018 218.236 364.592 209.849 366.079C199.717 367.88 191.351 364.592 184.753 356.73C184.407 356.316 184.071 355.891 183.501 355.187C182.259 359.369 181.007 363.217 180.873 367.298C180.682 373.136 180.66 378.974 180.492 384.812C180.302 391.265 178.423 397.214 175.672 403.052C174.062 406.474 171.423 407.894 168.358 409.057C162.051 411.439 155.52 411.932 148.866 411.082C148.429 411.026 147.915 410.936 147.535 411.093C143.911 412.603 140.288 412.233 136.631 411.238C135.982 411.059 135.233 411.037 134.562 411.16C130.86 411.842 127.293 411.618 123.893 409.829C123.446 409.594 122.808 409.549 122.305 409.65C117.373 410.612 112.441 410.858 107.453 410.12C107.073 410.064 106.626 410.064 106.279 410.209C102.98 411.585 99.6474 411.305 96.2588 410.556C95.0286 410.288 93.6754 410.288 92.4117 410.433C89.0455 410.824 85.8246 410.556 82.8051 408.912C75.9273 405.154 74.261 397.069 79.0251 390.795C81.0829 388.1 83.7893 386.266 86.8759 384.689C86.5068 383.816 86.1601 382.989 85.8135 382.161C78.6337 365.006 73.9926 347.179 71.7447 328.727C71.1967 324.242 71.0402 319.724 70.6823 315.217C70.6264 314.513 70.481 313.808 70.3132 313.126C69.5528 309.972 68.7923 306.818 67.9759 303.676C67.8752 303.273 67.5509 302.703 67.2266 302.614C63.3683 301.585 60.5054 299.08 57.8996 296.273C50.2502 287.997 48.0358 278.144 49.4673 267.184C50.6416 258.193 55.0926 250.767 60.2593 243.632C64.4307 237.873 69.5304 232.997 74.686 228.177C75.2228 227.673 75.7931 227.192 76.3858 226.678C63.1558 222.54 51.3909 216.445 41.9521 206.033C34.0118 197.277 30.8693 186.988 30.1647 175.626C29.7398 168.737 30.3884 161.892 32.3008 155.261C33.6987 150.418 33.4974 145.531 33.5086 140.61C33.5198 125.837 36.0919 111.5 41.2699 97.6772C42.1645 95.284 42.1422 93.1144 41.6837 90.7323C37.0537 66.7439 39.2792 43.4264 48.8299 20.903C50.2054 17.6598 52.2855 14.7074 54.019 11.6096C55.5735 8.82491 58.2351 8.23219 61.0757 7.87432C65.4932 7.33752 69.5416 8.63479 73.4446 10.4241C84.9523 15.7027 94.2905 23.6877 102.041 33.6074C102.197 33.8087 102.343 34.01 102.533 34.2672C103.416 33.9764 104.266 33.6745 105.127 33.4173C117.82 29.6373 130.704 28.4966 143.822 30.5096C144.828 30.6661 145.388 30.4537 145.991 29.6596C153.585 19.6281 163.057 11.9004 174.498 6.62178C174.677 6.54349 174.822 6.40929 174.99 6.29746C175.471 6.14089 175.952 6.00669 176.422 5.82775C184.306 2.77468 192.291 1.25373 200.6 4.02722L202.434 4.76533C203.754 6.49876 205.062 8.22101 206.382 9.95444L206.371 9.93207ZM204.403 13.891C203.452 12.2806 202.524 10.6702 201.551 9.08213C200.656 7.61711 199.325 6.85663 197.637 6.46521C192.268 5.1903 187.035 5.89485 181.879 7.50527C171.78 10.659 163.27 16.4408 155.721 23.6989C153.283 26.0362 151.046 28.586 148.821 30.9346L168.705 37.6893C170.438 33.4955 173.078 29.7156 176.209 26.3046C181.477 20.5563 187.538 15.9935 195.288 14.1482C198.185 13.4549 201.092 13.2088 203.899 14.6179C204.101 15.8146 203.553 16.1948 202.378 16.2843C200.075 16.4744 197.681 16.5191 195.5 17.2013C188.846 19.2814 183.478 23.4193 178.759 28.4518C175.728 31.695 173.268 35.3296 171.288 39.4451C188.242 48.4031 201.171 61.4877 211.18 77.7036C211.828 74.7848 212.41 71.9442 212.701 69.0812C213.987 56.2986 213.058 43.6389 210.307 31.1023C208.999 25.1527 207.388 19.2814 204.403 13.891ZM109.824 385.158C109.444 385.248 109.064 385.438 108.684 385.427C105.798 385.337 102.902 385.125 100.016 385.114C94.6931 385.102 89.6382 386.12 85.176 389.285C81.7762 391.712 79.7968 394.866 79.6849 399.115C79.5731 403.477 85.0306 407.984 90.2085 407.648C89.6494 406.865 89.1014 406.161 88.6093 405.412C85.6345 400.882 86.1154 395.581 89.873 392.26C90.3316 391.857 91.1815 391.891 91.8525 391.723C91.64 392.316 91.5506 393.009 91.1815 393.468C89.7388 395.212 88.6317 397.058 89.0566 399.417C89.9625 404.472 96.2364 408.778 101.37 407.883C98.1152 403.712 98.7862 397.617 102.902 394.172C103.55 393.624 104.3 393.121 105.082 392.83C105.541 392.662 106.167 392.942 106.726 393.02C106.436 393.468 106.246 394.094 105.843 394.329C103.472 395.704 102.141 397.684 101.806 400.413C101.403 403.745 102.756 405.937 106.044 406.485C108.784 406.944 111.58 407.179 114.365 407.279C116.188 407.346 118.033 407.022 120.024 406.865C115.673 401.028 117.798 393.222 122.227 389.419C122.92 388.827 123.602 388.223 124.284 387.619C125.537 386.914 126.801 386.198 128.053 385.494C127.393 383.984 126.812 382.631 126.23 381.289C121.958 371.369 119.274 360.946 116.568 350.534C115.919 348.052 115.975 348.052 113.258 347.694C96.9521 345.591 84.0688 338.054 75.2898 323.929C75.1109 323.638 74.8761 323.381 74.6636 323.113C75.0326 328.179 75.5359 333.133 76.4306 338.02C79.2152 353.23 83.0847 368.137 89.1349 382.418C89.5487 383.391 89.9849 383.559 91.0361 383.537C96.8179 383.391 102.6 383.38 108.37 383.369C109.41 383.369 110.126 383.895 109.858 385.125L109.824 385.158ZM217.521 283.322C216.469 282.741 216.235 283.523 215.921 284.25C215.172 286.029 214.524 287.851 213.618 289.54C208.921 298.23 201.54 303.866 192.649 307.758C192.235 307.937 191.765 308.082 191.419 308.351C190.736 308.899 190.658 314.457 191.273 315.05C194.494 318.125 199.471 318.114 202.669 315.038C202.982 314.736 203.362 314.49 203.709 314.211C203.273 316.392 202.322 318.136 200.544 319.277C197.2 321.424 193.879 320.518 190.524 318.841C190.457 319.545 190.423 320.048 190.356 320.552C189.696 326.088 189.171 331.657 188.332 337.17C187.773 340.816 186.755 344.395 185.95 347.996C185.749 349.137 184.977 350.602 185.424 351.373C189.987 359.213 198.185 364.178 208.182 362.758C215.407 361.729 221.424 358.24 226.445 353.129C237.886 341.498 242.862 327.374 241.912 311.18C241.576 305.387 239.91 299.907 236.857 294.908C233.793 289.898 229.711 286.04 224.018 284.273C221.949 283.635 219.679 283.624 217.498 283.333L217.521 283.322ZM94.5924 230.603C89.996 229.575 85.3997 228.512 80.7921 227.539C80.3448 227.45 79.6849 227.729 79.3159 228.054C73.0755 233.433 67.1819 239.136 62.3171 245.846C57.0609 253.093 52.923 260.788 52.2408 269.958C51.4356 280.806 54.6117 289.987 63.2788 296.932C64.4307 297.849 65.7839 298.498 67.2825 299.415C67.2825 298.565 67.3161 298.163 67.2825 297.771C66.6003 289.551 67.4167 281.432 69.1501 273.414C71.9795 260.329 77.2917 248.251 84.2142 236.855C84.505 236.374 84.7734 235.837 85.1984 235.513C85.6233 235.189 86.2272 235.11 86.7529 234.931C86.8759 235.513 87.1667 236.128 87.0884 236.676C86.9989 237.246 86.5627 237.761 86.2608 238.286C80.1882 248.586 75.5471 259.468 72.8183 271.121C69.8771 283.658 69.1949 296.239 72.5499 308.809C75.5918 320.194 81.5526 329.644 91.4499 336.276C102.164 343.455 114.175 345.424 126.812 344.518C127.516 344.462 128.31 344.216 128.914 344.44C129.563 344.674 130.435 345.312 130.514 345.871C130.581 346.397 129.865 347.381 129.295 347.571C128.165 347.94 126.901 347.985 125.694 348.029C123.636 348.097 121.578 348.052 119.297 348.052C119.632 349.494 119.845 350.479 120.091 351.452C122.864 362.378 125.738 373.27 130.357 383.604C130.67 384.297 130.916 384.599 131.755 384.577C137.481 384.443 143.207 384.353 148.933 384.342C149.648 384.342 150.364 384.901 151.08 385.203C151.08 386.098 150.689 386.456 149.749 386.389C147.266 386.232 144.784 386.154 142.301 386.042C138.443 385.852 134.674 386.4 131.073 387.697C127.673 388.916 124.631 390.851 122.652 393.949C120.739 396.946 119.845 400.334 121.835 403.578C123.904 406.966 127.226 408.543 131.442 408.722C130.76 407.782 130.2 407.067 129.708 406.306C126.868 401.922 127.192 397.203 130.592 393.568C130.961 393.166 131.408 392.785 131.9 392.562C132.191 392.428 132.773 392.517 132.974 392.73C133.142 392.92 133.052 393.479 132.907 393.792C132.739 394.139 132.359 394.374 132.102 394.687C130.2 396.968 129.451 399.395 130.827 402.28C132.873 406.586 137.369 409.203 142.704 408.923C141.071 407.38 140.031 405.568 140.333 403.466C140.623 401.43 141.205 399.384 142.033 397.505C142.849 395.671 144.448 394.374 146.394 393.703C146.808 393.557 147.378 393.881 147.87 393.993C147.613 394.407 147.457 395.011 147.076 395.223C144.493 396.633 143.151 398.78 142.882 401.688C142.592 404.685 143.945 406.81 146.875 407.413C154.044 408.878 161.123 408.588 167.967 405.825C169.443 405.233 171.221 404.506 172.015 403.287C174.464 399.529 176.053 395.347 176.567 390.817C176.623 390.683 176.724 390.549 176.746 390.403C177.663 383.783 177.607 377.151 177.294 370.497C177.182 368.137 177.204 365.677 177.73 363.384C179.195 356.965 180.917 350.613 182.595 344.249C186.006 331.321 187.605 318.147 187.694 304.805C187.739 298.163 187.381 291.497 186.8 284.888C185.659 271.937 182.819 259.322 178.2 247.144C177.864 246.249 177.551 245.321 177.406 244.381C177.35 244.001 177.708 243.285 178.021 243.196C178.446 243.073 179.128 243.252 179.486 243.554C179.922 243.923 180.213 244.527 180.436 245.086C181.689 248.24 183.053 251.371 184.105 254.592C189.148 270.193 191.038 286.286 191.161 302.614C191.161 303.15 191.161 303.676 191.161 304.448C191.877 304.168 192.358 304.045 192.783 303.81C194.829 302.692 196.954 301.685 198.867 300.366C210.363 292.504 215.664 281.689 214.054 267.732C213.058 259.11 209.502 251.449 204.76 244.314C198.755 235.3 190.982 227.975 182.394 221.467C181.98 221.153 181.119 221.075 180.638 221.288C171.602 225.191 162.241 227.975 152.579 229.787C150.767 230.123 148.989 230.603 147.199 231.028C146.763 231.006 146.316 230.928 145.891 230.973C141.809 231.409 137.749 231.945 133.656 232.303C124.497 233.109 115.338 232.918 106.19 232.013C102.309 231.632 98.4507 231.073 94.5813 230.603H94.5924ZM223.526 153.494C223.694 151.861 223.895 150.228 224.018 148.595C224.835 137.848 224.119 127.179 222.061 116.611C218.695 99.2541 212.063 83.2618 201.17 69.2713C183.948 47.1505 161.771 33.9317 133.276 32.6792C122.249 32.1983 111.491 33.887 101.269 38.2038C95.4647 40.6641 89.9961 43.706 85.176 47.8774C82.5032 50.1924 79.4724 52.116 76.8891 54.5204C61.3777 68.9358 50.3284 86.2925 43.3947 106.255C39.0779 118.691 36.8524 131.485 37.3668 144.704C37.4228 146.224 37.0537 147.779 36.7965 149.3C36.5952 150.497 36.2597 151.66 35.9801 152.845C33.5198 162.642 32.3231 172.539 34.3697 182.548C36.5616 193.273 41.4488 202.511 50.3732 209.232C58.0786 215.025 66.6786 219.107 75.7707 222.182C76.3075 222.361 76.9562 222.16 77.5377 222.249C78.0969 222.328 78.6784 222.473 79.1817 222.719C79.8751 223.055 80.4566 223.681 81.1723 223.882C100.385 229.351 119.934 230.559 139.718 228.367C154.178 226.768 168.191 223.301 181.454 217.183C191.754 212.43 201.126 206.391 208.462 197.556C208.809 197.143 209.301 196.841 209.703 196.472C210.263 195.957 211.001 195.521 211.336 194.884C214.546 188.8 217.051 182.436 219.008 175.849C221.178 168.535 222.855 161.121 223.504 153.505L223.526 153.494ZM81.2842 45.473C81.1947 45.1375 81.1835 45.0257 81.1388 44.9586C76.0168 38.2485 70.1007 32.3437 62.9545 27.8144C59.6778 25.7343 56.2892 23.7212 52.3415 22.9943C51.3238 22.8042 50.8652 23.0726 50.5409 24.012C50.0041 25.5441 49.3108 27.0203 48.7851 28.5525C42.3994 47.2959 40.789 66.4867 43.4171 86.0688C43.5848 87.3326 43.8868 88.5851 44.1328 89.8488C52.5204 71.5416 64.6544 56.567 81.2842 45.4842V45.473ZM99.6138 35.1954C99.2783 34.7257 99.0099 34.3008 98.7079 33.9093C91.9532 25.4659 83.8004 18.6999 74.1268 13.8239C70.1567 11.8221 66.03 10.2788 61.4895 10.2676C59.5883 10.2676 57.9332 10.6702 56.9155 12.5714C56.1438 13.9917 55.1038 15.2666 54.265 16.6533C53.4933 17.9282 52.8335 19.259 52.129 20.5675C65.7616 24.2469 75.2787 33.1936 83.6774 43.3146C89.0231 40.5858 94.2458 37.9354 99.625 35.1842L99.6138 35.1954Z" fill="#0B0907"/>
<path d="M200.6 4.00486C192.291 1.22019 184.295 2.75232 176.422 5.80539C175.952 5.98433 175.471 6.11852 174.99 6.27509C175.08 6.05142 175.124 5.68237 175.281 5.61527C177.059 4.88835 178.848 4.17261 180.66 3.54633C182.472 2.92006 184.284 2.20432 186.162 1.90237C189.562 1.35438 193.018 0.258408 196.429 1.95829C197.815 2.65166 199.213 3.32267 200.611 4.00486H200.6Z" fill="#FAF9F6"/>
<path d="M206.371 9.93207C205.051 8.19864 203.743 6.47639 202.423 4.74296C202.87 4.91071 203.463 4.96663 203.743 5.27977C204.749 6.42048 205.677 7.63947 206.55 8.88083C206.695 9.08213 206.438 9.5742 206.371 9.93207Z" fill="#FAF9F6"/>
<path d="M35.9913 152.845C36.2709 151.671 36.6064 150.497 36.8077 149.3C37.0649 147.779 37.434 146.224 37.378 144.704C36.8636 131.485 39.0891 118.691 43.4059 106.255C50.3396 86.2925 61.3889 68.9358 76.9003 54.5204C79.4836 52.116 82.5032 50.1924 85.1872 47.8774C90.0072 43.7172 95.4759 40.6641 101.28 38.2038C111.502 33.8758 122.26 32.1983 133.287 32.6792C161.771 33.9205 183.959 47.1393 201.182 69.2713C212.074 83.2618 218.706 99.2541 222.072 116.611C224.119 127.179 224.846 137.848 224.029 148.595C223.906 150.228 223.705 151.861 223.537 153.494C219.97 151.134 215.821 150.463 211.761 149.982C203.978 149.065 196.406 150.575 189.104 153.158C183.422 155.16 177.92 157.676 172.273 159.801C166.233 162.071 160.15 164.152 153.596 164.644C145.041 165.292 136.911 163.995 129.44 159.756C125.38 157.453 121.645 154.579 117.686 152.107C115.573 150.787 113.291 149.747 111.077 148.573C110.171 146.94 109.053 145.643 107.096 145.106C101.616 143.63 96.091 143.317 90.544 144.536C86.8647 145.341 83.4202 146.649 81.642 150.407C81.2171 150.541 80.7809 150.631 80.3895 150.832C76.0727 153.046 71.577 154.131 66.7793 152.778C62.5743 151.593 58.4252 150.183 54.2203 148.987C50.6863 147.98 47.0405 147.611 43.3947 148.092C40.912 148.428 38.6418 149.423 37.132 151.637C36.8301 152.085 36.3827 152.431 36.0137 152.823L35.9913 152.845ZM58.4588 129.841C55.2491 130.467 53.0125 135.779 55.3833 138.139C55.4281 138.34 55.484 138.53 55.5064 138.732C56.3004 146.482 64.4643 151.089 71.4651 147.656C75.8043 145.52 77.9403 141.829 77.7502 137.043C77.5601 132.245 75.0997 128.745 70.5816 127.011C65.9964 125.256 61.948 126.542 58.4588 129.852V129.841ZM127.002 139.883C127.17 140.353 127.36 140.823 127.494 141.304C128.948 146.437 133.936 149.859 139.181 149.333C144.717 148.774 149.011 144.491 149.38 139.145C149.783 133.453 146.372 128.532 141.06 127.235C136.474 126.117 132.728 127.705 129.541 130.959C127.36 131.552 125.839 133.498 126.007 135.902C126.096 137.244 126.655 138.553 127.002 139.883ZM147.345 121.744C148.318 121.543 149.749 121.408 151.08 120.961C154.893 119.686 156.482 116.454 154.659 113.289C153.842 111.869 152.523 110.527 151.102 109.699C146.662 107.094 141.854 105.942 136.709 107.25C134.148 107.91 131.878 109.151 131.296 111.936C130.76 114.475 132.359 116.219 134.249 117.662C137.984 120.525 142.402 121.241 147.345 121.744ZM74.9655 112.685C74.9991 109.677 73.4446 107.921 71.1744 107.183C68.289 106.255 65.4484 106.523 62.6638 107.317C59.7225 108.156 57.0609 109.554 55.1709 112.115C53.3815 114.542 53.8624 117.852 56.4458 119.172C57.799 119.865 59.4429 120.368 60.9303 120.312C64.4755 120.178 67.9312 119.34 70.973 117.371C72.9861 116.063 74.8202 114.564 74.9655 112.674V112.685Z" fill="#FAA329"/>
<path d="M111.054 148.584C113.258 149.747 115.55 150.787 117.664 152.118C121.623 154.601 125.358 157.475 129.418 159.768C136.888 164.006 145.019 165.303 153.574 164.655C160.127 164.163 166.211 162.083 172.25 159.812C177.898 157.687 183.4 155.182 189.081 153.169C196.395 150.586 203.966 149.076 211.739 149.993C215.798 150.474 219.947 151.145 223.515 153.505C222.866 161.121 221.189 168.547 219.019 175.849C217.062 182.436 214.546 188.8 211.347 194.884C211.012 195.521 210.274 195.957 209.715 196.472C209.312 196.841 208.82 197.143 208.473 197.556C201.137 206.391 191.765 212.43 181.465 217.183C168.191 223.301 154.189 226.768 139.729 228.367C119.945 230.559 100.385 229.351 81.1835 223.882C80.4678 223.681 79.8862 223.055 79.1929 222.719C78.6896 222.473 78.1081 222.328 77.5489 222.249C76.9674 222.171 76.3187 222.372 75.7819 222.182C66.6898 219.107 58.0897 215.036 50.3844 209.232C41.4488 202.511 36.5728 193.273 34.3809 182.548C32.3343 172.55 33.5309 162.642 35.9913 152.845C36.3715 152.454 36.8077 152.107 37.1096 151.66C38.6194 149.445 40.8896 148.45 43.3724 148.114C47.0182 147.622 50.6639 147.991 54.1979 149.009C58.4029 150.206 62.5407 151.615 66.7569 152.8C71.5546 154.154 76.0503 153.069 80.3671 150.854C80.7585 150.653 81.2059 150.564 81.6197 150.429C80.6467 153.628 81.2059 156.692 83.1518 159.253C84.9188 161.568 87.1778 163.503 89.2132 165.605C89.6494 166.064 90.3651 166.556 90.3987 167.07C90.5329 169.162 90.4546 171.253 90.4546 173.523C88.0501 172.662 85.9141 172.081 83.7893 173.076C81.6309 174.082 80.6243 176.095 79.8862 178.276C74.6748 177.214 69.5751 176.957 64.3525 177.516C59.6331 178.008 54.9472 178.5 50.4626 180.043C48.0358 180.871 45.5308 181.732 43.8197 183.868C39.5364 189.225 42.3211 199.301 48.7739 201.661C50.7981 202.399 52.8783 203.036 54.9696 203.528C60.4271 204.814 65.9741 204.848 71.4763 203.965C75.301 203.349 79.0699 202.309 82.8946 201.459C84.9747 206.38 88.4527 208.997 93.1722 208.684C97.489 208.393 100.665 205.855 102.935 202.399C104.098 200.621 104.691 198.429 105.295 196.349C105.44 195.857 104.646 195.074 104.288 194.425C103.696 194.794 102.935 195.029 102.533 195.555C102.13 196.08 102.063 196.874 101.862 197.556C100.822 201.068 98.4395 203.394 95.2299 204.893C92.1656 206.324 87.7594 204.535 86.4621 201.459C86.0259 200.408 86.0148 199.704 87.2226 198.999C89.1237 197.881 90.7677 196.337 92.6242 195.13C93.8543 194.336 94.4471 193.329 94.626 191.92C95.174 187.57 93.5188 184.181 90.1303 181.564C89.7277 181.251 89.1014 181.217 88.5869 181.05C86.7417 180.423 84.9076 179.797 83.0735 179.182C83.9794 176.241 85.4108 175.436 88.0613 176.252C88.833 176.487 89.5711 176.867 90.3316 177.124C91.8861 177.65 92.6353 177.169 92.8478 175.581C93.1945 173.042 93.5524 170.493 93.9102 167.909C101.56 166.276 106.536 163.078 109.835 157.475C111.468 154.702 112.206 151.76 111.032 148.584H111.054Z" fill="#FDFDFD"/>
<path d="M151.102 385.181C150.387 384.879 149.671 384.32 148.955 384.32C143.229 384.32 137.503 384.42 131.777 384.554C130.939 384.577 130.681 384.286 130.379 383.582C125.761 373.248 122.887 362.355 120.113 351.429C119.867 350.456 119.654 349.472 119.319 348.029C121.6 348.029 123.658 348.074 125.716 348.007C126.924 347.974 128.187 347.929 129.317 347.549C129.887 347.358 130.614 346.374 130.536 345.849C130.458 345.289 129.597 344.652 128.937 344.417C128.322 344.193 127.539 344.44 126.834 344.495C114.197 345.401 102.186 343.433 91.4723 336.253C81.5749 329.621 75.6142 320.16 72.5723 308.787C69.2173 296.217 69.8994 283.635 72.8407 271.099C75.5694 259.445 80.2218 248.553 86.2832 238.264C86.5963 237.738 87.0325 237.224 87.1107 236.654C87.189 236.106 86.8983 235.491 86.7753 234.909C86.2496 235.099 85.6457 235.177 85.2207 235.491C84.7958 235.815 84.5274 236.352 84.2366 236.833C77.3141 248.24 72.0019 260.307 69.1725 273.391C67.4391 281.421 66.6227 289.529 67.3049 297.749C67.3385 298.14 67.3049 298.543 67.3049 299.393C65.8063 298.476 64.4419 297.827 63.3012 296.91C54.6341 289.976 51.458 280.795 52.2632 269.936C52.9454 260.754 57.0832 253.071 62.3395 245.824C67.1931 239.125 73.0979 233.41 79.3382 228.031C79.7073 227.707 80.3671 227.427 80.8145 227.517C85.422 228.49 90.0184 229.552 94.6148 230.581C94.38 230.961 94.1787 231.375 93.9102 231.733C88.6876 238.555 84.2366 245.846 81.0493 253.843C79.4613 257.813 78.0186 261.85 76.7773 265.932C75.7819 269.209 75.0662 272.575 74.4735 275.952C73.9926 278.636 73.6794 281.387 73.6459 284.105C73.6012 288.556 73.4334 293.074 74.0597 297.458C74.7754 302.423 76.1286 307.311 77.5377 312.142C78.5666 315.687 79.752 319.299 82.3242 322.117C84.5497 324.555 86.8535 326.982 89.4033 329.074C96.7397 335.124 105.049 339.351 114.432 341.163C121.757 342.583 129.026 342.303 136.061 339.496C144.94 335.951 152.064 330.404 156.381 321.659C156.884 320.977 157.51 320.339 157.846 319.59C159.445 316.011 161.201 312.466 162.431 308.764C163.784 304.716 165.082 300.545 165.562 296.328C166.144 291.229 166.055 286.028 165.864 280.884C165.73 277.261 165.003 273.66 164.444 270.07C164.265 268.907 163.751 267.788 163.393 266.648L163.348 266.267C163.158 265.574 162.968 264.892 162.778 264.198V264.154L162.196 262.308C162.017 261.637 161.906 260.933 161.637 260.295C159.479 254.983 157.555 249.571 155.039 244.426C152.769 239.785 149.85 235.468 147.21 231.006C149 230.592 150.789 230.111 152.59 229.765C162.252 227.953 171.624 225.168 180.649 221.265C181.13 221.053 181.991 221.131 182.405 221.444C190.994 227.942 198.766 235.267 204.772 244.292C209.525 251.427 213.081 259.088 214.065 267.71C215.675 281.667 210.363 292.481 198.878 300.343C196.966 301.652 194.83 302.658 192.794 303.788C192.369 304.023 191.888 304.146 191.173 304.425C191.173 303.654 191.173 303.128 191.173 302.591C191.049 286.252 189.159 270.17 184.116 254.57C183.076 251.338 181.7 248.217 180.448 245.064C180.224 244.504 179.933 243.901 179.497 243.531C179.139 243.23 178.457 243.051 178.032 243.174C177.719 243.263 177.361 243.979 177.417 244.359C177.562 245.298 177.864 246.227 178.211 247.121C182.83 259.3 185.659 271.915 186.811 284.865C187.393 291.486 187.75 298.151 187.706 304.783C187.616 318.114 186.017 331.299 182.606 344.227C180.928 350.59 179.206 356.943 177.741 363.362C177.216 365.654 177.193 368.104 177.305 370.475C177.629 377.129 177.674 383.76 176.757 390.381C176.735 390.526 176.645 390.649 176.578 390.795C173.201 389.688 169.835 388.536 166.446 387.473C161.447 385.919 156.336 385.013 151.08 385.17L151.102 385.181Z" fill="#F9A32A"/>
<path d="M147.21 231.028C149.839 235.491 152.769 239.819 155.039 244.449C157.555 249.582 159.479 255.006 161.637 260.318C161.894 260.955 162.006 261.66 162.196 262.331C162.386 262.946 162.576 263.561 162.767 264.176V264.221C162.968 264.914 163.158 265.596 163.337 266.29C163.348 266.413 163.371 266.536 163.382 266.67C163.449 267.375 163.449 268.079 163.583 268.772C163.885 270.316 164.388 271.837 164.59 273.402C164.981 276.388 165.227 279.397 165.518 282.405C165.63 283.557 165.842 284.72 165.797 285.861C165.697 288.019 165.193 290.178 165.283 292.325C165.495 296.999 164.142 301.35 162.644 305.599C160.865 310.654 158.562 315.519 156.504 320.473C156.347 320.843 156.403 321.29 156.359 321.704C152.042 330.438 144.918 335.996 136.038 339.541C129.004 342.348 121.735 342.628 114.409 341.208C105.027 339.396 96.7285 335.168 89.381 329.118C86.8423 327.027 84.5385 324.6 82.3019 322.162C79.7297 319.355 78.5442 315.743 77.5154 312.187C76.1062 307.355 74.7531 302.457 74.0373 297.503C73.411 293.119 73.5676 288.601 73.6235 284.15C73.6571 281.421 73.9702 278.681 74.4511 275.997C75.0438 272.631 75.7596 269.253 76.7549 265.977C77.9962 261.883 79.4389 257.846 81.027 253.887C84.2254 245.891 88.6652 238.6 93.8879 231.778C94.1563 231.42 94.3576 231.017 94.5924 230.626C98.4619 231.095 102.32 231.655 106.201 232.035C115.349 232.941 124.508 233.131 133.667 232.326C137.749 231.968 141.82 231.431 145.902 230.995C146.327 230.95 146.774 231.028 147.21 231.051V231.028Z" fill="#FEFEFD"/>
<path d="M185.972 347.996C186.789 344.384 187.795 340.816 188.354 337.17C189.204 331.657 189.73 326.099 190.378 320.552C190.434 320.048 190.479 319.556 190.546 318.841C193.901 320.518 197.212 321.424 200.567 319.277C202.334 318.136 203.295 316.392 203.732 314.211C203.385 314.49 203.016 314.736 202.691 315.038C199.493 318.114 194.516 318.125 191.296 315.05C190.669 314.457 190.748 308.887 191.441 308.351C191.788 308.071 192.246 307.937 192.671 307.758C201.551 303.866 208.943 298.241 213.64 289.54C214.546 287.851 215.195 286.017 215.944 284.25C216.246 283.523 216.492 282.741 217.543 283.322C218.863 284.094 220.305 284.698 221.468 285.648C229.621 292.269 233.066 301.327 234.061 311.381C234.799 318.83 233.893 326.177 231.198 333.267C228.111 341.375 223.336 348.119 215.765 352.548C208.686 356.685 201.226 357.3 193.823 353.543C191.005 352.111 188.589 349.875 185.995 347.996H185.972Z" fill="#FAA32A"/>
<path d="M109.835 385.158C110.104 383.928 109.377 383.403 108.348 383.403C102.566 383.403 96.7844 383.425 91.0137 383.57C89.9625 383.593 89.5264 383.425 89.1126 382.452C83.0623 368.171 79.1929 353.263 76.4082 338.054C75.5135 333.167 75.0214 328.212 74.6412 323.146C74.8537 323.415 75.0885 323.672 75.2675 323.963C84.0465 338.087 96.9298 345.636 113.235 347.727C115.953 348.074 115.908 348.085 116.546 350.568C119.252 360.98 121.936 371.403 126.208 381.322C126.79 382.676 127.371 384.018 128.031 385.527C126.778 386.232 125.526 386.937 124.262 387.652C123.904 387.485 123.569 387.205 123.188 387.149C118.737 386.467 114.286 385.818 109.835 385.158Z" fill="#F9A32A"/>
<path d="M204.403 13.891C207.4 19.2814 208.999 25.1527 210.307 31.1023C213.058 43.6277 213.987 56.2986 212.701 69.0812C212.41 71.9442 211.828 74.7848 211.18 77.7036C201.159 61.4765 188.242 48.3919 171.288 39.4451C173.279 35.3296 175.728 31.695 178.759 28.4518C183.467 23.4081 188.846 19.2814 195.5 17.2013C197.681 16.5191 200.075 16.4744 202.378 16.2843C203.553 16.1836 204.101 15.8146 203.899 14.6179C204.067 14.3831 204.235 14.137 204.403 13.9022V13.891Z" fill="#FCFBFB"/>
<path d="M81.2842 45.473C64.6656 56.5558 52.5204 71.5304 44.1328 89.8377C43.898 88.5739 43.596 87.3326 43.4171 86.0577C40.789 66.4755 42.3994 47.2847 48.7851 28.5413C49.3108 27.0092 50.0041 25.533 50.5409 24.0008C50.8652 23.0614 51.3238 22.793 52.3415 22.9831C56.2892 23.7101 59.6778 25.7231 62.9545 27.8032C70.0896 32.3437 76.0056 38.2485 81.1388 44.9474C81.1947 45.0145 81.1947 45.1263 81.2842 45.4618V45.473Z" fill="#FCFBFB"/>
<path d="M151.102 385.181C156.359 385.024 161.469 385.93 166.468 387.485C169.857 388.536 173.223 389.688 176.601 390.806C176.086 395.324 174.498 399.518 172.049 403.276C171.255 404.495 169.477 405.221 168 405.814C161.156 408.565 154.077 408.867 146.908 407.402C143.978 406.798 142.625 404.673 142.916 401.676C143.196 398.769 144.526 396.621 147.11 395.212C147.479 395.011 147.647 394.407 147.904 393.982C147.401 393.87 146.83 393.546 146.428 393.691C144.482 394.362 142.882 395.648 142.066 397.494C141.239 399.373 140.657 401.419 140.366 403.454C140.064 405.546 141.104 407.369 142.737 408.912C137.403 409.203 132.907 406.575 130.86 402.269C129.485 399.384 130.234 396.957 132.135 394.675C132.392 394.362 132.773 394.128 132.94 393.781C133.086 393.468 133.175 392.908 133.007 392.718C132.806 392.495 132.225 392.416 131.934 392.551C131.442 392.763 130.994 393.155 130.625 393.557C127.226 397.181 126.901 401.911 129.742 406.295C130.234 407.056 130.793 407.76 131.475 408.711C127.27 408.532 123.938 406.955 121.869 403.566C119.889 400.323 120.773 396.935 122.685 393.937C124.665 390.84 127.707 388.905 131.106 387.686C134.707 386.389 138.487 385.852 142.334 386.031C144.817 386.154 147.3 386.221 149.783 386.377C150.722 386.433 151.113 386.087 151.113 385.192L151.102 385.181Z" fill="#FCFBFB"/>
<path d="M185.972 347.996C188.567 349.863 190.982 352.1 193.801 353.543C201.204 357.312 208.663 356.697 215.742 352.548C223.314 348.119 228.1 341.375 231.176 333.267C233.871 326.177 234.777 318.83 234.039 311.381C233.043 301.327 229.599 292.269 221.446 285.648C220.272 284.698 218.829 284.094 217.521 283.322C219.701 283.613 221.96 283.624 224.041 284.262C229.733 286.017 233.826 289.876 236.879 294.897C239.932 299.896 241.599 305.387 241.934 311.169C242.874 327.362 237.908 341.487 226.467 353.118C221.446 358.229 215.429 361.707 208.205 362.747C198.196 364.178 190.009 359.213 185.447 351.362C184.999 350.602 185.771 349.125 185.972 347.985V347.996Z" fill="#FAF9F6"/>
<path d="M109.835 385.158C114.286 385.818 118.737 386.467 123.188 387.149C123.558 387.205 123.904 387.473 124.262 387.652C123.58 388.256 122.898 388.86 122.204 389.453C117.776 393.244 115.651 401.05 120.001 406.899C118.011 407.056 116.176 407.391 114.342 407.313C111.558 407.201 108.762 406.977 106.022 406.519C102.734 405.96 101.381 403.779 101.783 400.446C102.119 397.706 103.45 395.738 105.821 394.362C106.234 394.127 106.413 393.501 106.704 393.054C106.156 392.976 105.519 392.685 105.06 392.864C104.277 393.155 103.528 393.669 102.879 394.206C98.7527 397.65 98.0929 403.745 101.347 407.917C96.214 408.8 89.9401 404.506 89.0343 399.451C88.6093 397.08 89.7165 395.246 91.1591 393.501C91.5394 393.043 91.6176 392.338 91.8301 391.757C91.1591 391.924 90.3092 391.891 89.8507 392.293C86.093 395.615 85.6233 400.916 88.5869 405.445C89.079 406.194 89.627 406.91 90.1862 407.682C85.0083 408.028 79.5507 403.522 79.6626 399.149C79.7744 394.888 81.7539 391.734 85.1536 389.319C89.6158 386.143 94.6707 385.125 99.994 385.147C102.879 385.147 105.776 385.371 108.661 385.46C109.041 385.472 109.422 385.281 109.802 385.192L109.835 385.158Z" fill="#FAF9F6"/>
<path d="M99.6138 35.1954C94.2346 37.9354 89.0119 40.597 83.6662 43.3258C75.2675 33.1936 65.7616 24.2469 52.1178 20.5787C52.8223 19.2702 53.4822 17.9282 54.2538 16.6645C55.0926 15.2778 56.1326 14.0028 56.9043 12.5825C57.922 10.6925 59.5771 10.2788 61.4783 10.2788C66.0188 10.2788 70.1455 11.8333 74.1156 13.8351C83.7781 18.7111 91.9308 25.4659 98.6968 33.9205C99.0099 34.3119 99.2783 34.7369 99.6026 35.2066L99.6138 35.1954Z" fill="#F6A12A"/>
<path d="M204.403 13.891C204.235 14.1259 204.067 14.3719 203.899 14.6067C201.103 13.1976 198.185 13.4549 195.288 14.137C187.527 15.9823 181.476 20.5563 176.209 26.2934C173.078 29.7044 170.438 33.4844 168.705 37.6782L148.821 30.9234C151.058 28.5637 153.294 26.025 155.721 23.6877C163.281 16.4296 171.792 10.6478 181.879 7.49408C187.023 5.88367 192.257 5.17912 197.637 6.45403C199.325 6.85663 200.656 7.60592 201.551 9.07095C202.524 10.659 203.452 12.2806 204.403 13.8798V13.891Z" fill="#F6A12A"/>
<path d="M111.054 148.584C112.218 151.76 111.491 154.702 109.858 157.475C106.559 163.067 101.582 166.276 93.9326 167.909C93.5747 170.493 93.2169 173.042 92.8702 175.581C92.6577 177.169 91.8972 177.65 90.3539 177.124C89.5823 176.867 88.8553 176.487 88.0837 176.252C85.4332 175.436 83.9905 176.241 83.0959 179.182C84.9188 179.808 86.764 180.435 88.6093 181.05C89.1238 181.229 89.75 181.251 90.1526 181.564C93.5412 184.181 95.1963 187.57 94.6484 191.92C94.4694 193.318 93.8767 194.324 92.6465 195.13C90.7901 196.326 89.1461 197.87 87.2449 198.999C86.0371 199.715 86.0371 200.419 86.4844 201.459C87.7705 204.535 92.188 206.324 95.2523 204.893C98.4619 203.394 100.855 201.068 101.884 197.556C102.085 196.874 102.141 196.08 102.555 195.555C102.958 195.04 103.707 194.794 104.311 194.425C104.669 195.074 105.474 195.845 105.317 196.349C104.702 198.429 104.121 200.621 102.958 202.399C100.687 205.855 97.5113 208.393 93.1945 208.684C88.4751 208.997 84.9971 206.38 82.917 201.459C79.0922 202.309 75.3346 203.349 71.4987 203.965C65.9964 204.837 60.4606 204.803 54.9919 203.528C52.8895 203.036 50.8205 202.41 48.7963 201.661C42.3435 199.301 39.5588 189.225 43.8421 183.868C45.5531 181.732 48.047 180.871 50.485 180.043C54.9808 178.511 59.6666 178.019 64.3748 177.516C69.5975 176.968 74.6971 177.225 79.9086 178.276C80.6579 176.107 81.6532 174.082 83.8116 173.076C85.9365 172.081 88.0837 172.662 90.4769 173.523C90.4769 171.253 90.5552 169.151 90.421 167.07C90.3875 166.556 89.6829 166.064 89.2356 165.605C87.2002 163.492 84.9411 161.568 83.1742 159.253C81.2282 156.692 80.6691 153.628 81.642 150.429C83.409 146.661 86.8647 145.363 90.544 144.558C96.091 143.339 101.604 143.652 107.096 145.129C109.053 145.654 110.171 146.951 111.077 148.595L111.054 148.584ZM50.2949 198.954C51.5586 199.704 52.621 199.122 53.6052 198.384C55.2939 197.143 55.909 195.152 55.8642 193.363C55.786 190.175 54.8242 187.089 51.9724 185.132C50.0936 183.834 49.266 183.23 46.9846 185.277C46.5261 185.791 45.9334 186.239 45.6314 186.832C43.5401 190.79 45.8439 197.579 50.2837 198.954H50.2949ZM56.2109 200.598C58.839 200.766 61.3329 201.001 63.838 201.057C67.2042 201.135 67.2825 201.102 68.468 197.937C69.1725 196.058 69.3403 194.213 67.9423 192.367C66.3655 190.287 65.9181 187.905 67.1483 185.378C68.0989 183.421 67.9647 182.85 66.2313 181.519C65.6609 181.083 64.7551 180.983 63.9834 180.927C62.8203 180.837 61.6349 180.815 60.483 180.971C58.1233 181.296 55.7748 181.754 53.2026 182.202C59.387 188.218 60.0692 192.479 56.2109 200.609V200.598ZM74.5965 181.385L74.4735 181.877C75.2563 182.772 76.3299 183.544 76.7772 184.572C77.6831 186.675 78.3876 188.9 78.9468 191.126C79.4053 192.96 78.8574 194.693 77.6943 196.237C76.9114 197.288 76.2516 198.429 75.3905 199.76C80.8368 198.854 87.0101 195.857 90.8348 192.949C91.1479 192.703 91.4611 192.188 91.4387 191.819C91.3381 190.175 91.2486 188.509 90.9019 186.91C90.5552 185.355 88.9336 185.601 87.8041 185.154C87.7594 185.132 87.7146 185.109 87.6699 185.098C85.1648 184.17 82.7045 183.119 80.1435 182.358C78.3541 181.833 76.4529 181.698 74.5965 181.396V181.385ZM69.7093 180.938C69.7317 182.504 70.2238 184.125 69.6758 185.221C68.4791 187.603 68.8035 189.616 70.1455 191.64C71.8453 194.201 71.6888 196.762 70.4139 199.413C70.2349 199.771 70.2014 200.196 70.056 200.777C70.5705 200.677 70.9059 200.71 71.029 200.565C72.8071 198.451 74.7307 196.427 76.2404 194.134C76.822 193.251 76.5983 191.719 76.4865 190.5C76.2404 187.558 74.6748 185.176 72.8519 182.996C71.9907 181.967 71.2303 180.379 69.6981 180.927L69.7093 180.938Z" fill="#070505"/>
<path d="M129.541 130.97C132.728 127.716 136.474 126.128 141.06 127.246C146.372 128.543 149.783 133.464 149.38 139.157C149 144.502 144.717 148.785 139.181 149.345C133.936 149.87 128.959 146.437 127.494 141.315C127.36 140.834 127.17 140.376 127.002 139.895C126.957 138.72 127.751 139.168 128.299 139.246C130.447 139.582 132.292 138.497 132.896 136.517C133.511 134.482 132.515 132.402 130.547 131.552C130.189 131.395 129.876 131.172 129.541 130.97Z" fill="#070505"/>
<path d="M58.4588 129.852C61.948 126.553 65.9964 125.256 70.5816 127.011C75.0885 128.745 77.5601 132.234 77.7502 137.043C77.9403 141.829 75.8043 145.52 71.4651 147.656C64.4643 151.1 56.3004 146.482 55.5064 138.732C55.484 138.53 55.4281 138.34 55.3833 138.139L55.5064 137.401C57.3404 138.564 58.6042 138.575 60.0245 137.49C61.6573 136.238 62.4736 133.811 61.8921 131.943C61.3665 130.232 60.0468 129.818 58.4588 129.841V129.852Z" fill="#070505"/>
<path d="M147.345 121.755C142.39 121.252 137.973 120.536 134.249 117.673C132.37 116.231 130.76 114.486 131.296 111.947C131.889 109.163 134.148 107.921 136.709 107.261C141.854 105.942 146.662 107.094 151.102 109.711C152.511 110.538 153.842 111.88 154.659 113.3C156.482 116.465 154.893 119.697 151.08 120.972C149.749 121.42 148.318 121.554 147.345 121.755Z" fill="#FAF9F6"/>
<path d="M74.9767 112.697C74.8313 114.575 72.9972 116.085 70.9842 117.394C67.9423 119.362 64.4978 120.201 60.9415 120.335C59.4541 120.391 57.799 119.888 56.457 119.194C53.8848 117.875 53.3927 114.564 55.1821 112.137C57.0609 109.588 59.7225 108.178 62.6749 107.34C65.4708 106.546 68.3114 106.266 71.1855 107.206C73.4446 107.932 75.0103 109.699 74.9767 112.708V112.697Z" fill="#FAF9F6"/>
<path d="M58.4588 129.852C60.0468 129.83 61.3553 130.243 61.8921 131.954C62.4736 133.822 61.6461 136.249 60.0245 137.501C58.6154 138.586 57.3404 138.575 55.5064 137.412L55.3833 138.15C53.0125 135.802 55.2491 130.478 58.4588 129.852Z" fill="#FAF9F6"/>
<path d="M129.541 130.97C129.876 131.16 130.2 131.395 130.547 131.552C132.515 132.402 133.511 134.482 132.896 136.517C132.292 138.508 130.447 139.582 128.299 139.246C127.751 139.157 126.957 138.72 127.002 139.895C126.655 138.564 126.096 137.255 126.007 135.913C125.839 133.509 127.349 131.563 129.541 130.97Z" fill="#FAF9F6"/>
<path d="M156.359 321.692C156.403 321.279 156.359 320.831 156.504 320.462C158.562 315.508 160.865 310.643 162.644 305.588C164.131 301.339 165.495 296.988 165.283 292.314C165.182 290.178 165.697 288.008 165.797 285.85C165.853 284.709 165.63 283.546 165.518 282.394C165.227 279.397 164.981 276.388 164.59 273.391C164.388 271.837 163.896 270.316 163.583 268.761C163.449 268.079 163.449 267.363 163.382 266.659C163.74 267.8 164.243 268.918 164.433 270.081C164.992 273.671 165.719 277.283 165.853 280.895C166.043 286.04 166.133 291.251 165.551 296.34C165.07 300.556 163.773 304.727 162.42 308.776C161.19 312.488 159.434 316.022 157.835 319.601C157.499 320.362 156.862 320.988 156.37 321.67L156.359 321.692Z" fill="#FAF9F6"/>
<path d="M56.2109 200.609C60.0804 192.479 59.3982 188.218 53.2026 182.202C55.7748 181.754 58.1233 181.296 60.483 180.971C61.6349 180.815 62.8203 180.837 63.9834 180.927C64.7551 180.983 65.6609 181.083 66.2313 181.519C67.9647 182.85 68.0989 183.421 67.1483 185.378C65.9181 187.916 66.3655 190.287 67.9423 192.367C69.3403 194.213 69.1837 196.058 68.468 197.937C67.2825 201.102 67.2042 201.135 63.838 201.057C61.3329 201.001 58.8278 200.766 56.2109 200.598V200.609Z" fill="#593215"/>
<path d="M74.5965 181.396C76.4529 181.709 78.3541 181.833 80.1435 182.358C82.6933 183.119 85.1648 184.17 87.6699 185.098C87.7146 185.12 87.7594 185.143 87.8041 185.154C88.9224 185.59 90.5552 185.344 90.9019 186.91C91.2598 188.509 91.3381 190.175 91.4387 191.819C91.4611 192.188 91.1479 192.714 90.8348 192.949C87.0101 195.857 80.8368 198.854 75.3905 199.76C76.2516 198.429 76.9114 197.288 77.6943 196.237C78.8462 194.693 79.4053 192.971 78.9468 191.126C78.3876 188.9 77.6943 186.675 76.7772 184.572C76.3299 183.532 75.2563 182.761 74.4735 181.877L74.5965 181.385V181.396Z" fill="#593215"/>
<path d="M50.2949 198.954C45.8551 197.579 43.5401 190.79 45.6426 186.832C45.9557 186.239 46.5373 185.791 46.9958 185.277C52.2744 185.299 56.1438 191.696 53.6387 196.349C52.9454 197.635 52.1178 199.01 50.2949 198.954Z" fill="#F6A12A"/>
<path d="M69.7093 180.938C71.2414 180.39 71.9907 181.978 72.863 183.007C74.6859 185.188 76.2516 187.57 76.4977 190.511C76.5983 191.73 76.8332 193.251 76.2516 194.145C74.7419 196.438 72.8183 198.462 71.0401 200.576C70.9171 200.721 70.5816 200.677 70.0672 200.788C70.2126 200.207 70.2461 199.782 70.4251 199.424C71.7 196.785 71.8565 194.213 70.1567 191.652C68.8147 189.627 68.4903 187.614 69.687 185.232C70.2349 184.136 69.7429 182.515 69.7205 180.949L69.7093 180.938Z" fill="#593215"/>
<path d="M50.2949 198.954C52.129 199.01 52.9454 197.635 53.6387 196.349C56.1438 191.696 52.2632 185.299 46.9958 185.277C49.2772 183.23 50.1048 183.834 51.9836 185.132C54.8242 187.1 55.7971 190.175 55.8754 193.363C55.9202 195.163 55.2939 197.143 53.6164 198.384C52.621 199.111 51.5698 199.704 50.3061 198.954H50.2949Z" fill="#593215"/>
</g>
</svg>
