<svg width="103" height="103" viewBox="0 0 103 103" fill="none" xmlns="http://www.w3.org/2000/svg">
<path d="M47.9775 26.8252C49.066 28.7786 50.1116 30.6292 51.1315 32.4884C52.4942 34.973 53.8311 37.4833 55.2195 39.9593C55.4167 40.3106 55.7509 40.6362 56.1109 40.8247C60.0448 42.9666 63.9958 45.0742 67.9296 47.2075C68.2467 47.3789 68.4781 47.696 68.7524 47.9444C68.5038 48.1672 68.2811 48.4499 67.9897 48.6127C64.0987 50.7546 60.1904 52.8623 56.308 55.0299C55.8109 55.3126 55.3224 55.7752 55.0482 56.2721C52.8798 60.1533 50.7715 64.0601 48.6375 67.9498C48.4746 68.2497 48.2775 68.5238 47.9775 68.995C47.6519 68.5495 47.3947 68.2754 47.2233 67.9498C45.0721 63.983 43.0067 59.9734 40.7355 56.0837C40.247 55.244 39.0385 54.7728 38.1043 54.2416C34.3933 52.1597 30.6652 50.1206 26.757 47.9701C27.5455 47.4989 28.154 47.1048 28.7968 46.7621C32.3535 44.8258 35.9361 42.9238 39.4757 40.9532C40.0585 40.6276 40.6155 40.0792 40.9412 39.5052C43.1952 35.4699 45.3807 31.4089 47.5919 27.3478C47.669 27.2022 47.7976 27.0908 48.0033 26.8338L47.9775 26.8252Z" fill="#FEE8B7"/>
<path d="M12.1101 24.4691C11.4073 23.2268 10.7987 22.1987 10.2245 21.1534C9.65887 20.1253 9.02474 19.1229 8.59622 18.0348C8.08199 16.7582 7.07918 16.1328 5.96502 15.5502C4.23378 14.6334 2.52825 13.691 0.814154 12.7485C0.57418 12.6114 0.35996 12.4316 0 12.1746C0.299967 11.9175 0.497092 11.6862 0.754206 11.5491C2.85397 10.4182 4.97085 9.33865 7.04491 8.18202C7.482 7.94213 7.86767 7.49667 8.10764 7.05972C9.27323 4.98635 10.3702 2.87008 11.5187 0.779579C11.6644 0.52255 11.9044 0.317002 12.1786 0C12.41 0.351273 12.573 0.573989 12.7101 0.813883C13.8585 2.89582 14.9812 5.00349 16.1725 7.05972C16.4553 7.54807 16.9352 7.99352 17.4323 8.27625C19.3778 9.38148 21.3662 10.4182 23.3374 11.4891C23.6459 11.6519 23.9201 11.8747 24.3572 12.166C23.963 12.4059 23.6889 12.5943 23.406 12.7571C21.2548 13.9394 19.0265 15.0018 16.9953 16.364C16.1383 16.9381 15.6668 18.1376 15.1098 19.1057C14.1242 20.7936 13.2071 22.5157 12.1187 24.4777L12.1101 24.4691Z" fill="#FEE28B"/>
<path d="M62.8644 90.7225C65.307 89.3688 67.5868 88.1436 69.8237 86.8328C70.3636 86.5158 70.8779 86.0019 71.195 85.4621C72.4977 83.2259 73.7148 80.9383 75.0603 78.4965C76.0117 80.1415 77.0401 81.5638 77.6914 83.1402C78.7027 85.5991 80.4254 87.167 82.7994 88.2294C84.3078 88.9063 85.7047 89.8144 87.3588 90.7397C86.6218 91.1938 86.0819 91.5708 85.5077 91.8792C83.8793 92.7617 82.2081 93.5499 80.6226 94.5095C79.9369 94.9207 79.2941 95.5633 78.8827 96.2487C77.6572 98.2878 76.5601 100.404 75.4031 102.486C75.3259 102.632 75.1974 102.76 75.0089 103C73.6976 100.61 72.472 98.2964 71.1521 96.0259C70.8179 95.4519 70.2694 94.9207 69.6952 94.5865C67.7926 93.4813 65.8299 92.4704 63.893 91.4165C63.593 91.2538 63.3187 91.031 62.8559 90.714L62.8644 90.7225Z" fill="#FEE28B"/>
<path d="M103 32.2742C101.466 33.1567 100.06 33.9791 98.6462 34.7759C98.1234 35.0757 97.592 35.3842 97.0264 35.5899C95.3551 36.1982 94.5239 37.5604 93.7697 39.0341C92.8526 40.8247 91.8669 42.581 90.787 44.5773C90.4785 44.0547 90.2729 43.7463 90.1015 43.4293C89.0987 41.5872 88.0446 39.7709 87.1275 37.8946C86.4762 36.5666 85.2591 36.0354 84.0935 35.3842C82.2937 34.3818 80.5025 33.388 78.5485 32.2999C80.554 31.169 82.388 30.0381 84.2992 29.0785C85.6448 28.4016 86.6732 27.5877 87.3503 26.1569C88.3016 24.1435 89.5186 22.2587 90.7271 20.1254C91.3013 21.0592 91.8241 21.856 92.2955 22.6956C93.2468 24.4006 93.8553 26.4311 95.1666 27.7676C96.4779 29.1042 98.4834 29.7638 100.189 30.7148C101.08 31.2117 101.972 31.7087 103 32.2742Z" fill="#FEE8B7"/>
<path d="M23.6031 100.49C22.369 98.2878 21.2462 96.4372 20.2863 94.5095C19.5749 93.0701 18.5465 92.1019 17.1152 91.3994C15.2126 90.4655 13.3785 89.3689 11.3216 88.238C12.6586 87.4755 13.8156 86.7643 15.0241 86.1303C17.9837 84.5881 20.2263 82.3348 21.7519 79.3704C22.309 78.2823 22.8832 77.2028 23.586 75.8663C24.923 78.3338 26.1485 80.5184 27.2884 82.7632C27.7169 83.6028 28.2826 84.1598 29.1225 84.5796C31.2994 85.6848 33.442 86.8671 35.876 88.1694C34.8133 88.7863 33.9905 89.2833 33.1591 89.7545C31.6679 90.5855 30.1167 91.3223 28.7025 92.2562C28.034 92.6931 27.5198 93.4556 27.0999 94.1667C25.9428 96.1459 24.8716 98.185 23.6117 100.49H23.6031Z" fill="#FEE8B7"/>
</svg>
