<svg width="40" height="40" viewBox="0 0 40 40" fill="none" xmlns="http://www.w3.org/2000/svg">
<g clip-path="url(#clip0_243_2381)">
<path d="M20 40C31.0457 40 40 31.0457 40 20C40 8.9543 31.0457 0 20 0C8.9543 0 0 8.9543 0 20C0 31.0457 8.9543 40 20 40Z" fill="#26A17B"/>
<path fill-rule="evenodd" clip-rule="evenodd" d="M22.4024 21.7291V21.7266C22.2649 21.7366 21.5562 21.7791 19.9749 21.7791C18.7124 21.7791 17.8237 21.7416 17.5112 21.7266V21.7304C12.6512 21.5166 9.02375 20.6704 9.02375 19.6579C9.02375 18.6466 12.6512 17.8004 17.5112 17.5829V20.8879C17.8287 20.9104 18.7387 20.9641 19.9962 20.9641C21.5049 20.9641 22.2612 20.9016 22.4024 20.8891V17.5854C27.2524 17.8016 30.8712 18.6479 30.8712 19.6579C30.8712 20.6704 27.2524 21.5141 22.4024 21.7291ZM22.4024 17.2416V14.2841H29.1699V9.77417H10.7438V14.2841H17.5112V17.2404C12.0113 17.4929 7.875 18.5829 7.875 19.8879C7.875 21.1929 12.0113 22.2816 17.5112 22.5354V32.0129H22.4024V22.5329C27.8938 22.2804 32.0199 21.1916 32.0199 19.8879C32.0199 18.5841 27.8938 17.4954 22.4024 17.2416Z" fill="#212121"/>
</g>
<defs>
<clipPath id="clip0_243_2381">
<rect width="40" height="40" fill="white"/>
</clipPath>
</defs>
</svg>
