<svg width="186" height="184" viewBox="0 0 186 184" fill="none" xmlns="http://www.w3.org/2000/svg">
<path d="M92.6885 0.0210685C143.692 -0.0821367 185.273 40.9109 185.584 91.5847C185.895 141.846 144.375 183.437 93.3512 183.995C42.3892 184.552 -0.10335 142.568 0.000188818 91.7291C0.103728 41.0967 41.4987 0.124274 92.6885 0.0210685ZM77.0334 133.816C79.9946 131.319 82.2932 129.42 84.5296 127.479C86.8282 125.477 89.0854 123.434 91.591 121.184C94.076 122.876 96.3331 124.363 98.5281 125.931C103.539 129.544 108.344 133.445 113.521 136.768C118.801 140.153 121.369 138.976 123.295 132.908C123.605 131.938 123.667 130.906 123.895 129.894C128.472 108.572 133.048 87.2707 137.604 65.9485C137.956 64.2972 138.246 62.584 138.266 60.8915C138.287 57.0109 136.196 55.1945 132.365 55.8757C130.377 56.2266 128.451 57.0935 126.546 57.8366C99.9777 68.0126 73.4095 78.168 46.862 88.4059C43.818 89.5825 40.9603 91.2131 37.7092 92.8025C38.9724 94.6189 39.3658 95.8987 40.132 96.1876C45.5989 98.1485 51.2521 99.6966 56.6569 101.823C61.9167 103.887 66.286 103.267 71.0902 100.109C84.571 91.2957 98.3418 82.9361 112.009 74.432C114.142 73.0903 116.358 71.8931 118.553 70.634L119.837 72.2853C117.248 74.7416 114.701 77.2804 112.03 79.6748C102.09 88.5917 92.0259 97.3848 82.2104 106.446C80.0774 108.428 77.5925 111.152 77.2819 113.753C76.5571 120.007 77.0541 126.385 77.0541 133.837L77.0334 133.816Z" fill="white"/>
</svg>
