<svg width="185" height="184" viewBox="0 0 185 184" fill="none" xmlns="http://www.w3.org/2000/svg">
<path d="M0.0265173 91.9971C-1.19522 43.4907 39.9513 -0.0618571 92.1972 6.59518e-05C143.325 0.061989 184.741 40.9106 184.844 91.7494C184.927 142.506 143.532 183.767 92.4664 183.767C41.1938 183.767 -0.0355555 142.857 0.0265173 91.9971ZM44.9419 126.075C80.8493 147.336 128.56 123.103 132.847 81.2431C133.551 74.4316 134.98 68.6934 140.488 64.3381C140.819 64.0698 140.695 63.2235 140.799 62.4598L135.932 61.2833C137.361 58.7651 138.748 56.3088 141.42 51.6026C132.702 57.0519 127.028 55.2767 120.381 51.9122C108.287 45.7819 93.8745 54.0795 91.4931 67.4756C91.0376 70.097 90.8719 72.7597 90.5406 75.7113C73.0631 74.9063 59.6859 66.6087 47.7167 54.9258C42.1877 64.4413 45.6667 72.0579 50.1809 79.5919L44.8797 81.6766C45.646 90.4284 50.74 95.8363 58.3812 99.9645L52.8316 101.843C55.4201 110.636 62.8748 113.216 69.8534 118.232C61.5495 120.853 53.2664 123.475 44.9419 126.096V126.075Z" fill="white"/>
</svg>
